<?xml version="1.0" encoding="utf-8"?>
<!-- Generator: Adobe Illustrator 27.5.0, SVG Export Plug-In . SVG Version: 6.00 Build 0)  -->
<svg version="1.1" xmlns="http://www.w3.org/2000/svg" xmlns:xlink="http://www.w3.org/1999/xlink" x="0px" y="0px"
	 viewBox="0 0 500 500" style="enable-background:new 0 0 500 500;" xml:space="preserve">
<g id="Background_Simple">
	<g>
		<path style="fill:#92E3A9;" d="M485.167,225.56c-0.559-38.978-15.872-76.605-39.196-105.651
			c-13.645-16.992-30.064-31.878-47.989-43.469c-18.603-12.03-38.828-25.502-61.274-27.57c-5.54-0.51-11.221-0.266-16.688,1.364
			c-20.933,6.24,20.489,28.48,25.903,31.732c-57.896-24.762-117.822-49.921-181.108-47.548c-12.203,0.458-24.861,2.1-35.59,8.872
			c-10.728,6.772-19.031,19.835-17.434,32.783c1.321,10.703,8.549,22.66,1.769,31.025c-1.939,2.392-4.687,3.806-7.385,5.034
			c-13.844,6.3-28.79,9.604-41.905,17.618c-20.309,12.411-34.17,35.214-40.594,59.207c-6.424,23.993-6.116,49.204-3.594,73.61
			c4.746,45.933,17.651,91.501,43.766,127.222c37.303,51.023,98.461,77.012,159.72,81.295
			c74.126,5.182,154.493-21.962,203.509-84.788c7.27-9.318,13.936-19.641,16.58-31.327c2.644-11.686,0.549-25.002-7.588-32.676
			c-2.193-2.068-5.016-4.261-4.778-7.471c0.322-4.343,5.539-5.811,9.516-6.723c26.092-5.982,41.014-37.633,43.705-66.098
			C485.034,236.507,485.245,231.02,485.167,225.56z"/>
		<path style="opacity:0.7;fill:#FFFFFF;" d="M485.167,225.56c-0.559-38.978-15.872-76.605-39.196-105.651
			c-13.645-16.992-30.064-31.878-47.989-43.469c-18.603-12.03-38.828-25.502-61.274-27.57c-5.54-0.51-11.221-0.266-16.688,1.364
			c-20.933,6.24,20.489,28.48,25.903,31.732c-57.896-24.762-117.822-49.921-181.108-47.548c-12.203,0.458-24.861,2.1-35.59,8.872
			c-10.728,6.772-19.031,19.835-17.434,32.783c1.321,10.703,8.549,22.66,1.769,31.025c-1.939,2.392-4.687,3.806-7.385,5.034
			c-13.844,6.3-28.79,9.604-41.905,17.618c-20.309,12.411-34.17,35.214-40.594,59.207c-6.424,23.993-6.116,49.204-3.594,73.61
			c4.746,45.933,17.651,91.501,43.766,127.222c37.303,51.023,98.461,77.012,159.72,81.295
			c74.126,5.182,154.493-21.962,203.509-84.788c7.27-9.318,13.936-19.641,16.58-31.327c2.644-11.686,0.549-25.002-7.588-32.676
			c-2.193-2.068-5.016-4.261-4.778-7.471c0.322-4.343,5.539-5.811,9.516-6.723c26.092-5.982,41.014-37.633,43.705-66.098
			C485.034,236.507,485.245,231.02,485.167,225.56z"/>
	</g>
</g>
<g id="Dish">
	<g>
		<circle style="fill:#263238;stroke:#263238;stroke-miterlimit:10;" cx="257.599" cy="265.559" r="185.673"/>
		<circle style="fill:#C4C4C4;stroke:#263238;stroke-miterlimit:10;" cx="257.218" cy="253.346" r="185.673"/>
		<circle style="fill:#FFFFFF;stroke:#263238;stroke-miterlimit:10;" cx="257.218" cy="247.529" r="185.673"/>
		<circle style="fill:#FFFFFF;stroke:#263238;stroke-miterlimit:10;" cx="257.218" cy="247.529" r="133.626"/>
	</g>
</g>
<g id="Mushrooms">
	<g>
		<path style="fill:#263238;stroke:#263238;stroke-miterlimit:10;" d="M133.104,191.889l26.451-17.872l5.665,4.959
			c0,0,29.238,8.085,35.361,6.453c6.123-1.633,7.347-3.674,7.347-3.674l3.265-1.633c0,0,8.176-0.356,10.211,3.292
			c2.035,3.647-3.212,4.569,5.942,7.374c9.154,2.805,22.216,0.764,28.747-1.685c6.531-2.449,10.204-10.204,11.021-18.368
			c0.816-8.163-6.827-24.332-9.388-26.531c-2.561-2.199-7.347,1.225-9.796-3.674c-2.449-4.898-2.449-10.613-2.449-10.613
			s7.755,0.816,9.796-3.674c2.041-4.49,2.901-5.015-2.836-9.038c-5.736-4.023-27.778,8.63-35.941,12.304s-22.45,6.939-22.45,6.939
			s-14.694,4.898-16.327,4.898c-1.633,0-2.857,0.408-6.939,0c-4.082-0.408-7.755-1.633-11.021-1.224
			c-3.265,0.408-6.123,6.123-7.347,11.021c-1.225,4.898-8.98,20.409-13.47,24.491C134.456,179.714,122.772,188.961,133.104,191.889z
			"/>
		<g>
			<g>
				<path style="fill:#B0B0B0;stroke:#263238;stroke-miterlimit:10;" d="M235.436,159.197c0,0-15.923-0.899-20.418-1.413
					c-4.494-0.514-15.281-3.082-17.721,0c-2.44,3.082-3.596,14.896-1.156,17.079c2.44,2.183,2.825,2.697,9.117,3.596
					c6.292,0.899,17.079,1.926,18.62,2.183c1.541,0.257,6.292,1.669,6.292,1.669s1.027,2.312,3.21-4.238
					C235.564,171.525,236.335,160.225,235.436,159.197z"/>
				<path style="fill:#B0B0B0;stroke:#263238;stroke-miterlimit:10;" d="M246.479,145.585c0,0-6.035-0.514-8.732,0.514
					c-2.697,1.027-3.467,1.926-3.596,3.339c-0.128,1.413-3.21,22.857-4.238,27.994s-4.88,9.888-2.568,13.355
					c2.312,3.467,14.382,6.035,22.857,2.697c8.475-3.339,13.098-16.051,12.456-25.939c-0.642-9.888-5.136-16.822-8.86-18.877
					C250.075,146.613,248.02,145.072,246.479,145.585z"/>
			</g>
			<g>
				<path style="fill:#B0B0B0;stroke:#263238;stroke-miterlimit:10;" d="M193.209,127.02c0,0,12.305,0.283,19.095-2.122
					c6.789-2.405,9.335-4.243,11.174-1.556c1.839,2.687,4.385,12.447,3.678,15.559c-0.707,3.112-7.921,3.536-12.447,5.092
					c-4.526,1.556-12.164,3.536-12.164,3.536s-1.132-7.355-3.677-11.457c-2.546-4.102-4.95-7.921-4.95-7.921L193.209,127.02z"/>
				<path style="fill:#B0B0B0;stroke:#263238;stroke-miterlimit:10;" d="M195.755,127.727c0,0-2.829-5.375-4.95-8.062
					c-2.122-2.687-9.76-4.809-16.266-1.415c-6.506,3.395-7.921,18.246-6.365,26.733c1.556,8.487,8.345,18.387,17.539,20.509
					c9.194,2.122,14.993-1.697,18.246-8.911c3.253-7.214,1.414-15.7-0.566-18.387c-1.98-2.687-3.819-5.658-3.819-5.658
					s-1.415-1.697-1.697-2.687C197.594,128.859,195.755,127.727,195.755,127.727z"/>
				<line style="fill:none;stroke:#263238;stroke-miterlimit:10;" x1="192.078" y1="122.211" x2="189.815" y2="122.635"/>
				<path style="fill:none;stroke:#263238;stroke-miterlimit:10;" d="M189.673,120.796c0,0-1.414-0.141-2.97,0.849"/>
				<path style="fill:none;stroke:#263238;stroke-miterlimit:10;" d="M196.745,155.732c0,0,2.687-0.283,4.809-1.415"/>
				<path style="fill:none;stroke:#263238;stroke-miterlimit:10;" d="M205.515,149.368c0,0-2.263,1.414-3.678,1.697"/>
			</g>
			<g>
				<path style="fill:#B0B0B0;stroke:#263238;stroke-miterlimit:10;" d="M224.447,123.24c0,0-1.027,11.814,0,20.161
					c1.027,8.347,3.339,8.732,3.339,8.732s5.779,0.642,8.732,0.514c2.954-0.128,5.393-0.385,5.779-2.953
					c0.385-2.568-0.514-21.573-0.514-21.573l-0.771-7.448l-16.694-0.385L224.447,123.24z"/>
				<path style="fill:#B0B0B0;stroke:#263238;stroke-miterlimit:10;" d="M233.339,106.863c0,0-9.437-0.629-14.785,3.46
					c-5.348,4.089-5.348,9.437-4.404,10.695c0.944,1.258,3.362,1.836,3.362,1.836l1.027-0.771l0.771,1.412
					c0,0,3.339,0.642,3.852,0.771c0.514,0.128,2.44,0.385,3.082,0.385c0.642,0,6.421,0.899,6.421,0.899s1.156-0.385,1.669-0.77
					c0.514-0.385,1.413,0,1.926,0.257c0.514,0.257,0.385,0.385,1.156,0.257c0.77-0.128,2.825-0.257,2.825-0.257l1.156-0.385
					c1.156-0.771,2.311-0.771,2.311-0.771l1.669,1.284l3.981-0.257c0,0,1.413-0.385,1.798-0.514c0.385-0.128,1.412-0.77,1.412-0.77
					s1.027-2.44-0.128-6.421c-1.156-3.981-2.568-6.421-5.522-7.962C243.965,107.702,235.425,106.667,233.339,106.863z"/>
				<path style="fill:none;stroke:#263238;stroke-miterlimit:10;" d="M249.359,124.909c0,0,0.084-1.679-0.199-2.952"/>
				<line style="fill:none;stroke:#263238;stroke-miterlimit:10;" x1="251.14" y1="120.26" x2="251.564" y2="122.805"/>
				<path style="fill:none;stroke:#263238;stroke-miterlimit:10;" d="M221.72,117.996c0,0-0.283,1.98-0.141,3.253"/>
			</g>
			<g>
				<path style="fill:#B0B0B0;stroke:#263238;stroke-miterlimit:10;" d="M209.333,154.007c0,0-1.027,11.814,0,20.161
					s3.339,8.732,3.339,8.732s5.779,0.642,8.732,0.514c2.953-0.128,5.393-0.385,5.778-2.954c0.385-2.568-0.514-21.573-0.514-21.573
					l-0.77-7.448l-16.694-0.385L209.333,154.007z"/>
				<path style="fill:#B0B0B0;stroke:#263238;stroke-miterlimit:10;" d="M218.225,137.63c0,0-9.437-0.629-14.785,3.46
					c-5.348,4.089-5.348,9.437-4.404,10.695s3.362,1.836,3.362,1.836l1.027-0.77l0.77,1.412c0,0,3.339,0.642,3.852,0.771
					c0.514,0.128,2.44,0.385,3.082,0.385c0.642,0,6.421,0.899,6.421,0.899s1.156-0.385,1.669-0.77c0.514-0.385,1.413,0,1.926,0.257
					c0.514,0.257,0.385,0.385,1.156,0.257c0.771-0.128,2.825-0.257,2.825-0.257l1.156-0.385c1.156-0.77,2.312-0.77,2.312-0.77
					l1.669,1.284l3.981-0.257c0,0,1.413-0.385,1.798-0.514c0.385-0.128,1.413-0.77,1.413-0.77s1.027-2.44-0.128-6.421
					c-1.156-3.981-2.568-6.421-5.522-7.962C228.852,138.469,220.312,137.434,218.225,137.63z"/>
				<path style="fill:none;stroke:#263238;stroke-miterlimit:10;" d="M234.245,155.676c0,0,0.084-1.679-0.199-2.952"/>
				<line style="fill:none;stroke:#263238;stroke-miterlimit:10;" x1="236.026" y1="151.027" x2="236.451" y2="153.573"/>
				<path style="fill:none;stroke:#263238;stroke-miterlimit:10;" d="M206.607,148.764c0,0-0.283,1.98-0.142,3.253"/>
			</g>
			<g>
				<path style="fill:#B0B0B0;stroke:#263238;stroke-miterlimit:10;" d="M143.619,152.042c0,0-12.352,9.053-19.587,17.152
					c-7.235,8.099-5.643,10.673-5.643,10.673s4.292,6.16,6.93,8.921c2.637,2.76,4.963,4.912,7.786,3.101
					c2.823-1.811,20.523-18.853,20.523-18.853l6.58-7.085l-13.828-16.546L143.619,152.042z"/>
				<path style="fill:#B0B0B0;stroke:#263238;stroke-miterlimit:10;" d="M167.095,146.749c0,0-7.417-9.704-15.94-11.42
					c-8.522-1.716-13.718,2.833-14.137,4.82s1.077,4.828,1.077,4.828l1.622,0.343l-0.717,1.95c0,0,2.217,3.79,2.529,4.398
					c0.312,0.608,1.701,2.698,2.248,3.322c0.546,0.624,4.589,7.003,4.589,7.003s1.357,0.795,2.169,0.966
					c0.811,0.171,1.202,1.372,1.389,2.09c0.188,0.718-0.046,0.702,0.734,1.341c0.78,0.639,2.653,2.526,2.653,2.526l1.357,0.795
					c1.732,0.467,2.715,1.59,2.715,1.59l0.173,2.714l3.636,3.649c0,0,1.576,1.045,2.029,1.31c0.452,0.265,1.95,0.717,1.95,0.717
					s3.244-1.078,6.129-5.587c2.884-4.509,4.053-7.958,3.037-12.138C175.32,157.786,169.06,148.609,167.095,146.749z"/>
				<path style="fill:none;stroke:#263238;stroke-miterlimit:10;" d="M163.191,177.665c0,0,1.703-1.347,2.699-2.705"/>
				<line style="fill:none;stroke:#263238;stroke-miterlimit:10;" x1="169.224" y1="175.441" x2="167.111" y2="178.019"/>
				<path style="fill:none;stroke:#263238;stroke-miterlimit:10;" d="M146.393,144.933c0,0-2.165,1.41-3.281,2.63"/>
			</g>
			<g>
				<path style="fill:#B0B0B0;stroke:#263238;stroke-miterlimit:10;" d="M189.633,156.26c0,0-3.682-2.722-7.845-3.522
					c-4.163-0.801-15.049,1.761-19.692,8.005c-4.643,6.244-3.522,14.089-0.32,19.212c3.202,5.123,14.249,5.924,14.249,5.924
					s-0.16-3.522,1.441-9.926C179.066,169.549,189.633,156.26,189.633,156.26z"/>
				<path style="fill:#828282;stroke:#263238;stroke-miterlimit:10;" d="M185.15,154.979c-0.465,0.12-9.606,7.365-12.168,15.69
					s0.961,14.889,3.042,15.21c2.081,0.32,5.123-4.163,5.123-4.163s9.446-16.01,9.766-19.212
					C191.234,159.302,189.473,153.859,185.15,154.979z"/>
				<path style="fill:#B0B0B0;stroke:#263238;stroke-miterlimit:10;" d="M186.911,162.184c0,0-4.003,4.163-7.365,9.126
					c-3.362,4.963-0.801,10.727-0.801,10.727s17.611,8.005,20.333,6.724c2.722-1.281,6.724-13.929,6.244-16.33
					C204.843,170.029,186.911,162.184,186.911,162.184z"/>
			</g>
		</g>
	</g>
</g>
<g id="Beans">
	<g>
		<path style="fill:#92E3A9;" d="M177.884,307.863c0,0-20.742-2.911-23.653,1.092c-2.911,4.003,11.645,30.568,22.562,43.304
			c10.917,12.736,32.751,28.748,62.59,31.659c29.84,2.911,60.771,1.819,81.149-16.012c20.378-17.831,31.295-57.496,24.381-83.697
			c-6.914-26.201-29.112-40.029-32.751-45.487c-3.639-5.458-7.642-12.372-13.828-12.372c-6.186,0-8.733,4.003-8.733,7.278
			s2.547,15.284-5.095,33.479c-7.642,18.195-30.931,33.843-45.851,37.482c-14.92,3.639-41.484,1.092-49.126,1.819
			C181.887,307.135,177.884,307.863,177.884,307.863z"/>
		<g>
			<g>
				<path style="fill:#92E3A9;" d="M252.592,320.54c0,0-11.323-1.573-16.041,0.315c-4.718,1.887-5.258,11.589,2.202,14.154
					c7.567,2.602,18.01,2.845,22.647-1.258C267.897,328,261.714,320.854,252.592,320.54z"/>
				<path style="opacity:0.48;fill:#FFFFFF;" d="M252.592,320.54c0,0-11.323-1.573-16.041,0.315
					c-4.718,1.887-5.258,11.589,2.202,14.154c7.567,2.602,18.01,2.845,22.647-1.258C267.897,328,261.714,320.854,252.592,320.54z"/>
				<path style="fill:none;stroke:#263238;stroke-miterlimit:10;" d="M252.592,320.54c0,0-11.323-1.573-16.041,0.315
					c-4.718,1.887-5.258,11.589,2.202,14.154c7.567,2.602,18.01,2.845,22.647-1.258C267.897,328,261.714,320.854,252.592,320.54z"/>
				<path style="fill:#FFFFFF;" d="M240.874,326.418c0,1.724-1.157,3.122-2.584,3.122c-1.427,0-2.584-1.398-2.584-3.122
					c0-1.725,1.157-3.122,2.584-3.122C239.717,323.295,240.874,324.693,240.874,326.418z"/>
			</g>
			<g>
				<path style="fill:#92E3A9;" d="M311.864,269.735c0,0-11.323-1.573-16.041,0.314c-4.718,1.887-5.258,11.589,2.202,14.154
					c7.567,2.602,18.01,2.845,22.647-1.258C327.169,277.196,320.986,270.05,311.864,269.735z"/>
				<path style="opacity:0.48;fill:#FFFFFF;" d="M311.864,269.735c0,0-11.323-1.573-16.041,0.314
					c-4.718,1.887-5.258,11.589,2.202,14.154c7.567,2.602,18.01,2.845,22.647-1.258C327.169,277.196,320.986,270.05,311.864,269.735
					z"/>
				<path style="fill:none;stroke:#263238;stroke-miterlimit:10;" d="M311.864,269.735c0,0-11.323-1.573-16.041,0.314
					c-4.718,1.887-5.258,11.589,2.202,14.154c7.567,2.602,18.01,2.845,22.647-1.258C327.169,277.196,320.986,270.05,311.864,269.735
					z"/>
				<path style="fill:#FFFFFF;" d="M300.146,275.613c0,1.724-1.157,3.122-2.584,3.122s-2.584-1.398-2.584-3.122
					s1.157-3.122,2.584-3.122S300.146,273.889,300.146,275.613z"/>
			</g>
			<g>
				<path style="fill:#92E3A9;" d="M291.379,291.648c0,0-8.837,1.583-12.53,7.122c-3.693,5.539-2.902,10.683-0.264,12.266
					c2.638,1.583,6.331,2.638,9.892,0.659c3.561-1.978,8.441-6.594,10.683-8.573c2.242-1.978,4.089-7.518,0.923-10.287
					C296.919,290.065,291.379,291.648,291.379,291.648z"/>
				<path style="opacity:0.48;fill:#FFFFFF;" d="M291.379,291.648c0,0-8.837,1.583-12.53,7.122
					c-3.693,5.539-2.902,10.683-0.264,12.266c2.638,1.583,6.331,2.638,9.892,0.659c3.561-1.978,8.441-6.594,10.683-8.573
					c2.242-1.978,4.089-7.518,0.923-10.287C296.919,290.065,291.379,291.648,291.379,291.648z"/>
				<path style="fill:none;stroke:#263238;stroke-miterlimit:10;" d="M291.379,291.648c0,0-8.837,1.583-12.53,7.122
					c-3.693,5.539-2.902,10.683-0.264,12.266c2.638,1.583,6.331,2.638,9.892,0.659c3.561-1.978,8.441-6.594,10.683-8.573
					c2.242-1.978,4.089-7.518,0.923-10.287C296.919,290.065,291.379,291.648,291.379,291.648z"/>
				<circle style="fill:#FFFFFF;" cx="280.603" cy="307.038" r="2.261"/>
			</g>
			<g>
				<path style="fill:#92E3A9;" d="M319.604,320.813c0,0-8.837,1.583-12.53,7.122c-3.693,5.539-2.901,10.683-0.264,12.266
					c2.638,1.583,6.331,2.638,9.892,0.659c3.561-1.978,8.441-6.595,10.683-8.573s4.089-7.518,0.923-10.287
					C325.143,319.23,319.604,320.813,319.604,320.813z"/>
				<path style="opacity:0.48;fill:#FFFFFF;" d="M319.604,320.813c0,0-8.837,1.583-12.53,7.122
					c-3.693,5.539-2.901,10.683-0.264,12.266c2.638,1.583,6.331,2.638,9.892,0.659c3.561-1.978,8.441-6.595,10.683-8.573
					s4.089-7.518,0.923-10.287C325.143,319.23,319.604,320.813,319.604,320.813z"/>
				<path style="fill:none;stroke:#263238;stroke-miterlimit:10;" d="M319.604,320.813c0,0-8.837,1.583-12.53,7.122
					c-3.693,5.539-2.901,10.683-0.264,12.266c2.638,1.583,6.331,2.638,9.892,0.659c3.561-1.978,8.441-6.595,10.683-8.573
					s4.089-7.518,0.923-10.287C325.143,319.23,319.604,320.813,319.604,320.813z"/>
				<circle style="fill:#FFFFFF;" cx="308.827" cy="336.203" r="2.261"/>
			</g>
			<g>
				<path style="fill:#92E3A9;" d="M263.277,360.442c0,0-8.616,0.227-13.038,0.453c-4.422,0.227-8.73,0.227-9.523,4.422
					c-0.794,4.195,0.113,9.183,10.771,9.07c10.657-0.113,17.006-1.247,17.233-6.009
					C268.946,363.617,266.338,360.329,263.277,360.442z"/>
				<path style="opacity:0.48;fill:#FFFFFF;" d="M263.277,360.442c0,0-8.616,0.227-13.038,0.453
					c-4.422,0.227-8.73,0.227-9.523,4.422c-0.794,4.195,0.113,9.183,10.771,9.07c10.657-0.113,17.006-1.247,17.233-6.009
					C268.946,363.617,266.338,360.329,263.277,360.442z"/>
				<path style="fill:none;stroke:#263238;stroke-miterlimit:10;" d="M263.277,360.442c0,0-8.616,0.227-13.038,0.453
					c-4.422,0.227-8.73,0.227-9.523,4.422c-0.794,4.195,0.113,9.183,10.771,9.07c10.657-0.113,17.006-1.247,17.233-6.009
					C268.946,363.617,266.338,360.329,263.277,360.442z"/>
				<path style="fill:#FFFFFF;" d="M243.993,367.861c0,1.724-0.53,3.122-1.184,3.122s-1.184-1.398-1.184-3.122
					s0.53-3.122,1.184-3.122S243.993,366.136,243.993,367.861z"/>
			</g>
			<g>
				<path style="fill:#92E3A9;" d="M271.56,352.481c0,0-5.539,2.11-6.331,6.463c-0.791,4.352,5.276,11.738,11.474,13.189
					c6.199,1.451,10.156-0.659,8.441-6.99c-1.715-6.331-7.386-11.079-9.628-12.661S271.56,352.481,271.56,352.481z"/>
				<path style="opacity:0.48;fill:#FFFFFF;" d="M271.56,352.481c0,0-5.539,2.11-6.331,6.463
					c-0.791,4.352,5.276,11.738,11.474,13.189c6.199,1.451,10.156-0.659,8.441-6.99c-1.715-6.331-7.386-11.079-9.628-12.661
					S271.56,352.481,271.56,352.481z"/>
				<path style="fill:none;stroke:#263238;stroke-miterlimit:10;" d="M271.56,352.481c0,0-5.539,2.11-6.331,6.463
					c-0.791,4.352,5.276,11.738,11.474,13.189c6.199,1.451,10.156-0.659,8.441-6.99c-1.715-6.331-7.386-11.079-9.628-12.661
					S271.56,352.481,271.56,352.481z"/>
				<path style="fill:#FFFFFF;" d="M266.543,362.593c0.482,1.469,1.377,2.494,1.999,2.29c0.621-0.204,0.734-1.56,0.251-3.029
					c-0.483-1.469-1.377-2.494-1.999-2.29C266.174,359.768,266.061,361.125,266.543,362.593z"/>
			</g>
			<g>
				<path style="fill:#92E3A9;" d="M263.208,348.547c0,0-9.069-6.96-14.104-7.65c-5.035-0.689-10.296,7.479-5.077,13.395
					c5.294,6,14.255,11.369,20.313,10.092C272.831,362.593,270.984,353.326,263.208,348.547z"/>
				<path style="opacity:0.48;fill:#FFFFFF;" d="M263.208,348.547c0,0-9.069-6.96-14.104-7.65
					c-5.035-0.689-10.296,7.479-5.077,13.395c5.294,6,14.255,11.369,20.313,10.092C272.831,362.593,270.984,353.326,263.208,348.547
					z"/>
				<path style="fill:none;stroke:#263238;stroke-miterlimit:10;" d="M263.208,348.547c0,0-9.069-6.96-14.104-7.65
					c-5.035-0.689-10.296,7.479-5.077,13.395c5.294,6,14.255,11.369,20.313,10.092C272.831,362.593,270.984,353.326,263.208,348.547
					z"/>
				<path style="fill:#FFFFFF;" d="M250.115,347.869c-0.852,1.499-2.548,2.143-3.789,1.439c-1.241-0.705-1.556-2.492-0.705-3.991
					c0.852-1.499,2.548-2.143,3.789-1.439C250.652,344.583,250.967,346.37,250.115,347.869z"/>
			</g>
			<g>
				<path style="fill:#92E3A9;" d="M292.629,340.889c0,0-8.837,1.583-12.53,7.122c-3.693,5.539-2.902,10.683-0.264,12.266
					c2.638,1.583,6.331,2.638,9.892,0.659c3.561-1.978,8.441-6.595,10.683-8.573s4.089-7.518,0.923-10.287
					C298.168,339.307,292.629,340.889,292.629,340.889z"/>
				<path style="opacity:0.48;fill:#FFFFFF;" d="M292.629,340.889c0,0-8.837,1.583-12.53,7.122
					c-3.693,5.539-2.902,10.683-0.264,12.266c2.638,1.583,6.331,2.638,9.892,0.659c3.561-1.978,8.441-6.595,10.683-8.573
					s4.089-7.518,0.923-10.287C298.168,339.307,292.629,340.889,292.629,340.889z"/>
				<path style="fill:none;stroke:#263238;stroke-miterlimit:10;" d="M292.629,340.889c0,0-8.837,1.583-12.53,7.122
					c-3.693,5.539-2.902,10.683-0.264,12.266c2.638,1.583,6.331,2.638,9.892,0.659c3.561-1.978,8.441-6.595,10.683-8.573
					s4.089-7.518,0.923-10.287C298.168,339.307,292.629,340.889,292.629,340.889z"/>
				<circle style="fill:#FFFFFF;" cx="281.852" cy="356.279" r="2.261"/>
			</g>
			<g>
				<path style="fill:#92E3A9;" d="M284.683,329.189c0,0-9.586,2.421-12.38,6.474c-2.794,4.053-0.316,9.481,3.842,9.284
					c4.158-0.197,12.072-3.331,15.827-6.267c3.756-2.936,3.558-6.84-0.293-8.772C287.828,327.976,284.683,329.189,284.683,329.189z"
					/>
				<path style="opacity:0.48;fill:#FFFFFF;" d="M284.683,329.189c0,0-9.586,2.421-12.38,6.474
					c-2.794,4.053-0.316,9.481,3.842,9.284c4.158-0.197,12.072-3.331,15.827-6.267c3.756-2.936,3.558-6.84-0.293-8.772
					C287.828,327.976,284.683,329.189,284.683,329.189z"/>
				<path style="fill:none;stroke:#263238;stroke-miterlimit:10;" d="M284.683,329.189c0,0-9.586,2.421-12.38,6.474
					c-2.794,4.053-0.316,9.481,3.842,9.284c4.158-0.197,12.072-3.331,15.827-6.267c3.756-2.936,3.558-6.84-0.293-8.772
					C287.828,327.976,284.683,329.189,284.683,329.189z"/>
				<path style="fill:#FFFFFF;" d="M275.685,340.195c-0.453,0.904-1.51,1.29-2.361,0.864s-1.172-1.505-0.719-2.408
					c0.453-0.904,1.51-1.29,2.36-0.864C275.816,338.213,276.138,339.292,275.685,340.195z"/>
			</g>
			<g>
				<path style="fill:#92E3A9;" d="M305.381,353.964c0,0-9.586,2.421-12.38,6.474c-2.794,4.053-0.316,9.481,3.841,9.284
					c4.158-0.198,12.072-3.331,15.827-6.267s3.558-6.84-0.293-8.772C308.526,352.751,305.381,353.964,305.381,353.964z"/>
				<path style="opacity:0.48;fill:#FFFFFF;" d="M305.381,353.964c0,0-9.586,2.421-12.38,6.474
					c-2.794,4.053-0.316,9.481,3.841,9.284c4.158-0.198,12.072-3.331,15.827-6.267s3.558-6.84-0.293-8.772
					C308.526,352.751,305.381,353.964,305.381,353.964z"/>
				<path style="fill:none;stroke:#263238;stroke-miterlimit:10;" d="M305.381,353.964c0,0-9.586,2.421-12.38,6.474
					c-2.794,4.053-0.316,9.481,3.841,9.284c4.158-0.198,12.072-3.331,15.827-6.267s3.558-6.84-0.293-8.772
					C308.526,352.751,305.381,353.964,305.381,353.964z"/>
				<path style="fill:#FFFFFF;" d="M296.383,364.97c-0.453,0.904-1.51,1.29-2.361,0.864c-0.85-0.427-1.172-1.505-0.719-2.408
					c0.453-0.904,1.51-1.29,2.36-0.864C296.514,362.988,296.836,364.067,296.383,364.97z"/>
			</g>
			<g>
				<path style="fill:#92E3A9;" d="M312.85,250.148c0,0-9.586,2.421-12.38,6.474c-2.794,4.053-0.316,9.481,3.841,9.284
					c4.158-0.197,12.072-3.331,15.828-6.267c3.756-2.936,3.558-6.84-0.293-8.772C315.995,248.935,312.85,250.148,312.85,250.148z"/>
				<path style="opacity:0.48;fill:#FFFFFF;" d="M312.85,250.148c0,0-9.586,2.421-12.38,6.474c-2.794,4.053-0.316,9.481,3.841,9.284
					c4.158-0.197,12.072-3.331,15.828-6.267c3.756-2.936,3.558-6.84-0.293-8.772C315.995,248.935,312.85,250.148,312.85,250.148z"/>
				<path style="fill:none;stroke:#263238;stroke-miterlimit:10;" d="M312.85,250.148c0,0-9.586,2.421-12.38,6.474
					c-2.794,4.053-0.316,9.481,3.841,9.284c4.158-0.197,12.072-3.331,15.828-6.267c3.756-2.936,3.558-6.84-0.293-8.772
					C315.995,248.935,312.85,250.148,312.85,250.148z"/>
				<path style="fill:#FFFFFF;" d="M303.851,261.155c-0.453,0.904-1.51,1.29-2.361,0.864c-0.85-0.427-1.172-1.505-0.719-2.408
					c0.453-0.904,1.51-1.29,2.36-0.864S304.304,260.251,303.851,261.155z"/>
			</g>
			<g>
				<path style="fill:#92E3A9;" d="M298.271,316.199c0,0-8.616,0.227-13.038,0.454c-4.422,0.227-8.73,0.227-9.523,4.422
					c-0.794,4.195,0.113,9.183,10.771,9.07c10.657-0.113,17.006-1.247,17.233-6.009C303.94,319.374,301.332,316.086,298.271,316.199
					z"/>
				<path style="opacity:0.48;fill:#FFFFFF;" d="M298.271,316.199c0,0-8.616,0.227-13.038,0.454
					c-4.422,0.227-8.73,0.227-9.523,4.422c-0.794,4.195,0.113,9.183,10.771,9.07c10.657-0.113,17.006-1.247,17.233-6.009
					C303.94,319.374,301.332,316.086,298.271,316.199z"/>
				<path style="fill:none;stroke:#263238;stroke-miterlimit:10;" d="M298.271,316.199c0,0-8.616,0.227-13.038,0.454
					c-4.422,0.227-8.73,0.227-9.523,4.422c-0.794,4.195,0.113,9.183,10.771,9.07c10.657-0.113,17.006-1.247,17.233-6.009
					C303.94,319.374,301.332,316.086,298.271,316.199z"/>
				<path style="fill:#FFFFFF;" d="M278.988,323.618c0,1.724-0.53,3.122-1.184,3.122c-0.654,0-1.184-1.398-1.184-3.122
					s0.53-3.122,1.184-3.122C278.457,320.496,278.988,321.894,278.988,323.618z"/>
			</g>
			<g>
				<path style="fill:#92E3A9;" d="M326.266,341.945c0,0-8.617,0.227-13.038,0.454c-4.422,0.227-8.73,0.227-9.524,4.422
					c-0.794,4.195,0.113,9.184,10.771,9.07c10.657-0.113,17.006-1.247,17.233-6.009C331.935,345.12,329.328,341.832,326.266,341.945
					z"/>
				<path style="opacity:0.48;fill:#FFFFFF;" d="M326.266,341.945c0,0-8.617,0.227-13.038,0.454
					c-4.422,0.227-8.73,0.227-9.524,4.422c-0.794,4.195,0.113,9.184,10.771,9.07c10.657-0.113,17.006-1.247,17.233-6.009
					C331.935,345.12,329.328,341.832,326.266,341.945z"/>
				<path style="fill:none;stroke:#263238;stroke-miterlimit:10;" d="M326.266,341.945c0,0-8.617,0.227-13.038,0.454
					c-4.422,0.227-8.73,0.227-9.524,4.422c-0.794,4.195,0.113,9.184,10.771,9.07c10.657-0.113,17.006-1.247,17.233-6.009
					C331.935,345.12,329.328,341.832,326.266,341.945z"/>
				<path style="fill:#FFFFFF;" d="M306.983,349.364c0,1.724-0.53,3.122-1.184,3.122c-0.654,0-1.184-1.398-1.184-3.122
					c0-1.724,0.53-3.122,1.184-3.122C306.453,346.241,306.983,347.639,306.983,349.364z"/>
			</g>
			<g>
				<path style="fill:#92E3A9;" d="M235.394,364.965c0,0-7.477-4.288-11.372-6.394c-3.895-2.106-7.574-4.347-10.434-1.177
					c-2.86,3.17-4.679,7.903,4.482,13.349c9.161,5.446,15.174,7.78,17.844,3.831C238.585,370.624,238.068,366.46,235.394,364.965z"
					/>
				<path style="opacity:0.48;fill:#FFFFFF;" d="M235.394,364.965c0,0-7.477-4.288-11.372-6.394
					c-3.895-2.106-7.574-4.347-10.434-1.177c-2.86,3.17-4.679,7.903,4.482,13.349c9.161,5.446,15.174,7.78,17.844,3.831
					C238.585,370.624,238.068,366.46,235.394,364.965z"/>
				<path style="fill:none;stroke:#263238;stroke-miterlimit:10;" d="M235.394,364.965c0,0-7.477-4.288-11.372-6.394
					c-3.895-2.106-7.574-4.347-10.434-1.177c-2.86,3.17-4.679,7.903,4.482,13.349c9.161,5.446,15.174,7.78,17.844,3.831
					C238.585,370.624,238.068,366.46,235.394,364.965z"/>
				<path style="fill:#FFFFFF;" d="M215.066,361.272c-0.897,1.473-2.077,2.391-2.635,2.051c-0.559-0.34-0.284-1.81,0.612-3.283
					c0.897-1.473,2.077-2.391,2.635-2.051C216.237,358.329,215.963,359.799,215.066,361.272z"/>
			</g>
			<g>
				<path style="fill:#92E3A9;" d="M304.305,307.738c0,0-5.539,2.11-6.331,6.463c-0.791,4.352,5.276,11.738,11.474,13.189
					c6.199,1.451,10.156-0.659,8.441-6.99c-1.715-6.331-7.386-11.079-9.628-12.661S304.305,307.738,304.305,307.738z"/>
				<path style="opacity:0.48;fill:#FFFFFF;" d="M304.305,307.738c0,0-5.539,2.11-6.331,6.463
					c-0.791,4.352,5.276,11.738,11.474,13.189c6.199,1.451,10.156-0.659,8.441-6.99c-1.715-6.331-7.386-11.079-9.628-12.661
					S304.305,307.738,304.305,307.738z"/>
				<path style="fill:none;stroke:#263238;stroke-miterlimit:10;" d="M304.305,307.738c0,0-5.539,2.11-6.331,6.463
					c-0.791,4.352,5.276,11.738,11.474,13.189c6.199,1.451,10.156-0.659,8.441-6.99c-1.715-6.331-7.386-11.079-9.628-12.661
					S304.305,307.738,304.305,307.738z"/>
				<path style="fill:#FFFFFF;" d="M299.288,317.851c0.482,1.469,1.377,2.494,1.999,2.29c0.621-0.204,0.734-1.56,0.252-3.029
					c-0.483-1.469-1.377-2.494-1.999-2.29C298.918,315.026,298.805,316.382,299.288,317.851z"/>
			</g>
			<g>
				<path style="fill:#92E3A9;" d="M261.424,301.347c0,0-7.483,6.462-8.163,11.338c-0.68,4.875,3.968,8.617,7.596,6.576
					c3.628-2.041,9.297-8.39,11.337-12.698c2.041-4.308,0.113-7.71-4.195-7.71C263.692,298.853,261.424,301.347,261.424,301.347z"/>
				<path style="opacity:0.48;fill:#FFFFFF;" d="M261.424,301.347c0,0-7.483,6.462-8.163,11.338
					c-0.68,4.875,3.968,8.617,7.596,6.576c3.628-2.041,9.297-8.39,11.337-12.698c2.041-4.308,0.113-7.71-4.195-7.71
					C263.692,298.853,261.424,301.347,261.424,301.347z"/>
				<path style="fill:none;stroke:#263238;stroke-miterlimit:10;" d="M261.424,301.347c0,0-7.483,6.462-8.163,11.338
					c-0.68,4.875,3.968,8.617,7.596,6.576c3.628-2.041,9.297-8.39,11.337-12.698c2.041-4.308,0.113-7.71-4.195-7.71
					C263.692,298.853,261.424,301.347,261.424,301.347z"/>
				<path style="fill:#FFFFFF;" d="M258.316,315.22c0,1.011-0.771,1.83-1.723,1.83c-0.951,0-1.723-0.82-1.723-1.83
					c0-1.011,0.771-1.83,1.723-1.83C257.544,313.39,258.316,314.209,258.316,315.22z"/>
			</g>
			<g>
				<path style="fill:#92E3A9;" d="M229.794,340.791c0,0-9.014-3.005-14.084-1.127c-5.07,1.878-5.446,7.512-3.568,10.516
					c1.878,3.005,10.141,5.446,16.525,5.446s9.014-5.258,8.075-10.141C235.803,340.603,229.794,340.791,229.794,340.791z"/>
				<path style="opacity:0.48;fill:#FFFFFF;" d="M229.794,340.791c0,0-9.014-3.005-14.084-1.127
					c-5.07,1.878-5.446,7.512-3.568,10.516c1.878,3.005,10.141,5.446,16.525,5.446s9.014-5.258,8.075-10.141
					C235.803,340.603,229.794,340.791,229.794,340.791z"/>
				<path style="fill:none;stroke:#263238;stroke-miterlimit:10;" d="M229.794,340.791c0,0-9.014-3.005-14.084-1.127
					c-5.07,1.878-5.446,7.512-3.568,10.516c1.878,3.005,10.141,5.446,16.525,5.446s9.014-5.258,8.075-10.141
					C235.803,340.603,229.794,340.791,229.794,340.791z"/>
				<path style="fill:#FFFFFF;" d="M223.432,342.138c0,1.367-1.729,2.475-3.861,2.475c-2.132,0-3.861-1.108-3.861-2.475
					c0-1.367,1.729-2.474,3.861-2.474C221.703,339.664,223.432,340.772,223.432,342.138z"/>
			</g>
			<g>
				<path style="fill:#92E3A9;" d="M202.938,319.95c-0.468,0.069-0.896,0.186-1.265,0.358c-0.712,0.331-1.274,0.913-1.768,1.523
					c-4.87,6.02-5.946,21.457,1.733,26.007c5.07,3.005,8.638-1.502,10.141-10.141c1.502-8.638,2.441-12.582-0.188-15.211
					C209.934,320.831,205.725,319.539,202.938,319.95z"/>
				<path style="opacity:0.48;fill:#FFFFFF;" d="M202.938,319.95c-0.468,0.069-0.896,0.186-1.265,0.358
					c-0.712,0.331-1.274,0.913-1.768,1.523c-4.87,6.02-5.946,21.457,1.733,26.007c5.07,3.005,8.638-1.502,10.141-10.141
					c1.502-8.638,2.441-12.582-0.188-15.211C209.934,320.831,205.725,319.539,202.938,319.95z"/>
				<path style="fill:none;stroke:#263238;stroke-miterlimit:10;" d="M202.938,319.95c-0.468,0.069-0.896,0.186-1.265,0.358
					c-0.712,0.331-1.274,0.913-1.768,1.523c-4.87,6.02-5.946,21.457,1.733,26.007c5.07,3.005,8.638-1.502,10.141-10.141
					c1.502-8.638,2.441-12.582-0.188-15.211C209.934,320.831,205.725,319.539,202.938,319.95z"/>
				<path style="fill:#FFFFFF;" d="M204.673,326.89c-0.198,2.149-1.471,3.788-2.844,3.661c-1.373-0.126-2.325-1.971-2.127-4.12
					c0.198-2.149,1.471-3.788,2.844-3.661C203.919,322.897,204.871,324.741,204.673,326.89z"/>
			</g>
		</g>
	</g>
</g>
<g id="Bacon">
	<g>
		<g>
			<path style="fill:#263238;" d="M266.858,174.562c0,0,17.316,17.727,20.858,26.655s6.253,11.3,9.981,9.267
				c3.728-2.033,0.339-1.355,3.728-2.033c3.389-0.678,2.711-3.389,7.455,3.05c4.744,6.439,5.761,12.878,9.15,16.605
				c3.389,3.728,6.878,5.756,6.878,5.756l2.949,3.393c0,0,62.01,0.223,62.694-2.711c0.683-2.934-87.432-83.704-91.16-85.06
				C295.663,148.129,268.892,171.512,266.858,174.562z"/>
			<path style="fill:#92E3A9;stroke:#263238;stroke-miterlimit:10;" d="M311.333,119.904c0,0-14.648-11.36-17.638-14.648
				c-2.99-3.288-8.072-7.175-10.762-6.577s-12.855,16.741-18.535,23.916c-5.68,7.175-21.524,20.627-20.029,25.111
				c1.495,4.484,10.164,11.958,15.246,18.833c5.082,6.876,11.36,12.855,13.154,15.246c1.794,2.392,13.452,16.442,14.947,19.431
				c1.495,2.99,6.876,6.577,8.968,5.381s17.339-10.463,20.029-12.556c2.69-2.093,15.246-16.741,17.638-19.133
				c2.392-2.391,4.484-5.979,5.979-8.37c1.495-2.392-10.463-19.133-14.947-25.709C320.899,134.253,311.333,119.904,311.333,119.904z
				"/>
			<path style="fill:#FFFFFF;" d="M308.357,123.86c0,0-20.617-16.906-24.741-18.555c-4.124-1.649-4.948,2.886-7.01,5.36
				c-2.062,2.474-11.133,13.195-10.721,14.844c0.412,1.649,9.896,9.484,10.721,7.835c0.825-1.649-6.185-5.361-2.474-5.773
				c3.711-0.412,12.783,8.659,19.38,13.607c6.598,4.948,22.679-7.422,21.442-9.072C313.717,130.457,308.357,123.86,308.357,123.86z"
				/>
			<path style="fill:#FFFFFF;" d="M255.165,142.003c0,0-6.597,4.123-5.36,6.185c1.237,2.062,15.993,15.672,20.573,18.351
				c4.58,2.679-4.868-7.235-7.773-14.648C259.701,144.477,255.165,142.003,255.165,142.003z"/>
		</g>
		<g>
			<path style="fill:#92E3A9;stroke:#263238;stroke-miterlimit:10;" d="M312.91,120.394c0,0-4.783,8.968-9.865,12.556
				c-5.082,3.587-14.349,7.772-18.833,10.463c-4.484,2.691-10.463,8.37-14.05,12.257c-3.587,3.886-3.288,8.072-0.598,9.267
				s6.577,2.989,8.37,5.381c1.794,2.391,17.638,21.225,17.638,21.225s15.844,28.4,17.04,29.895
				c1.196,1.495,8.968,7.772,10.463,7.175c1.495-0.598,27.802-11.061,32.585-14.349c4.783-3.288,12.257-6.577,12.257-6.577
				s1.495-5.381,2.392-5.381s1.495,2.99,2.99,2.691c1.495-0.299,6.577-4.783,7.175-6.278c0.598-1.495,1.495-6.876,1.495-6.876
				s-7.772-12.257-13.751-18.535c-5.979-6.278-31.987-29.894-31.987-29.894s-7.175-9.865-10.164-14.648
				C323.075,123.981,316.199,116.507,312.91,120.394z"/>
			<path style="fill:#FFFFFF;" d="M316.479,122.672c0,0-1.876,3.753-3.753,5.361c-1.876,1.608,1.34,1.608,3.753,5.361
				c2.413,3.753,5.629,11.258,9.382,17.692c3.753,6.433,14.475,14.207,16.084,16.352c1.608,2.145,19.837,26.002,20.909,27.074
				c1.072,1.072,5.629,5.361,5.361,2.949c-0.268-2.413-3.485-9.114-0.536-7.238c2.949,1.876,5.629,8.042,6.702,6.97
				c1.072-1.072,4.557,1.34,1.608-5.897c-2.949-7.238-16.352-21.445-24.662-30.291c-8.31-8.846-20.641-19.3-24.125-24.661
				C323.716,130.982,318.623,121.6,316.479,122.672z"/>
			<path style="fill:#FFFFFF;" d="M272.785,159.664c0,0,11.258,10.722,15.815,17.156c4.557,6.433,18.228,26.806,19.032,23.053
				c0.804-3.753-5.629-18.496-9.65-22.517c-4.021-4.021-14.475-18.764-16.62-21.445S272.517,153.499,272.785,159.664z"/>
			<path style="fill:none;stroke:#263238;stroke-miterlimit:10;" d="M315.302,138.031c3.288,5.381,6.876,10.463,6.876,10.463
				l1.794,2.093"/>
			<path style="fill:none;stroke:#263238;stroke-miterlimit:10;" d="M305.736,132.351c0,0,2.811,0.134,5.656,1.834"/>
			<path style="fill:none;stroke:#263238;stroke-miterlimit:10;" d="M307.537,171.566c1.757,1.951,3.268,3.467,3.879,3.834"/>
			<path style="fill:none;stroke:#263238;stroke-miterlimit:10;" d="M288.696,151.185c0,0,8.968,7.175,11.659,11.36
				c1.094,1.702,2.88,3.996,4.714,6.18"/>
		</g>
		<g>
			<g>
				<path style="fill:#92E3A9;stroke:#263238;stroke-miterlimit:10;" d="M372.739,146.271c0,0-13.453,4.484-23.318,6.876
					c-9.865,2.392-24.812,7.175-24.812,7.175s-19.132,3.288-20.328,6.577c-1.196,3.288-1.794,3.886-0.897,5.68
					c0.897,1.794,4.185,11.958,4.185,11.958l6.577,17.638l7.175,14.05l2.69,10.463l0.598,4.484l0.299,2.69l0.299,3.288
					c0,0,6.611-0.357,7.341,0.868c0.73,1.225,3.72,1.225,3.72,1.225s2.392-7.175,2.989-5.979c0.598,1.196-0.598,5.68,0.897,6.278
					c1.495,0.598,7.474,1.495,7.474,1.495s3.886-0.299,4.484-1.794c0.598-1.495,1.794-5.082,2.69-3.288
					c0.897,1.794,0.598,3.288,1.495,4.783c0.897,1.495,16.442,11.061,19.73,11.061c3.288,0,10.463-0.598,11.36-0.598
					c0.897,0,5.082,0,5.082,0s2.392-27.503-1.196-43.646c-3.587-16.143-10.463-37.966-10.463-37.966s-2.392-9.865-3.288-13.452
					C376.625,152.549,373.935,144.776,372.739,146.271z"/>
				<path style="fill:none;stroke:#263238;stroke-miterlimit:10;" d="M366.334,226.196c0.564,6.985,0.726,11.851,0.726,11.851v2.093
					"/>
				<path style="fill:none;stroke:#263238;stroke-miterlimit:10;" d="M354.491,167.798c1.445,5.463,2.985,11.855,3.899,17.336
					c2.093,12.556,5.979,21.823,7.175,32.884c0.203,1.876,0.38,3.691,0.534,5.413"/>
				<path style="fill:none;stroke:#263238;stroke-miterlimit:10;" d="M350.916,155.239c0,0,1.078,3.473,2.456,8.436"/>
				<path style="fill:none;stroke:#263238;stroke-miterlimit:10;" d="M332.444,189.076c0.749,3.176,1.376,5.938,1.732,7.717
					c1.495,7.474,3.288,17.638,2.989,21.823c-0.299,4.185,0.299,8.669,0.299,8.669"/>
				<path style="fill:none;stroke:#263238;stroke-miterlimit:10;" d="M326.403,164.507c0,0,2.28,9.01,4.419,17.807"/>
			</g>
			<path style="fill:#FFFFFF;" d="M319.527,164.603c-0.871,0-8.277,0.218-9.148,3.703c-0.871,3.485,15.247,39.207,16.118,47.048
				s-0.654,16.99,0.653,18.079c1.307,1.089,6.099,1.307,6.535,0.436c0.436-0.871,4.139-1.743,0.654-19.386
				c-3.485-17.643-7.406-25.92-10.02-33.108C321.706,174.187,319.527,164.603,319.527,164.603z"/>
			<path style="fill:#FFFFFF;" d="M330.636,162.861c0,0,3.049,14.594,4.574,22.435c1.525,7.841,4.138,26.356,4.138,26.356
				s2.832,16.772,2.832,18.732c0,1.96,0.871,3.049,1.96,2.614c1.089-0.436-0.871-23.089-3.485-36.811
				c-2.614-13.723-4.792-26.792-5.663-30.494C334.121,161.989,333.032,160.247,330.636,162.861z"/>
			<path style="fill:#FFFFFF;" d="M356.338,155.455c0,0,8.277,39.207,10.673,52.494c2.396,13.287,3.703,23.742,3.921,28.098
				c0.218,4.356-0.436,8.713,0.654,9.366c1.089,0.654,7.623,4.139,8.495,3.267c0.871-0.871,2.396-16.772,2.396-16.772
				s-2.396-20.475-6.099-36.375c-3.703-15.901-5.01-20.693-7.188-31.801c-2.178-11.109-0.871-11.762-4.139-11.327
				C361.784,152.841,356.338,155.455,356.338,155.455z"/>
		</g>
	</g>
</g>
<g id="Tomatoes">
	<g>
		<g>
			<path style="fill:#263238;stroke:#263238;stroke-miterlimit:10;" d="M342.269,287.56c0,0-10.727,1.249-16.187,14.992
				c-5.461,13.743-1.17,33.376,7.606,42.121c8.776,8.746,24.964,3.391,24.964,3.391s12.872-1.428,18.528-6.961
				s9.946-9.995,7.606-27.486c-2.34-17.491-12.287-23.738-21.648-26.237C353.775,284.883,347.534,285.775,342.269,287.56z"/>
			<path style="fill:#263238;stroke:#263238;stroke-miterlimit:10;" d="M363.134,282.133c0,0,8.36,1.592,10.351,2.389
				c1.991,0.796,10.994,3.472,17.119-1.991c2.816-2.512,14.393-10.876,15.527-27.072c1.113-15.896-14.332-18.712-14.332-18.712
				S368.589,281.129,363.134,282.133z"/>
			<path style="fill:#B0B0B0;stroke:#263238;stroke-miterlimit:10;" d="M336.163,274.13c0,0-11.095,1.412-16.743,16.945
				c-5.648,15.533-1.21,37.722,7.867,47.606c9.077,9.884,25.82,3.833,25.82,3.833s13.314-1.614,19.164-7.867
				c5.85-6.253,10.288-11.297,7.867-31.065c-2.421-19.769-12.708-26.829-22.391-29.653
				C348.064,271.104,341.609,272.113,336.163,274.13z"/>
			<path style="fill:#CFCFCF;stroke:#263238;stroke-miterlimit:10;" d="M337.171,285.426c0,0-4.034-0.404-6.858,4.034
				c-2.824,4.438-5.648,20.979-4.438,31.267c1.21,10.288,16.945,16.743,19.164,14.524c2.219-2.219,1.009-11.095,0.605-18.357
				c-0.403-7.262,5.447-7.262,6.859-4.64c1.412,2.622,2.622,19.567,6.858,20.576c4.236,1.009,12.305,2.219,11.296-17.752
				c-1.009-19.97-10.49-33.889-16.138-32.074c-5.648,1.815-4.438,3.026-5.043,10.691c-0.605,7.665-2.421,11.7-4.841,8.271
				C342.214,298.538,340.399,285.225,337.171,285.426z"/>
			<path style="fill:#B0B0B0;stroke:#263238;stroke-miterlimit:10;" d="M357.545,296.017c0,0.724-0.587,1.311-1.311,1.311
				c-0.724,0-1.311-0.587-1.311-1.311c0-0.724,0.587-1.311,1.311-1.311C356.958,294.706,357.545,295.293,357.545,296.017z"/>
			<circle style="fill:#B0B0B0;stroke:#263238;stroke-miterlimit:10;" cx="362.487" cy="304.892" r="1.916"/>
			<path style="fill:#B0B0B0;stroke:#263238;stroke-miterlimit:10;" d="M361.176,316.29c0,0.668-0.542,1.21-1.21,1.21
				c-0.669,0-1.21-0.542-1.21-1.21c0-0.668,0.542-1.21,1.21-1.21C360.634,315.079,361.176,315.621,361.176,316.29z"/>
			<path style="fill:#B0B0B0;stroke:#263238;stroke-miterlimit:10;" d="M336.365,314.979c0,1.504-1.219,2.723-2.723,2.723
				s-2.723-1.219-2.723-2.723s1.219-2.723,2.723-2.723S336.365,313.475,336.365,314.979z"/>
			<path style="fill:#B0B0B0;stroke:#263238;stroke-miterlimit:10;" d="M343.223,321.837c0,0.501-0.406,0.908-0.908,0.908
				c-0.501,0-0.908-0.406-0.908-0.908c0-0.501,0.406-0.908,0.908-0.908C342.817,320.929,343.223,321.336,343.223,321.837z"/>
			<path style="fill:#B0B0B0;stroke:#263238;stroke-miterlimit:10;" d="M347.863,307.616c0,0.669-0.542,1.21-1.21,1.21
				c-0.668,0-1.21-0.542-1.21-1.21c0-0.668,0.542-1.21,1.21-1.21C347.321,306.405,347.863,306.947,347.863,307.616z"/>
			<path style="fill:#B0B0B0;stroke:#263238;stroke-miterlimit:10;" d="M336.97,297.025c0,0.836-0.677,1.513-1.513,1.513
				c-0.836,0-1.513-0.677-1.513-1.513c0-0.836,0.677-1.513,1.513-1.513C336.292,295.512,336.97,296.19,336.97,297.025z"/>
			<path style="fill:#B0B0B0;stroke:#263238;stroke-miterlimit:10;" d="M333.339,324.56c0,0.668-0.542,1.21-1.21,1.21
				c-0.668,0-1.21-0.542-1.21-1.21c0-0.668,0.542-1.21,1.21-1.21C332.797,323.35,333.339,323.892,333.339,324.56z"/>
		</g>
		<g>
			<path style="fill:#B0B0B0;stroke:#263238;stroke-miterlimit:10;" d="M335.433,274.619c0,0,5.754,9.591,22.246,8.518
				c16.493-1.073,35.026-14.058,40.426-26.343c5.401-12.285-6.872-25.182-6.872-25.182s-6.83-11.541-14.908-14.384
				c-8.078-2.842-14.479-4.878-31.607,5.286c-17.127,10.164-19.456,22.423-18.149,32.424S331.396,270.443,335.433,274.619z"/>
			<path style="fill:#CFCFCF;stroke:#263238;stroke-miterlimit:10;" d="M345.371,269.154c0,0,1.253,3.856,6.451,4.658
				c5.199,0.802,21.48-3.263,30.413-8.507c8.933-5.244,8.518-22.246,5.594-23.386c-2.924-1.139-10.564,3.537-17.051,6.826
				c-6.487,3.289-8.839-2.067-7.006-4.415s16.862-10.268,16.082-14.552c-0.78-4.284-2.915-12.159-20.795-3.206
				c-17.88,8.952-26.812,23.229-22.879,27.671c3.933,4.442,4.555,2.847,11.817,0.319c7.262-2.528,11.686-2.488,9.519,1.108
				C355.349,259.264,343.889,266.28,345.371,269.154z"/>
			<path style="fill:#B0B0B0;stroke:#263238;stroke-miterlimit:10;" d="M346.876,246.241c0.663-0.291,1.437,0.01,1.728,0.673
				c0.291,0.663-0.01,1.436-0.673,1.728c-0.663,0.291-1.437-0.01-1.728-0.673C345.912,247.306,346.213,246.532,346.876,246.241z"/>
			<path style="fill:#B0B0B0;stroke:#263238;stroke-miterlimit:10;" d="M352.246,236.393c0.969-0.426,2.1,0.015,2.525,0.984
				c0.426,0.969-0.015,2.1-0.984,2.525c-0.969,0.426-2.1-0.015-2.525-0.984C350.836,237.949,351.277,236.818,352.246,236.393z"/>
			<path style="fill:#B0B0B0;stroke:#263238;stroke-miterlimit:10;" d="M363.979,234.766c0.612-0.269,1.326,0.01,1.595,0.622
				c0.269,0.612-0.01,1.326-0.622,1.595c-0.612,0.269-1.326-0.01-1.595-0.622C363.089,235.749,363.367,235.035,363.979,234.766z"/>
			<path style="fill:#B0B0B0;stroke:#263238;stroke-miterlimit:10;" d="M372.754,258.011c1.377-0.605,2.984,0.021,3.588,1.398
				s-0.021,2.984-1.399,3.588c-1.377,0.605-2.984-0.021-3.588-1.399C370.751,260.222,371.377,258.616,372.754,258.011z"/>
			<path style="fill:#B0B0B0;stroke:#263238;stroke-miterlimit:10;" d="M376.276,248.974c0.459-0.202,0.995,0.007,1.196,0.466
				c0.202,0.459-0.007,0.994-0.466,1.196c-0.459,0.202-0.995-0.007-1.196-0.466C375.609,249.711,375.817,249.175,376.276,248.974z"
				/>
			<path style="fill:#B0B0B0;stroke:#263238;stroke-miterlimit:10;" d="M361.39,250.443c0.612-0.269,1.326,0.01,1.595,0.622
				c0.269,0.612-0.01,1.326-0.622,1.595c-0.612,0.269-1.326-0.009-1.595-0.622C360.499,251.426,360.778,250.712,361.39,250.443z"/>
			<path style="fill:#B0B0B0;stroke:#263238;stroke-miterlimit:10;" d="M356.072,264.675c0.765-0.336,1.658,0.012,1.993,0.777
				c0.336,0.765-0.012,1.658-0.777,1.993c-0.765,0.336-1.658-0.012-1.993-0.777C354.959,265.904,355.307,265.011,356.072,264.675z"
				/>
			<path style="fill:#B0B0B0;stroke:#263238;stroke-miterlimit:10;" d="M382.744,256.929c0.612-0.269,1.326,0.01,1.595,0.622
				c0.269,0.612-0.01,1.326-0.622,1.595c-0.612,0.269-1.326-0.009-1.595-0.622C381.853,257.912,382.132,257.198,382.744,256.929z"/>
		</g>
	</g>
</g>
<g id="Egg">
	<g>
		<path style="fill:#FFFFFF;stroke:#263238;stroke-miterlimit:10;" d="M223.141,193.168c0,0-9.367-1.222-26.881-6.924
			c-17.513-5.702-44.801-0.407-55.39,7.738c-10.589,8.146-9.368,29.324-11.404,34.212c-2.036,4.887-17.106,29.732-12.626,48.467
			c4.48,18.735,31.361,33.805,59.87,36.248s73.718-5.295,92.046-17.106c18.328-11.811,28.917-41.95,24.844-59.871
			c-4.073-17.921-19.55-29.732-29.732-32.175c-10.182-2.444-26.473-7.331-30.139-8.146
			C230.065,194.797,223.141,193.168,223.141,193.168z"/>
		<path style="fill:none;stroke:#263238;stroke-miterlimit:10;" d="M247.651,293.884c-8.021,3.166-13.55,5.461-22.473,8.435
			c-9.775,3.258-14.255,6.109-25.659,7.331c-11.404,1.222-26.066,1.629-35.434-2.851"/>
		<path style="fill:none;stroke:#263238;stroke-miterlimit:10;" d="M260.423,212.131c4.844,3.613,10.566,9.323,14.036,17.693
			c6.924,16.699,4.887,32.99-2.851,44.394c-6.645,9.793-10.888,13.879-17.886,17.16"/>
		<path style="fill:none;stroke:#263238;stroke-miterlimit:10;" d="M251.651,207.015c0,0,2.109,0.811,5.125,2.65"/>
		<path style="fill:none;stroke:#263238;stroke-miterlimit:10;" d="M212.1,241.598c-1.216,18.091-17.747,32.421-37.962,32.421
			c-4.877,0-9.539-0.834-13.824-2.354"/>
		<path style="fill:none;stroke:#263238;stroke-miterlimit:10;" d="M211.399,232.493c0.351,1.56,0.587,3.158,0.698,4.787"/>
		<ellipse style="fill:#92E3A9;stroke:#263238;stroke-miterlimit:10;" cx="174.139" cy="239.458" rx="32.911" ry="29.906"/>
		<path style="fill:none;stroke:#263238;stroke-miterlimit:10;" d="M179.698,295.01c1.663-0.149,3.349-0.39,5.03-0.748"/>
		<path style="fill:none;stroke:#263238;stroke-miterlimit:10;" d="M157.54,292.545c0,0,7.986,2.662,17.743,2.658"/>
	</g>
</g>
<g id="Bread_1_">
	<g>
		<g>
			<path style="fill:#263238;stroke:#263238;stroke-miterlimit:10;" d="M127.629,381.409c0,0,71.006,6.529,77.127,6.529
				s12.242-0.816,9.794-8.162c-2.449-7.345-24.485-25.301-24.485-25.301L127.629,381.409z"/>
			<path style="fill:#E0E0E0;stroke:#263238;stroke-miterlimit:10;" d="M90.35,214.749c0,0-24.365,131.129-22.15,136.002
				c2.215,4.873,3.987,4.873,6.202,5.316c2.215,0.443,116.067,23.922,122.269,23.922c6.202,0,8.86-0.886,8.417-4.873
				c-0.443-3.987-29.238-44.3-29.238-44.3s1.329-0.443-1.772-4.43c-3.101-3.987-0.886,0-3.101-3.987
				c-2.215-3.987-0.886-4.43-2.658-6.202s-3.101-0.886-4.43-3.544c-1.329-2.658,0-2.215-3.101-6.202
				c-3.101-3.987-5.316-6.202-5.316-6.202l-52.717-78.855c0,0-1.772-1.329-3.544-4.873C97.438,212.977,93.008,209.432,90.35,214.749
				z"/>
			<path style="fill:none;stroke:#263238;stroke-miterlimit:10;" d="M191.686,373.857c5.136,1.002,8.305,1.616,8.63,1.67
				c2.1,0.35,2.8,0.35,1.05-3.15"/>
			<path style="fill:none;stroke:#263238;stroke-miterlimit:10;" d="M100.13,355.971c26.899,5.23,67.841,13.255,88.053,17.201"/>
			<path style="fill:none;stroke:#263238;stroke-miterlimit:10;" d="M90.35,214.749c0,0-20.246,125.425-20.246,129.276
				c0,3.85,1.4,6.651,4.2,7.001c0.721,0.09,9.288,1.735,21.647,4.135"/>
			<circle style="fill:none;stroke:#263238;stroke-miterlimit:10;" cx="120.334" cy="298.345" r="1.225"/>
			<path style="fill:none;stroke:#263238;stroke-miterlimit:10;" d="M118.759,312.521c0,0.677-0.549,1.225-1.225,1.225
				c-0.677,0-1.225-0.548-1.225-1.225s0.549-1.225,1.225-1.225C118.21,311.296,118.759,311.845,118.759,312.521z"/>
			<circle style="fill:none;stroke:#263238;stroke-miterlimit:10;" cx="134.335" cy="308.321" r="1.225"/>
			<circle style="fill:none;stroke:#263238;stroke-miterlimit:10;" cx="133.46" cy="323.372" r="1.225"/>
			<circle style="fill:none;stroke:#263238;stroke-miterlimit:10;" cx="93.906" cy="339.824" r="1.225"/>
			<circle style="fill:none;stroke:#263238;stroke-miterlimit:10;" cx="111.233" cy="268.067" r="1.225"/>
			<circle style="fill:none;stroke:#263238;stroke-miterlimit:10;" cx="144.661" cy="304.295" r="1.225"/>
			<path style="fill:none;stroke:#263238;stroke-miterlimit:10;" d="M147.111,344.374c0,0.677-0.548,1.225-1.225,1.225
				c-0.677,0-1.225-0.549-1.225-1.225c0-0.677,0.548-1.225,1.225-1.225C146.563,343.149,147.111,343.698,147.111,344.374z"/>
			<path style="fill:none;stroke:#263238;stroke-miterlimit:10;" d="M156.737,322.147c0,0.677-0.549,1.225-1.225,1.225
				c-0.677,0-1.225-0.548-1.225-1.225c0-0.677,0.549-1.225,1.225-1.225C156.188,320.922,156.737,321.47,156.737,322.147z"/>
			<path style="fill:none;stroke:#263238;stroke-miterlimit:10;" d="M87.256,286.969c0,0.677-0.549,1.225-1.225,1.225
				c-0.677,0-1.225-0.548-1.225-1.225c0-0.677,0.549-1.225,1.225-1.225C86.707,285.744,87.256,286.292,87.256,286.969z"/>
			<path style="fill:none;stroke:#263238;stroke-miterlimit:10;" d="M164.088,338.599c0,0.677-0.548,1.225-1.225,1.225
				c-0.677,0-1.225-0.548-1.225-1.225c0-0.677,0.549-1.225,1.225-1.225C163.539,337.373,164.088,337.922,164.088,338.599z"/>
			<circle style="fill:none;stroke:#263238;stroke-miterlimit:10;" cx="175.114" cy="356.275" r="1.225"/>
			<circle style="fill:none;stroke:#263238;stroke-miterlimit:10;" cx="122.084" cy="349.275" r="1.225"/>
			<circle style="fill:none;stroke:#263238;stroke-miterlimit:10;" cx="103.707" cy="249.515" r="1.225"/>
			<path style="fill:none;stroke:#263238;stroke-miterlimit:10;" d="M124.009,340.524c0,0.677-0.549,1.225-1.225,1.225
				c-0.677,0-1.225-0.549-1.225-1.225c0-0.677,0.549-1.225,1.225-1.225C123.461,339.299,124.009,339.847,124.009,340.524z"/>
			<circle style="fill:none;stroke:#263238;stroke-miterlimit:10;" cx="100.382" cy="278.568" r="1.225"/>
			<circle style="fill:none;stroke:#263238;stroke-miterlimit:10;" cx="104.932" cy="325.822" r="1.225"/>
			<path style="fill:none;stroke:#263238;stroke-miterlimit:10;" d="M113.683,285.919c0,0.677-0.549,1.225-1.225,1.225
				c-0.677,0-1.225-0.548-1.225-1.225c0-0.677,0.549-1.225,1.225-1.225C113.135,284.694,113.683,285.242,113.683,285.919z"/>
			<path style="fill:none;stroke:#263238;stroke-miterlimit:10;" d="M102.132,300.095c0,0.677-0.549,1.225-1.225,1.225
				c-0.677,0-1.225-0.548-1.225-1.225c0-0.677,0.549-1.225,1.225-1.225C101.584,298.87,102.132,299.418,102.132,300.095z"/>
		</g>
		<path style="fill:#C4C4C4;stroke:#263238;stroke-miterlimit:10;" d="M84.105,358.025c0,0-0.35,20.302,2.45,22.402
			c2.8,2.1,5.25,1.75,6.651,1.75c1.4,0,91.358-3.85,91.358-3.85L84.105,358.025z"/>
		<path style="fill:none;stroke:#263238;stroke-miterlimit:10;" d="M88.656,372.027c0,0-0.35,2.8,2.45,4.2
			c2.8,1.4,66.506-1.4,66.506-1.4"/>
		<circle style="fill:none;stroke:#263238;stroke-miterlimit:10;" cx="98.107" cy="370.977" r="1.225"/>
		<circle style="fill:none;stroke:#263238;stroke-miterlimit:10;" cx="121.559" cy="372.202" r="1.225"/>
		<path style="fill:none;stroke:#263238;stroke-miterlimit:10;" d="M94.431,364.501c0,0.677-0.549,1.225-1.225,1.225
			c-0.677,0-1.225-0.549-1.225-1.225c0-0.677,0.549-1.225,1.225-1.225C93.883,363.276,94.431,363.824,94.431,364.501z"/>
		<circle style="fill:none;stroke:#263238;stroke-miterlimit:10;" cx="112.283" cy="367.826" r="1.225"/>
	</g>
</g>
</svg>
