<?xml version="1.0" encoding="utf-8"?>
<!-- Generator: Adobe Illustrator 27.5.0, SVG Export Plug-In . SVG Version: 6.00 Build 0)  -->
<svg version="1.1" xmlns="http://www.w3.org/2000/svg" xmlns:xlink="http://www.w3.org/1999/xlink" x="0px" y="0px"
	 viewBox="0 0 500 500" style="enable-background:new 0 0 500 500;" xml:space="preserve">
<g id="Background_Complete">
	<g>
		<g>
			<g>
				<g>
					<path style="fill:#E0E0E0;" d="M384.565,151.319c-0.15-2.486-1.224-4.864-2.781-6.808c-1.525-1.904-3.568-3.451-5.92-4.097
						c-2.499-0.686-5.275-0.295-7.487,1.056c-1.316,0.803-2.421,1.939-3.212,3.261c-0.64-1.245-1.547-2.353-2.657-3.206
						c-2.055-1.58-4.773-2.266-7.331-1.851c-2.409,0.391-4.604,1.71-6.325,3.439c-1.756,1.766-3.078,4.015-3.494,6.471
						c-0.52,3.076-0.104,6.495,1.358,9.251c1.544,2.91,4.16,5.334,6.886,7.183c4.584,3.108,10.63,7.017,10.63,7.017
						s5.484-3.66,10.375-6.259c2.909-1.546,5.77-3.676,7.616-6.403C383.972,157.788,384.752,154.432,384.565,151.319z"/>
				</g>
			</g>
		</g>
	</g>
	<g>
		<g>
			<g>
				<g>
					<path style="fill:#F5F5F5;" d="M140.025,221.781c-2.028-3.262-5.23-5.7-8.768-7.194c-3.467-1.464-7.372-2.063-11.037-1.213
						c-3.894,0.903-7.373,3.471-9.382,6.926c-1.195,2.055-1.861,4.407-1.963,6.781c-1.782-1.219-3.826-2.056-5.958-2.399
						c-3.947-0.635-8.138,0.428-11.303,2.868c-2.981,2.297-4.992,5.698-6.056,9.307c-1.087,3.684-1.229,7.706,0.009,11.342
						c1.551,4.554,4.626,8.887,8.63,11.553c4.23,2.815,9.558,4.183,14.612,4.69c8.5,0.853,19.57,1.718,19.57,1.718
						s4.754-8.99,9.481-16.105c2.811-4.232,5.13-9.22,5.632-14.275C143.968,230.991,142.564,225.866,140.025,221.781z"/>
				</g>
			</g>
		</g>
	</g>
	<g>
		<g>
			<g>
				<g>
					<path style="fill:#E0E0E0;" d="M120.931,177.829c-0.599-1.331-1.681-2.412-2.938-3.154c-1.232-0.727-2.672-1.15-4.096-1.016
						c-1.512,0.143-2.953,0.934-3.884,2.133c-0.554,0.714-0.924,1.566-1.083,2.454c-0.609-0.549-1.337-0.968-2.122-1.205
						c-1.454-0.439-3.087-0.251-4.403,0.508c-1.239,0.714-2.169,1.893-2.752,3.199c-0.596,1.333-0.853,2.84-0.571,4.272
						c0.354,1.794,1.292,3.582,2.666,4.788c1.45,1.274,3.388,2.06,5.266,2.507c3.158,0.752,7.284,1.638,7.284,1.638
						s2.246-3.145,4.387-5.586c1.273-1.451,2.399-3.213,2.844-5.091C121.95,181.497,121.68,179.496,120.931,177.829z"/>
				</g>
			</g>
		</g>
	</g>
	<g>
		<g>
			<g>
				<g>
					<path style="fill:#E0E0E0;" d="M98.311,291.728c-0.269-1.218-0.987-2.311-1.91-3.151c-0.904-0.823-2.036-1.428-3.251-1.563
						c-1.291-0.144-2.634,0.267-3.622,1.109c-0.588,0.501-1.046,1.149-1.334,1.866c-0.414-0.566-0.95-1.043-1.566-1.378
						c-1.141-0.621-2.539-0.747-3.773-0.341c-1.161,0.382-2.144,1.207-2.86,2.198c-0.731,1.012-1.209,2.228-1.222,3.476
						c-0.016,1.563,0.458,3.222,1.397,4.471c0.992,1.319,2.477,2.313,3.971,3.014c2.512,1.179,5.81,2.639,5.81,2.639
						s2.427-2.241,4.644-3.911c1.318-0.993,2.567-2.271,3.266-3.766C98.524,294.976,98.647,293.254,98.311,291.728z"/>
				</g>
			</g>
		</g>
	</g>
	<g>
		<g>
			<g>
				<g>
					<path style="fill:#F5F5F5;" d="M353.798,117.76c0.127-1.262-0.22-2.545-0.844-3.649c-0.612-1.081-1.513-2.025-2.643-2.541
						c-1.201-0.548-2.628-0.577-3.85-0.078c-0.727,0.297-1.375,0.778-1.88,1.378c-0.221-0.678-0.587-1.309-1.075-1.828
						c-0.904-0.961-2.215-1.528-3.535-1.527c-1.243,0-2.454,0.485-3.46,1.215c-1.027,0.745-1.874,1.768-2.283,2.969
						c-0.512,1.504-0.581,3.257-0.07,4.761c0.539,1.589,1.658,3.02,2.878,4.171c2.052,1.936,4.773,4.393,4.773,4.393
						s3.055-1.394,5.725-2.303c1.588-0.541,3.2-1.378,4.35-2.6C352.974,120.964,353.639,119.34,353.798,117.76z"/>
				</g>
			</g>
		</g>
	</g>
	<g>
		<g>
			<g>
				<g>
					<path style="fill:#F5F5F5;" d="M167.671,139.915c-0.605-2.531-2.14-4.783-4.093-6.501c-1.914-1.683-4.295-2.905-6.833-3.144
						c-2.696-0.254-5.481,0.651-7.513,2.441c-1.208,1.065-2.14,2.433-2.714,3.937c-0.884-1.165-2.018-2.141-3.315-2.818
						c-2.4-1.254-5.321-1.468-7.878-0.578c-2.408,0.838-4.428,2.592-5.885,4.683c-1.488,2.135-2.441,4.688-2.424,7.29
						c0.021,3.259,1.069,6.702,3.071,9.273c2.115,2.715,5.246,4.736,8.385,6.144c5.28,2.369,12.208,5.296,12.208,5.296
						s4.981-4.758,9.543-8.318c2.713-2.117,5.271-4.826,6.677-7.967C168.232,146.678,168.427,143.085,167.671,139.915z"/>
				</g>
			</g>
		</g>
	</g>
	<g>
		<g>
			<g>
				<g>
					<path style="fill:#F5F5F5;" d="M426.999,315.74c0.257-1.922-0.206-3.899-1.105-5.617c-0.88-1.683-2.209-3.17-3.909-4.016
						c-1.807-0.898-3.986-1.015-5.878-0.315c-1.125,0.417-2.14,1.119-2.942,2.01c-0.303-1.047-0.83-2.029-1.55-2.847
						c-1.333-1.514-3.307-2.446-5.323-2.512c-1.898-0.063-3.773,0.616-5.347,1.68c-1.606,1.086-2.953,2.606-3.638,4.42
						c-0.858,2.272-1.052,4.946-0.348,7.27c0.744,2.454,2.379,4.698,4.185,6.518c3.037,3.061,7.07,6.952,7.07,6.952
						s4.738-1.975,8.863-3.228c2.454-0.745,4.958-1.944,6.777-3.751C425.578,320.593,426.677,318.147,426.999,315.74z"/>
				</g>
			</g>
		</g>
	</g>
	<ellipse style="fill:#F5F5F5;" cx="247.009" cy="455.606" rx="142.311" ry="21.232"/>
	<g>
		<path style="fill:#EBEBEB;" d="M180.277,42.151l4.622,1.738l-4.013,1.138c-1.339,0.38-2.402,1.401-2.835,2.724l-1.452,4.438
			l-1.785-4.451c-0.443-1.105-1.336-1.969-2.455-2.375l-4.059-1.474l4.397-1.806c1.064-0.437,1.901-1.293,2.314-2.367l1.589-4.127
			l1.139,3.837C178.111,40.682,179.051,41.69,180.277,42.151z"/>
	</g>
	<g>
		<path style="fill:#EBEBEB;" d="M372.352,71.631l1.634,0.614l-1.419,0.402c-0.474,0.134-0.849,0.495-1.002,0.963l-0.513,1.569
			l-0.631-1.574c-0.157-0.391-0.472-0.696-0.868-0.84l-1.435-0.521l1.555-0.639c0.376-0.155,0.672-0.457,0.818-0.837l0.562-1.459
			l0.403,1.357C371.586,71.111,371.918,71.468,372.352,71.631z"/>
	</g>
	<g>
		<path style="fill:#EBEBEB;" d="M418.027,287.148l2.982,1.121l-2.589,0.734c-0.864,0.245-1.549,0.904-1.829,1.757l-0.937,2.863
			l-1.152-2.871c-0.286-0.713-0.862-1.27-1.584-1.532l-2.619-0.951l2.836-1.165c0.687-0.282,1.226-0.834,1.493-1.527l1.025-2.662
			l0.735,2.475C416.63,286.2,417.236,286.85,418.027,287.148z"/>
	</g>
	<g>
		<path style="fill:#EBEBEB;" d="M71.061,178.127l2.982,1.121l-2.589,0.734c-0.864,0.245-1.549,0.904-1.829,1.757l-0.937,2.863
			l-1.152-2.871c-0.286-0.713-0.862-1.27-1.584-1.532l-2.619-0.951l2.836-1.165c0.686-0.282,1.226-0.834,1.493-1.527l1.025-2.662
			l0.735,2.475C69.664,177.179,70.27,177.83,71.061,178.127z"/>
	</g>
	<g>
		<path style="fill:#EBEBEB;" d="M446.262,270.04l7.049,2.65l-6.12,1.736c-2.043,0.579-3.663,2.137-4.323,4.154l-2.215,6.768
			l-2.723-6.788c-0.676-1.685-2.037-3.002-3.744-3.622l-6.191-2.248l6.706-2.755c1.623-0.667,2.899-1.972,3.53-3.609l2.423-6.294
			l1.738,5.852C442.96,267.799,444.392,269.337,446.262,270.04z"/>
	</g>
	<g>
		<path style="fill:#EBEBEB;" d="M90.298,145.433l7.049,2.65l-6.12,1.736c-2.043,0.579-3.663,2.137-4.323,4.154l-2.215,6.768
			l-2.723-6.788c-0.676-1.685-2.037-3.002-3.744-3.622l-6.191-2.248l6.706-2.755c1.623-0.667,2.899-1.972,3.53-3.609l2.423-6.294
			l1.738,5.852C86.995,143.192,88.428,144.73,90.298,145.433z"/>
	</g>
	<g>
		<path style="fill:#EBEBEB;" d="M357.786,80.638l4.979,1.872l-4.323,1.226c-1.443,0.409-2.588,1.509-3.054,2.934l-1.564,4.781
			l-1.924-4.795c-0.477-1.19-1.439-2.121-2.645-2.558l-4.373-1.588l4.737-1.946c1.146-0.471,2.048-1.393,2.493-2.55l1.712-4.446
			l1.227,4.134C355.453,79.055,356.465,80.141,357.786,80.638z"/>
	</g>
</g>
<g id="Background_Simple" style="display:none;">
	<path style="display:inline;fill:#F5F5F5;" d="M145.442,107.092l1.667,0.756c14.049,6.37,23.67,19.786,24.534,35.047
		c0.111,1.962,0.081,3.932-0.099,5.894c-1.291,14.125-10.263,27.36-23.003,33.931c-7.492,3.864-16.425,5.767-21.984,12.059
		c-7.235,8.189-6.016,20.467-4.385,31.194c1.631,10.727,2.819,23.018-4.452,31.175c-4.554,5.109-11.627,7.409-18.493,7.867
		c-18.179,1.213-35.844-9.431-45.797-24.472c-9.953-15.042-12.94-33.802-11.516-51.745c1.995-25.137,12.774-50.11,32.07-66.663
		C93.281,105.582,121.443,98.592,145.442,107.092z"/>
	<path style="display:inline;fill:#F5F5F5;" d="M423.47,158.356l-0.999,0.77c-8.425,6.489-19.706,8.002-29.275,3.588
		c-1.23-0.567-2.419-1.224-3.556-1.968c-8.18-5.359-13.331-15.104-13.206-24.985c0.073-5.811,1.807-11.864-0.223-17.285
		c-2.642-7.054-10.51-10.287-17.568-12.767c-7.058-2.48-14.923-5.735-17.534-12.802c-1.635-4.425-0.746-9.475,1.198-13.803
		c5.146-11.458,17.344-18.764,29.721-19.954c12.378-1.189,24.763,3.066,35.224,9.742c14.654,9.352,26.366,23.997,30.194,41.1
		C441.274,127.096,436.412,146.5,423.47,158.356z"/>
	<circle style="display:inline;fill:#F5F5F5;" cx="426.142" cy="305.439" r="20.028"/>
</g>
<g id="Table">
	<g>
		<path style="fill:#263238;" d="M482.164,357.06c0,0.144-103.951,0.26-232.152,0.26c-128.246,0-232.175-0.117-232.175-0.26
			c0-0.144,103.929-0.26,232.175-0.26C378.212,356.8,482.164,356.917,482.164,357.06z"/>
	</g>
</g>
<g id="Plant">
	<g>
		<g>
			<g>
				<g>
					<g>
						<g>
							<path style="fill:#455A64;" d="M444.106,236.003c-36.278-7.699-64.61,10.951-64.61,10.951
								C407.712,260.68,444.106,236.003,444.106,236.003z"/>
						</g>
					</g>
				</g>
			</g>
			<g>
				<g>
					<g>
						<g>
							<path style="fill:#455A64;" d="M340.957,234.179c-0.013,22.759,15.269,38.511,15.269,38.511
								C361.031,254.342,340.957,234.179,340.957,234.179z"/>
						</g>
					</g>
				</g>
			</g>
			<g>
				<g>
					<g>
						<g>
							<path style="fill:#455A64;" d="M364.868,270.279c26.826,5.259,48.906-8.979,48.906-8.979
								C393.258,251.446,364.868,270.279,364.868,270.279z"/>
						</g>
					</g>
				</g>
			</g>
			<g>
				<g>
					<g>
						<g>
							<g>
								<path style="fill:#455A64;" d="M394.553,223.212c-0.416-0.292-12.108,15.661-26.114,35.626
									c-14.01,19.972-25.027,36.394-24.612,36.685c0.415,0.292,12.106-15.658,26.116-35.63
									C383.948,239.928,394.968,223.503,394.553,223.212z"/>
							</g>
						</g>
					</g>
				</g>
			</g>
			<g>
				<g>
					<g>
						<g>
							<path style="fill:#455A64;" d="M434.466,179.947c0,0-39.896,14.071-44.979,51.525
								C389.487,231.471,423.693,219.935,434.466,179.947z"/>
						</g>
					</g>
				</g>
			</g>
			<g>
				<g>
					<g>
						<g>
							<path style="fill:#455A64;" d="M374.414,184.297c0,0-23.645,35.079-5.401,68.182
								C369.013,252.479,389.601,222.826,374.414,184.297z"/>
						</g>
					</g>
				</g>
			</g>
		</g>
	</g>
	<g>
		<g>
			<g>
				<g>
					<g>
						<g>
							<path style="fill:#455A64;" d="M100.227,325.539c-10.214,27.748,1.27,52.232,1.27,52.232
								C115.547,357.072,100.227,325.539,100.227,325.539z"/>
						</g>
					</g>
				</g>
			</g>
			<g>
				<g>
					<g>
						<g>
							<path style="fill:#455A64;" d="M88.633,411.197c17.957,2.607,32.131-7.655,32.131-7.655
								C106.833,397.658,88.633,411.197,88.633,411.197z"/>
						</g>
					</g>
				</g>
			</g>
			<g>
				<g>
					<g>
						<g>
							<path style="fill:#455A64;" d="M119.847,396.448c7.21-20.568-1.506-39.615-1.506-39.615
								C108.225,371.897,119.847,396.448,119.847,396.448z"/>
						</g>
					</g>
				</g>
			</g>
			<g>
				<g>
					<g>
						<g>
							<g>
								<path style="fill:#455A64;" d="M86.094,367.654c-0.278,0.295,10.976,11.341,25.132,24.671
									c14.161,13.334,25.862,23.901,26.139,23.606c0.277-0.294-10.974-11.339-25.135-24.672
									C98.074,377.929,86.371,367.36,86.094,367.654z"/>
							</g>
						</g>
					</g>
				</g>
			</g>
			<g>
				<g>
					<g>
						<g>
							<path style="fill:#455A64;" d="M56.507,331.223c0,0,6.552,33.086,35.526,41.371
								C92.033,372.594,86.832,344.286,56.507,331.223z"/>
						</g>
					</g>
				</g>
			</g>
			<g>
				<g>
					<g>
						<g>
							<path style="fill:#455A64;" d="M53.088,379.105c0,0,24.983,22.66,53.185,12.041
								C106.274,391.147,85.224,371.518,53.088,379.105z"/>
						</g>
					</g>
				</g>
			</g>
		</g>
	</g>
</g>
<g id="Cake">
	<g>
		<ellipse style="fill:#455A64;" cx="248.688" cy="434.303" rx="153.458" ry="34.675"/>
		<g>
			<path style="fill:#263238;" d="M100.64,429.918c0.074-0.018-0.116,1.152,0.692,3.1c0.772,1.947,2.757,4.446,5.997,6.765
				c6.482,4.686,17.417,8.897,31.234,12.351c27.699,6.925,67.162,11.096,110.699,11.108c43.551-0.011,83.018-4.183,110.717-11.109
				c13.817-3.454,24.751-7.665,31.232-12.351c3.239-2.319,5.224-4.817,5.995-6.764c0.808-1.948,0.618-3.117,0.692-3.099
				c0,0,0.002,0.276-0.019,0.816c-0.066,0.533-0.167,1.344-0.576,2.323c-0.748,1.982-2.732,4.531-5.973,6.889
				c-6.486,4.765-17.433,9.038-31.261,12.544c-27.723,7.029-67.222,11.261-110.808,11.272c-43.57-0.012-83.066-4.243-110.789-11.271
				c-13.828-3.506-24.776-7.779-31.263-12.544c-3.242-2.358-5.226-4.906-5.974-6.889c-0.409-0.979-0.51-1.79-0.576-2.323
				C100.637,430.193,100.64,429.918,100.64,429.918z"/>
		</g>
		<rect x="124.414" y="300.514" style="fill:#FF725E;" width="250.234" height="133.788"/>
		<ellipse style="fill:#FF725E;" cx="249.852" cy="434.374" rx="125.117" ry="21.641"/>
		<g style="opacity:0.3;">
			<path d="M373.303,341.589c-1.344,7.77-2.876,15.948-8.151,21.982c-5.275,6.034-15.631,8.726-21.758,3.485
				c-5.35-4.576-6.464-13.868-13.447-15.416c-6.012-1.332-11.046,4.482-13.536,9.9c-2.491,5.418-4.785,11.849-10.543,13.975
				c-7.412,2.737-15.457-3.562-23.319-2.481c-5.933,0.815-10.27,5.547-14.727,9.392s-10.826,7.167-16.2,4.622
				c-6.436-3.047-7.98-13.049-15.091-13.972c-7.546-0.98-14.095,9.764-20.854,6.396c-5.744-2.862-4.627-13.557-11.051-14.315
				c-5.046-0.596-7.257,5.815-10.893,9.225c-3.56,3.339-9.709,3.712-13.68,0.832c-2.411-1.749-4.219-4.579-7.194-5.091
				c-4.599-0.792-7.76,4.414-8.532,8.836c-0.772,4.422-1.072,9.66-4.985,12.11c-3.574,2.238-8.626,0.755-11.558-2.222
				c-2.932-2.977-4.256-7.05-5.49-10.971c-2.14-6.797-4.279-13.593-6.419-20.39c-3.724,3.668-11.164,2.503-13.481-2.11l1.734-19.201
				L373.303,341.589z"/>
		</g>
		<path style="fill:#FF725E;" d="M380.623,293.754c-1.474-2.304-3.292-4.347-5.729-6.154c-9.301-11.87-60.924-17.627-122.544-17.627
			c-45.793,0-85.34,3.584-103.892,8.774c-11.028,2.339-21.035,8.532-26.905,17.101c-4.923,7.186-6.977,15.666-7.349,24.05
			c-0.372,8.384,0.855,16.752,2.08,25.073c0.442,3.001,0.937,6.129,2.891,8.619c1.954,2.49,5.849,4.082,8.93,2.738
			c2.072-0.904,3.246-2.827,4.646-4.448c1.399-1.621,3.579-3.132,5.817-2.619c2.463,0.565,3.418,3.142,3.929,5.336
			c1.95,8.37,3.31,16.846,4.07,25.364c0.225,2.522,0.417,5.116,1.646,7.403c1.228,2.287,3.773,4.224,6.645,4.139
			c2.693-0.08,4.987-1.915,6.164-4.048c1.177-2.134,1.463-4.548,1.809-6.9c0.589-4.011,1.402-7.997,2.433-11.939
			c0.515-1.968,1.114-3.982,2.485-5.602c1.371-1.62,3.701-2.77,5.944-2.344c6.106,1.16,4.779,11.018,10.764,12.591
			c2.173,0.571,4.568-0.32,6.171-1.732c1.603-1.411,2.574-3.27,3.513-5.086c2.281-4.415,6.543-19.692,15.038-13.166
			c2.572,1.976,3.502,5.106,4.117,8.061c0.615,2.956,1.111,6.075,3.145,8.489c2.034,2.413,6.226,3.733,8.936,1.906
			c2.207-1.488,2.734-4.501,5.2-5.632c2.316-1.063,5.281,0.167,6.785,2.047c1.504,1.879,1.96,4.23,2.583,6.463
			c1.37,4.911,3.886,9.792,8.385,12.937c4.499,3.145,11.299,4.096,16.03,1.227c3.776-2.29,5.517-6.385,6.613-10.304
			c1.096-3.919,1.827-8.05,4.374-11.405c2.548-3.356,7.644-5.668,11.794-3.95c4.04,1.673,5.443,6.242,9.102,8.492
			c4.698,2.888,11.484,0.875,15.479-2.741c3.995-3.616,6.154-8.46,9.225-12.718c3.071-4.258,7.784-8.248,13.514-8.289
			c6.716-0.047,11.78,5.177,15.556,10.066c3.776,4.888,8.058,10.386,14.676,11.393c6.659,1.014,13.188-3.252,16.209-8.572
			c3.021-5.32,3.33-11.472,3.581-17.415c0.297-7.024,0.594-14.049,0.891-21.073C385.786,312.531,386.049,302.235,380.623,293.754z"
			/>
		<path style="opacity:0.6;fill:#FFFFFF;" d="M380.623,293.754c-1.474-2.304-3.292-4.347-5.729-6.154
			c-9.301-11.87-60.924-17.627-122.544-17.627c-45.793,0-85.34,3.584-103.892,8.774c-11.028,2.339-21.035,8.532-26.905,17.101
			c-4.923,7.186-6.977,15.666-7.349,24.05c-0.372,8.384,0.855,16.752,2.08,25.073c0.442,3.001,0.937,6.129,2.891,8.619
			c1.954,2.49,5.849,4.082,8.93,2.738c2.072-0.904,3.246-2.827,4.646-4.448c1.399-1.621,3.579-3.132,5.817-2.619
			c2.463,0.565,3.418,3.142,3.929,5.336c1.95,8.37,3.31,16.846,4.07,25.364c0.225,2.522,0.417,5.116,1.646,7.403
			c1.228,2.287,3.773,4.224,6.645,4.139c2.693-0.08,4.987-1.915,6.164-4.048c1.177-2.134,1.463-4.548,1.809-6.9
			c0.589-4.011,1.402-7.997,2.433-11.939c0.515-1.968,1.114-3.982,2.485-5.602c1.371-1.62,3.701-2.77,5.944-2.344
			c6.106,1.16,4.779,11.018,10.764,12.591c2.173,0.571,4.568-0.32,6.171-1.732c1.603-1.411,2.574-3.27,3.513-5.086
			c2.281-4.415,6.543-19.692,15.038-13.166c2.572,1.976,3.502,5.106,4.117,8.061c0.615,2.956,1.111,6.075,3.145,8.489
			c2.034,2.413,6.226,3.733,8.936,1.906c2.207-1.488,2.734-4.501,5.2-5.632c2.316-1.063,5.281,0.167,6.785,2.047
			c1.504,1.879,1.96,4.23,2.583,6.463c1.37,4.911,3.886,9.792,8.385,12.937c4.499,3.145,11.299,4.096,16.03,1.227
			c3.776-2.29,5.517-6.385,6.613-10.304c1.096-3.919,1.827-8.05,4.374-11.405c2.548-3.356,7.644-5.668,11.794-3.95
			c4.04,1.673,5.443,6.242,9.102,8.492c4.698,2.888,11.484,0.875,15.479-2.741c3.995-3.616,6.154-8.46,9.225-12.718
			c3.071-4.258,7.784-8.248,13.514-8.289c6.716-0.047,11.78,5.177,15.556,10.066c3.776,4.888,8.058,10.386,14.676,11.393
			c6.659,1.014,13.188-3.252,16.209-8.572c3.021-5.32,3.33-11.472,3.581-17.415c0.297-7.024,0.594-14.049,0.891-21.073
			C385.786,312.531,386.049,302.235,380.623,293.754z"/>
		<g style="opacity:0.3;">
			<path d="M123.799,418.424c15.966,14.496,38.761,18.189,60.228,20.258c50.958,4.911,102.503,4.232,153.204-2.86
				c6.803-0.951,13.676-2.042,19.982-4.764c6.307-2.722,12.079-7.278,14.913-13.534L123.799,418.424z"/>
		</g>
		<path style="fill:#FF725E;" d="M374.969,415.135c0,11.952-56.017,21.641-125.117,21.641s-125.117-9.689-125.117-21.641v-18.86
			c0,11.952,56.017,21.641,125.117,21.641s125.117-9.689,125.117-21.641V415.135z"/>
		<path style="opacity:0.4;fill:#FFFFFF;" d="M374.969,415.135c0,11.952-56.017,21.641-125.117,21.641
			s-125.117-9.689-125.117-21.641v-18.86c0,11.952,56.017,21.641,125.117,21.641s125.117-9.689,125.117-21.641V415.135z"/>
		<g style="opacity:0.3;">
			<path d="M151.089,437.864c-0.567-1.639-2.798-2.026-4.473-1.574c-0.897,0.142-1.679,0.802-2.027,1.642
				c-0.348,0.839-0.275,1.828,0.138,2.638c0.787,1.545,2.847,2.294,4.443,1.615C150.766,441.506,151.655,439.503,151.089,437.864z"
				/>
		</g>
		<g style="opacity:0.3;">
			<path d="M333.352,440.962c-0.567-1.639-2.798-2.026-4.473-1.574c-0.897,0.142-1.679,0.802-2.027,1.642
				c-0.348,0.839-0.275,1.828,0.138,2.638c0.788,1.545,2.847,2.294,4.443,1.615C333.029,444.604,333.919,442.601,333.352,440.962z"
				/>
		</g>
		<g style="opacity:0.3;">
			<path d="M287.342,410.986c-0.683-1.28-3.37-1.582-5.386-1.229c-1.081,0.111-2.022,0.627-2.442,1.282
				c-0.419,0.656-0.331,1.428,0.166,2.06c0.948,1.207,3.429,1.791,5.351,1.261S288.024,412.266,287.342,410.986z"/>
		</g>
		<g style="opacity:0.3;">
			<path d="M223.311,406.181c-1.771,1.189-1.526,3.907-0.46,5.707c0.453,0.997,1.485,1.692,2.594,1.825
				c1.108,0.133,2.262-0.272,3.095-1.014c1.589-1.415,1.829-4.051,0.518-5.686C227.746,405.378,225.082,404.993,223.311,406.181z"/>
		</g>
		<g style="opacity:0.3;">
			<path d="M336.605,401.789c-0.284-0.82-1.399-1.013-2.236-0.787c-0.449,0.071-0.84,0.401-1.014,0.821
				c-0.174,0.42-0.137,0.914,0.069,1.319c0.394,0.772,1.424,1.147,2.222,0.807S336.888,402.608,336.605,401.789z"/>
		</g>
		<g style="opacity:0.3;">
			<path d="M267.198,409.93c-0.283-0.82-1.399-1.013-2.236-0.787c-0.449,0.071-0.84,0.401-1.014,0.821
				c-0.174,0.42-0.137,0.914,0.069,1.319c0.394,0.773,1.424,1.147,2.221,0.808C267.036,411.75,267.481,410.749,267.198,409.93z"/>
		</g>
		<g style="opacity:0.3;">
			<path d="M211.545,446.472c-0.283-0.82-1.399-1.013-2.236-0.787c-0.449,0.071-0.84,0.401-1.014,0.821
				c-0.174,0.42-0.137,0.914,0.069,1.319c0.394,0.773,1.424,1.147,2.222,0.807C211.383,448.293,211.828,447.292,211.545,446.472z"/>
		</g>
		<g style="opacity:0.3;">
			<path d="M176.513,404.168c-0.283-0.82-1.399-1.013-2.236-0.787c-0.449,0.071-0.84,0.401-1.014,0.821
				c-0.174,0.42-0.137,0.914,0.069,1.319c0.394,0.773,1.424,1.147,2.222,0.808C176.352,405.988,176.796,404.987,176.513,404.168z"/>
		</g>
		<g style="opacity:0.3;">
			<path d="M273.034,407.629c-0.142-0.41-0.7-0.506-1.118-0.393c-0.224,0.036-0.42,0.201-0.507,0.41
				c-0.087,0.21-0.069,0.457,0.035,0.66c0.197,0.386,0.712,0.573,1.111,0.404C272.953,408.539,273.176,408.039,273.034,407.629z"/>
		</g>
		<g style="opacity:0.3;">
			<path d="M238.186,412.023c-0.142-0.41-0.699-0.507-1.118-0.393c-0.224,0.035-0.42,0.201-0.507,0.41s-0.069,0.457,0.035,0.659
				c0.197,0.386,0.712,0.573,1.111,0.404C238.105,412.934,238.328,412.433,238.186,412.023z"/>
		</g>
		<g style="opacity:0.3;">
			<path d="M359.942,438.133c-0.142-0.41-0.7-0.507-1.118-0.393c-0.224,0.035-0.42,0.201-0.507,0.41
				c-0.087,0.21-0.069,0.457,0.035,0.659c0.197,0.386,0.712,0.574,1.111,0.404C359.861,439.043,360.084,438.542,359.942,438.133z"/>
		</g>
		<g style="opacity:0.3;">
			<path d="M281.357,446.745c-0.142-0.41-0.7-0.507-1.118-0.394c-0.224,0.036-0.42,0.201-0.507,0.41
				c-0.087,0.21-0.069,0.457,0.034,0.659c0.197,0.386,0.712,0.573,1.111,0.404C281.277,447.655,281.499,447.155,281.357,446.745z"/>
		</g>
		<g style="opacity:0.4;">
			<ellipse style="fill:#FFFFFF;" cx="250.31" cy="293.175" rx="115.849" ry="16.648"/>
			<g>
				<path style="fill:#FFFFFF;" d="M270.107,315.58c0.006,0.18-1.696,0.395-4.78,0.63c-3.084,0.247-7.552,0.458-13.077,0.624
					c-11.048,0.296-26.342,0.314-43.193-0.776c-16.858-1.052-32.048-3.056-42.926-5.101c-1.358-0.256-2.653-0.499-3.879-0.73
					c-1.218-0.261-2.367-0.507-3.443-0.738c-2.149-0.461-3.994-0.882-5.49-1.286c-2.996-0.78-4.631-1.293-4.593-1.469
					c0.086-0.39,6.798,0.859,17.701,2.406c10.899,1.572,26.02,3.273,42.795,4.32c16.767,1.084,31.992,1.359,43.015,1.534
					C263.262,315.14,270.095,315.198,270.107,315.58z"/>
			</g>
			<g>
				<path style="fill:#FFFFFF;" d="M299.342,314.315c0.034,0.718-4.168,1.499-9.384,1.743c-5.217,0.244-9.473-0.14-9.506-0.859
					c-0.034-0.718,4.167-1.498,9.385-1.742C295.052,313.212,299.308,313.597,299.342,314.315z"/>
			</g>
			<path style="fill:#FFFFFF;" d="M117.364,327.304c-0.599,7.428,0.305,15.69,3.705,22.583c0.706,1.431,3.332,2.694,5.199,2.617
				c1.558-0.065,2.606-1.318,3.3-2.473c0.962-1.601,1.738-3.278,2.313-5.001c0.473-1.416,0.613-3.268-0.916-4.017
				c-0.88-0.431-1.994-0.302-2.982-0.52c-2.113-0.467-3.204-2.347-4.026-4.022c-1.372-2.794-2.744-5.588-4.117-8.383
				c-0.23-0.468-0.494-0.969-1.022-1.222C118.287,326.614,117.432,326.802,117.364,327.304"/>
			<path style="fill:#FFFFFF;" d="M263.115,383.315c-0.411-1.344-2.255-2.028-3.924-2.159c-1.669-0.131-3.394,0.092-5.001-0.302
				c-1.768-0.434-3.174-1.576-4.152-2.868c-0.978-1.292-1.59-2.745-2.277-4.16c-0.502-1.035-1.094-2.104-2.184-2.761
				c-0.011-0.007-0.022-0.013-0.033-0.02c-1.686-0.988-3.885,0.579-3.088,2.156c1.748,3.459,4.204,6.671,7.111,9.553
				c1.501,1.489,3.18,2.927,5.31,3.738c2.129,0.811,4.805,0.881,6.697-0.263C262.672,385.565,263.449,384.406,263.115,383.315z"/>
			<path style="fill:#FFFFFF;" d="M268.21,373.89c-0.416-0.584-1.361-1.139-2.18-1.094c-1.604-0.003-2.724,0.84-3.322,1.931
				c-0.599,1.091-0.532,2.415,0.176,3.461c0.386,0.57,0.98,1.07,1.733,1.266c1.106,0.287,2.358-0.158,3.083-0.905
				c0.725-0.747,0.994-1.737,1.016-2.695C268.732,375.176,268.626,374.474,268.21,373.89z"/>
		</g>
		<path style="opacity:0.2;" d="M299.342,300.301c0,0,34.59-2.819,43.633-7.463c9.044-4.643,13.185-14.115,13.185-14.115
			s-7.891-2.446-22.177-4.09C328.243,273.973,299.342,300.301,299.342,300.301z"/>
		<path style="fill:#FFFFFF;" d="M241.812,465.06c-0.42-0.208-0.903-0.232-1.371-0.252c-5.18-0.218-10.359-0.436-15.539-0.654
			c-1.429-0.135-2.547-0.06-2.959,0.413c-0.515,0.264-0.474,1.081-0.062,1.488c0.413,0.406,1.028,0.51,1.602,0.587
			c5.701,0.77,11.481,0.959,17.22,0.561c0.747-0.052,1.689-0.284,1.799-1.025C242.57,465.715,242.231,465.269,241.812,465.06z"/>
		<g>
			<g style="opacity:0.3;">
				<path d="M360.983,428.294c-3.318-3.207-7.307-5.855-11.797-6.919c-6.646-1.574-13.6,0.45-19.921,3.037
					c-3.893,1.593-7.839,3.52-10.441,6.824l-12.964,17.483c2.853,2.968,7.339,4.014,11.392,3.294
					c4.053-0.72,7.692-3.017,10.663-5.865c2.972-2.848,5.352-6.245,7.711-9.618c3.981,0.681,8.247-0.557,11.245-3.264
					c5.415,6.395,15.042,8.818,22.838,5.747C367.014,435.269,364.3,431.501,360.983,428.294z"/>
			</g>
			<path style="fill:#FF725E;" d="M337.17,423.62c-0.741-13.735-3.469-27.059-12.443-37.484c-4.482-5.207-10.971-9.985-17.667-8.448
				c-5.302,1.217-9.062,6.227-10.412,11.497c-1.35,5.27-1.428,9.695-0.809,15.099c0.583,5.083,5.232,11.302,5.815,16.385
				c0.556,4.85-2.265,9.688-1.709,14.538c0.523,4.565,1.306,9.619,4.896,12.487c3.772,3.013,9.31,2.434,13.795,0.647
				c10.005-3.987,17.617-13.462,19.355-24.092L337.17,423.62z"/>
			<path style="fill:#FF725E;" d="M345.344,420.935c-1.349-13.688-0.671-27.273,6.62-38.936c3.642-5.826,9.331-11.532,16.183-11.028
				c5.425,0.399,10.422,4.591,12.034,9.787c3.774,12.168-1.241,22.756-0.912,28.186c0.427,7.03,4.246,7.813,4.626,17.804
				c0.174,4.591,0.167,9.706-2.947,13.084c-3.272,3.55-8.834,3.817-13.538,2.73c-10.494-2.425-19.454-10.638-22.782-20.881
				L345.344,420.935z"/>
			<path style="opacity:0.4;fill:#FFFFFF;" d="M337.17,423.62c-0.741-13.735-3.469-27.059-12.443-37.484
				c-4.482-5.207-10.971-9.985-17.667-8.448c-5.302,1.217-9.062,6.227-10.412,11.497c-1.35,5.27-1.428,9.695-0.809,15.099
				c0.583,5.083,5.232,11.302,5.815,16.385c0.556,4.85-2.265,9.688-1.709,14.538c0.523,4.565,1.306,9.619,4.896,12.487
				c3.772,3.013,9.31,2.434,13.795,0.647c10.005-3.987,17.617-13.462,19.355-24.092L337.17,423.62z"/>
			<path style="opacity:0.4;fill:#FFFFFF;" d="M345.344,420.935c-1.349-13.688-0.671-27.273,6.62-38.936
				c3.642-5.826,9.331-11.532,16.183-11.028c5.425,0.399,10.422,4.591,12.034,9.787c3.774,12.168-1.241,22.756-0.912,28.186
				c0.427,7.03,4.246,7.813,4.626,17.804c0.174,4.591,0.167,9.706-2.947,13.084c-3.272,3.55-8.834,3.817-13.538,2.73
				c-10.494-2.425-19.454-10.638-22.782-20.881L345.344,420.935z"/>
			<g style="opacity:0.3;">
				<path d="M334.088,407.686l0.459-1.655c-3.316,1.333-5.867,4.418-6.555,7.924c-2.093-0.706-4.402-0.755-6.523-0.14
					c2.013,0.567,3.997,1.241,5.939,2.018c0.662,0.265,1.416,0.663,1.503,1.371c0.057,0.466-0.208,0.904-0.462,1.299
					c-1.832,2.851-3.664,5.702-5.496,8.553c2.098-1.276,4.196-2.552,6.295-3.828c0.453,4.102,3.483,7.805,7.415,9.061
					C334.572,424.281,333.701,415.955,334.088,407.686z"/>
			</g>
			<g style="opacity:0.3;">
				<path d="M362.927,415.856c-3.786-0.127-7.573-0.254-11.359-0.38c3.002-5.133,6.907-9.737,11.483-13.534
					c-5.62,1.968-10.425,6.166-13.128,11.472l-1.002-0.507c-0.142,5.802-0.284,11.605-0.426,17.407
					c2.062-2.065,3.093-5.112,2.708-8.005c2.011,1.333,4.021,2.667,6.032,4c-0.016-1.758-1.716-2.95-3.165-3.945
					c-1.45-0.995-2.99-2.548-2.504-4.238C355.353,417.369,359.14,416.612,362.927,415.856z"/>
			</g>
			<path style="fill:#FF725E;" d="M350.087,412.487c-2.08-4.382-7.196-8.686-11.874-7.407c-4.66,0.703-7.3,4.316-8.078,8.977
				c-0.778,4.661,0.885,11.935,3.991,15.496c2.52,2.889,6.639,4.867,10.211,3.478c2.699-1.049,4.411-3.725,5.495-6.41
				C351.647,422.122,352.167,416.868,350.087,412.487z"/>
			<path style="opacity:0.4;fill:#FFFFFF;" d="M350.087,412.487c-2.08-4.382-7.196-8.686-11.874-7.407
				c-4.66,0.703-7.3,4.316-8.078,8.977c-0.778,4.661,0.885,11.935,3.991,15.496c2.52,2.889,6.639,4.867,10.211,3.478
				c2.699-1.049,4.411-3.725,5.495-6.41C351.647,422.122,352.167,416.868,350.087,412.487z"/>
			<g>
				<path style="fill:#263238;" d="M347.798,430.298c-0.015-0.01,0.101-0.216,0.334-0.598c0.227-0.385,0.567-0.951,0.952-1.706
					c0.773-1.498,1.726-3.802,2.022-6.816c0.145-1.501,0.216-3.167-0.1-4.904c-0.304-1.736-0.947-3.539-1.979-5.233
					c-0.514-0.847-1.122-1.667-1.815-2.44c-0.683-0.796-1.471-1.457-2.428-1.951c-0.943-0.499-1.988-0.852-3.072-1.097
					c-1.09-0.264-2.195-0.354-3.315-0.176c-2.238,0.333-4.238,1.551-5.678,3.12c-1.475,1.567-2.286,3.543-2.613,5.494
					c-0.661,3.929,0.027,7.594,1.156,10.376c1.051,2.848,2.573,4.819,3.762,6.017c1.185,1.211,1.947,1.775,1.912,1.816
					c-0.011,0.014-0.205-0.12-0.565-0.389c-0.355-0.274-0.873-0.69-1.491-1.283c-1.244-1.161-2.852-3.152-3.961-6.025
					c-1.189-2.81-1.941-6.548-1.286-10.595c0.319-2.008,1.167-4.111,2.709-5.756c1.505-1.648,3.597-2.934,5.977-3.29
					c1.178-0.193,2.402-0.087,3.507,0.185c1.12,0.254,2.205,0.623,3.197,1.152c0.995,0.511,1.878,1.262,2.56,2.07
					c0.709,0.799,1.33,1.647,1.854,2.523c1.052,1.753,1.7,3.619,1.994,5.409c0.307,1.796,0.212,3.5,0.04,5.017
					c-0.348,3.064-1.374,5.391-2.209,6.871c-0.416,0.748-0.786,1.299-1.043,1.668C347.958,430.122,347.813,430.308,347.798,430.298z
					"/>
			</g>
			<g>
				<path style="fill:#263238;" d="M347.129,408.943c0.067,0.057-0.874,1.187-2.2,3.147c-1.332,1.954-2.997,4.775-4.462,8.073
					c-1.457,3.302-2.427,6.432-2.977,8.731c-0.559,2.299-0.763,3.755-0.85,3.744c-0.036-0.004-0.017-0.372,0.049-1.036
					c0.059-0.664,0.205-1.62,0.442-2.788c0.463-2.34,1.388-5.525,2.861-8.862c1.48-3.332,3.216-6.158,4.637-8.074
					c0.706-0.962,1.315-1.712,1.767-2.202C346.842,409.181,347.102,408.919,347.129,408.943z"/>
			</g>
			<g>
				<path style="fill:#263238;" d="M300.302,439.128c-0.027,0.011-0.214-0.331-0.422-1.003c-0.205-0.671-0.406-1.679-0.429-2.938
					c-0.03-1.258,0.129-2.753,0.444-4.373c0.307-1.622,0.761-3.371,1.071-5.223c0.692-3.707,0.036-7.14-0.836-9.425
					c-0.867-2.306-1.804-3.55-1.717-3.604c0.024-0.017,0.284,0.271,0.672,0.852c0.39,0.579,0.907,1.457,1.387,2.617
					c0.98,2.289,1.718,5.846,1.007,9.645c-0.316,1.887-0.785,3.633-1.114,5.232c-0.337,1.596-0.528,3.052-0.546,4.279
					C299.765,437.655,300.397,439.104,300.302,439.128z"/>
			</g>
			<g>
				<path style="fill:#263238;" d="M329.51,417.203c-0.093,0.134-2.358-1.529-5.565-2.718c-3.197-1.218-5.997-1.458-5.978-1.62
					c-0.009-0.125,2.877-0.115,6.161,1.133C327.421,415.22,329.6,417.114,329.51,417.203z"/>
			</g>
			<g>
				<path style="fill:#263238;" d="M330.286,421.883c0.076,0.138-2.225,1.443-4.732,3.495c-2.519,2.039-4.264,4.026-4.383,3.924
					c-0.106-0.077,1.488-2.25,4.054-4.328C327.78,422.884,330.232,421.764,330.286,421.883z"/>
			</g>
			<g>
				<path style="fill:#263238;" d="M366.745,401.488c0.032,0.078-1.052,0.557-2.729,1.462c-1.677,0.902-3.927,2.278-6.202,4.082
					c-2.271,1.81-4.118,3.693-5.375,5.124c-1.259,1.43-1.971,2.378-2.039,2.329c-0.029-0.021,0.118-0.279,0.411-0.73
					c0.289-0.454,0.747-1.084,1.347-1.836c1.197-1.506,3.029-3.459,5.332-5.294c2.307-1.83,4.622-3.176,6.358-4.003
					c0.868-0.415,1.585-0.72,2.092-0.899C366.446,401.54,366.731,401.455,366.745,401.488z"/>
			</g>
			<g>
				<path style="fill:#263238;" d="M365.568,416.025c0.006,0.147-3.27,0.39-7.304,0.717c-4.036,0.323-7.307,0.607-7.325,0.461
					c-0.008-0.07,0.8-0.233,2.117-0.421c1.317-0.188,3.143-0.396,5.166-0.559c2.023-0.163,3.859-0.249,5.188-0.274
					C364.741,415.922,365.565,415.954,365.568,416.025z"/>
			</g>
			<g>
				<path style="fill:#263238;" d="M358.794,427.982c-0.094,0.109-1.807-1.224-3.824-2.976c-2.018-1.753-3.577-3.261-3.483-3.37
					c0.094-0.108,1.806,1.224,3.824,2.976C357.329,426.365,358.888,427.874,358.794,427.982z"/>
			</g>
		</g>
		<g>
			<g style="opacity:0.1;">
				<path d="M148.907,323.428c-1.552,0-2.811,1.258-2.811,2.811c0,1.552,1.258,2.811,2.811,2.811c1.552,0,2.811-1.258,2.811-2.811
					C151.718,324.686,150.459,323.428,148.907,323.428z"/>
			</g>
			<path style="fill:#F5F5F5;" d="M151.899,324.69c0,1.752-1.421,3.173-3.173,3.173c-1.752,0-3.173-1.421-3.173-3.173
				s1.421-3.173,3.173-3.173C150.479,321.517,151.899,322.937,151.899,324.69z"/>
			<g>
				<path style="fill:#FFFFFF;" d="M147.017,326.659c-0.164,0.124-0.554-0.025-0.886-0.551c-0.328-0.509-0.537-1.427-0.201-2.37
					c0.341-0.942,1.087-1.516,1.664-1.7c0.591-0.195,0.986-0.062,1.034,0.139c0.088,0.414-0.871,1.026-1.227,2.09
					C146.999,325.313,147.348,326.397,147.017,326.659z"/>
			</g>
		</g>
		<g>
			<g style="opacity:0.1;">
				<path d="M197.21,330.404c-1.552,0-2.811,1.258-2.811,2.811c0,1.552,1.258,2.811,2.811,2.811c1.552,0,2.811-1.259,2.811-2.811
					C200.021,331.663,198.763,330.404,197.21,330.404z"/>
			</g>
			<path style="fill:#F5F5F5;" d="M200.203,331.666c0,1.752-1.421,3.173-3.173,3.173c-1.752,0-3.173-1.421-3.173-3.173
				c0-1.752,1.421-3.173,3.173-3.173C198.782,328.493,200.203,329.914,200.203,331.666z"/>
			<g>
				<path style="fill:#FFFFFF;" d="M195.32,333.636c-0.164,0.124-0.554-0.025-0.886-0.551c-0.328-0.509-0.537-1.427-0.201-2.37
					c0.341-0.942,1.087-1.516,1.664-1.7c0.591-0.195,0.986-0.062,1.034,0.139c0.088,0.414-0.871,1.026-1.227,2.09
					C195.302,332.29,195.651,333.373,195.32,333.636z"/>
			</g>
		</g>
		<g>
			<g style="opacity:0.1;">
				<path d="M245.748,333.751c-1.552,0-2.811,1.258-2.811,2.811c0,1.552,1.258,2.811,2.811,2.811c1.552,0,2.811-1.258,2.811-2.811
					C248.559,335.01,247.301,333.751,245.748,333.751z"/>
			</g>
			<path style="fill:#F5F5F5;" d="M248.74,335.013c0,1.752-1.42,3.173-3.173,3.173c-1.752,0-3.173-1.421-3.173-3.173
				c0-1.752,1.421-3.173,3.173-3.173C247.32,331.841,248.74,333.261,248.74,335.013z"/>
			<g>
				<path style="fill:#FFFFFF;" d="M243.858,336.983c-0.164,0.124-0.554-0.025-0.886-0.551c-0.328-0.509-0.537-1.427-0.201-2.37
					c0.341-0.942,1.087-1.516,1.664-1.7c0.591-0.195,0.986-0.062,1.034,0.139c0.088,0.414-0.871,1.026-1.228,2.09
					C243.84,335.637,244.189,336.72,243.858,336.983z"/>
			</g>
		</g>
		<g>
			<g style="opacity:0.1;">
				<path d="M288.91,332.26c-1.552,0-2.811,1.258-2.811,2.811c0,1.552,1.258,2.811,2.811,2.811c1.552,0,2.811-1.258,2.811-2.811
					C291.72,333.518,290.462,332.26,288.91,332.26z"/>
			</g>
			<path style="fill:#F5F5F5;" d="M291.902,333.522c0,1.752-1.421,3.173-3.173,3.173c-1.752,0-3.173-1.421-3.173-3.173
				s1.421-3.173,3.173-3.173C290.481,330.349,291.902,331.769,291.902,333.522z"/>
			<g>
				<path style="fill:#FFFFFF;" d="M287.019,335.491c-0.164,0.124-0.554-0.025-0.886-0.551c-0.328-0.509-0.537-1.427-0.201-2.37
					c0.341-0.942,1.087-1.516,1.664-1.7c0.591-0.195,0.986-0.061,1.034,0.139c0.088,0.414-0.871,1.026-1.227,2.09
					C287.001,334.145,287.35,335.228,287.019,335.491z"/>
			</g>
		</g>
		<g>
			<g style="opacity:0.1;">
				<path d="M333.262,327.424c-1.552,0-2.811,1.258-2.811,2.811c0,1.552,1.258,2.811,2.811,2.811c1.552,0,2.811-1.258,2.811-2.811
					C336.073,328.682,334.815,327.424,333.262,327.424z"/>
			</g>
			<path style="fill:#F5F5F5;" d="M336.254,328.686c0,1.752-1.42,3.173-3.173,3.173s-3.173-1.421-3.173-3.173
				c0-1.752,1.421-3.173,3.173-3.173S336.254,326.934,336.254,328.686z"/>
			<g>
				<path style="fill:#FFFFFF;" d="M331.372,330.655c-0.165,0.124-0.554-0.025-0.886-0.551c-0.328-0.509-0.537-1.427-0.201-2.37
					c0.341-0.942,1.087-1.516,1.664-1.7c0.591-0.195,0.986-0.062,1.034,0.139c0.088,0.414-0.871,1.026-1.227,2.09
					C331.354,329.309,331.703,330.393,331.372,330.655z"/>
			</g>
		</g>
		<g>
			<g style="opacity:0.1;">
				<path d="M369.991,316.546c-1.552,0-2.811,1.258-2.811,2.811s1.259,2.811,2.811,2.811c1.552,0,2.811-1.258,2.811-2.811
					S371.543,316.546,369.991,316.546z"/>
			</g>
			<path style="fill:#F5F5F5;" d="M372.983,317.807c0,1.752-1.421,3.173-3.173,3.173c-1.752,0-3.173-1.421-3.173-3.173
				s1.421-3.173,3.173-3.173C371.562,314.634,372.983,316.055,372.983,317.807z"/>
			<g>
				<path style="fill:#FFFFFF;" d="M368.1,319.777c-0.164,0.124-0.554-0.025-0.886-0.551c-0.328-0.509-0.537-1.427-0.201-2.37
					c0.341-0.942,1.087-1.516,1.664-1.7c0.591-0.195,0.986-0.062,1.034,0.139c0.088,0.414-0.871,1.026-1.227,2.09
					C368.082,318.431,368.431,319.514,368.1,319.777z"/>
			</g>
		</g>
		<g>
			<g style="opacity:0.1;">
				<path d="M130.711,317.751c-2.08,0-3.766,1.686-3.766,3.766c0,2.08,1.686,3.766,3.766,3.766c2.08,0,3.766-1.686,3.766-3.766
					C134.477,319.437,132.791,317.751,130.711,317.751z"/>
			</g>
			<path style="fill:#F5F5F5;" d="M134.181,319.777c0,2.348-1.903,4.251-4.251,4.251c-2.348,0-4.251-1.903-4.251-4.251
				c0-2.348,1.903-4.251,4.251-4.251C132.278,315.526,134.181,317.429,134.181,319.777z"/>
			<g>
				<path style="fill:#FFFFFF;" d="M127.639,322.416c-0.162,0.123-0.622-0.109-1.009-0.798c-0.384-0.669-0.622-1.835-0.197-3.026
					c0.431-1.19,1.357-1.937,2.079-2.208c0.737-0.285,1.24-0.171,1.286,0.027c0.107,0.407-1.345,1.13-1.895,2.71
					C127.321,320.688,127.981,322.17,127.639,322.416z"/>
			</g>
		</g>
		<g>
			<g style="opacity:0.1;">
				<path d="M172.454,326.808c-2.08,0-3.766,1.686-3.766,3.766c0,2.08,1.686,3.766,3.766,3.766s3.766-1.686,3.766-3.766
					C176.221,328.494,174.534,326.808,172.454,326.808z"/>
			</g>
			<path style="fill:#F5F5F5;" d="M175.925,328.834c0,2.348-1.903,4.251-4.251,4.251c-2.348,0-4.251-1.903-4.251-4.251
				c0-2.348,1.903-4.251,4.251-4.251C174.021,324.583,175.925,326.486,175.925,328.834z"/>
			<g>
				<path style="fill:#FFFFFF;" d="M169.383,331.473c-0.162,0.123-0.622-0.109-1.009-0.798c-0.384-0.669-0.622-1.835-0.197-3.026
					c0.43-1.19,1.357-1.937,2.079-2.208c0.737-0.285,1.24-0.171,1.286,0.027c0.107,0.408-1.345,1.13-1.895,2.71
					C169.065,329.746,169.724,331.227,169.383,331.473z"/>
			</g>
		</g>
		<g>
			<g style="opacity:0.1;">
				<circle cx="222.002" cy="335.703" r="3.766"/>
			</g>
			<path style="fill:#F5F5F5;" d="M225.472,333.964c0,2.348-1.903,4.251-4.251,4.251c-2.348,0-4.251-1.903-4.251-4.251
				s1.903-4.251,4.251-4.251C223.569,329.712,225.472,331.616,225.472,333.964z"/>
			<g>
				<path style="fill:#FFFFFF;" d="M218.93,336.603c-0.162,0.123-0.622-0.109-1.009-0.798c-0.384-0.669-0.622-1.835-0.197-3.026
					c0.43-1.19,1.357-1.937,2.079-2.208c0.737-0.285,1.24-0.171,1.286,0.027c0.107,0.407-1.345,1.13-1.895,2.71
					C218.612,334.875,219.272,336.357,218.93,336.603z"/>
			</g>
		</g>
		<g>
			<g style="opacity:0.1;">
				<circle cx="268.064" cy="336.34" r="3.766"/>
			</g>
			<path style="fill:#F5F5F5;" d="M271.535,334.6c0,2.348-1.903,4.251-4.251,4.251c-2.348,0-4.251-1.903-4.251-4.251
				s1.903-4.251,4.251-4.251C269.632,330.349,271.535,332.252,271.535,334.6z"/>
			<g>
				<path style="fill:#FFFFFF;" d="M264.993,337.239c-0.162,0.123-0.622-0.109-1.009-0.798c-0.384-0.669-0.622-1.835-0.197-3.026
					c0.431-1.19,1.357-1.937,2.079-2.208c0.737-0.285,1.24-0.172,1.286,0.027c0.107,0.407-1.345,1.13-1.895,2.71
					C264.675,335.511,265.334,336.993,264.993,337.239z"/>
			</g>
		</g>
		<g>
			<g style="opacity:0.1;">
				<circle cx="310.934" cy="332.812" r="3.766"/>
			</g>
			<path style="fill:#F5F5F5;" d="M314.405,331.072c0,2.348-1.903,4.251-4.251,4.251c-2.348,0-4.251-1.903-4.251-4.251
				c0-2.348,1.903-4.251,4.251-4.251C312.502,326.82,314.405,328.724,314.405,331.072z"/>
			<g>
				<path style="fill:#FFFFFF;" d="M307.863,333.711c-0.162,0.123-0.622-0.109-1.009-0.798c-0.384-0.669-0.622-1.835-0.197-3.026
					c0.43-1.19,1.357-1.937,2.079-2.208c0.737-0.285,1.24-0.171,1.286,0.027c0.107,0.408-1.345,1.13-1.895,2.71
					C307.545,331.983,308.204,333.465,307.863,333.711z"/>
			</g>
		</g>
		<g>
			<g style="opacity:0.1;">
				<path d="M353.964,321.994c-2.08,0-3.766,1.686-3.766,3.766c0,2.08,1.686,3.766,3.766,3.766c2.08,0,3.766-1.686,3.766-3.766
					C357.73,323.68,356.044,321.994,353.964,321.994z"/>
			</g>
			<path style="fill:#F5F5F5;" d="M357.434,324.02c0,2.348-1.904,4.251-4.251,4.251c-2.348,0-4.251-1.903-4.251-4.251
				c0-2.348,1.903-4.251,4.251-4.251C355.531,319.769,357.434,321.672,357.434,324.02z"/>
			<g>
				<path style="fill:#FFFFFF;" d="M350.892,326.659c-0.162,0.123-0.622-0.109-1.009-0.798c-0.384-0.669-0.622-1.835-0.197-3.026
					c0.43-1.19,1.357-1.937,2.079-2.208c0.737-0.285,1.24-0.171,1.286,0.027c0.107,0.407-1.345,1.13-1.895,2.71
					C350.574,324.931,351.234,326.413,350.892,326.659z"/>
			</g>
		</g>
	</g>
	<g>
		<path style="fill:#FF725E;" d="M339.36,185.627c-4.102-5.928-44.253-13.766-86.662-13.766c-31.859,0-59.41,2.466-72.654,6.051
			c-0.324,0.072-0.639,0.146-0.925,0.224c-21.605,5.899-23.195,24.267-23.64,33.692c-0.445,9.425,2.236,71.23,2.087,73.584
			c0,0,3.661,17.396,88.048,17.396c47.164,0,72.226-4.587,84.148-7.884c5.538-1.531,9.531-6.358,10.059-12.08
			c1.845-19.98,5.772-57.314,6.642-71.016C347.451,196.281,343.208,189.011,339.36,185.627z"/>
		<path style="opacity:0.6;fill:#FFFFFF;" d="M339.36,185.627c-4.102-5.928-44.253-13.766-86.662-13.766
			c-31.859,0-59.41,2.466-72.654,6.051c-0.324,0.072-0.639,0.146-0.925,0.224c-21.605,5.899-23.195,24.267-23.64,33.692
			c-0.445,9.425,2.236,71.23,2.087,73.584c0,0,3.661,17.396,88.048,17.396c47.164,0,72.226-4.587,84.148-7.884
			c5.538-1.531,9.531-6.358,10.059-12.08c1.845-19.98,5.772-57.314,6.642-71.016C347.451,196.281,343.208,189.011,339.36,185.627z"
			/>
		<g style="opacity:0.4;">
			<ellipse style="opacity:0.6;fill:#FFFFFF;" cx="251.365" cy="187.105" rx="79.287" ry="10.63"/>
			<g>
				<path style="opacity:0.6;fill:#FFFFFF;" d="M265.195,203.961c0.011,0.344-4.784,0.858-12.567,1.156
					c-7.78,0.278-18.555,0.334-30.428-0.434c-11.878-0.741-22.58-2.196-30.233-3.706c-7.66-1.493-12.28-2.919-12.206-3.242
					c0.084-0.378,4.826,0.406,12.503,1.424c7.674,1.036,18.307,2.189,30.102,2.925c11.789,0.762,22.495,0.999,30.25,1.192
					C260.372,203.449,265.184,203.587,265.195,203.961z"/>
			</g>
			<g>
				<path style="opacity:0.6;fill:#FFFFFF;" d="M285.773,203.071c0.034,0.718-2.916,1.44-6.587,1.612
					c-3.672,0.172-6.675-0.271-6.709-0.99c-0.034-0.718,2.915-1.44,6.587-1.611C282.735,201.91,285.739,202.353,285.773,203.071z"/>
			</g>
		</g>
		<path style="fill:#FF725E;" d="M272.743,252.853c-1.743,3.089-4.628,5.624-7.614,7.537c-5.022,3.217-10.589,7.624-10.589,7.624
			s-6.83-3.667-12.021-6.603c-3.087-1.746-6.106-4.119-8.017-7.107c-1.809-2.83-2.555-6.463-2.265-9.809
			c0.231-2.672,1.454-5.201,3.185-7.249c1.695-2.007,3.937-3.614,6.488-4.243c2.709-0.669,5.686-0.169,8.029,1.347
			c1.266,0.819,2.336,1.929,3.132,3.209c0.733-1.488,1.82-2.803,3.162-3.781c2.256-1.643,5.201-2.305,7.943-1.786
			c2.581,0.488,4.908,1.97,6.711,3.88c1.841,1.95,3.2,4.408,3.579,7.063C274.938,246.259,274.394,249.928,272.743,252.853z
			 M306.348,245.254c-0.071-1.426-0.672-2.796-1.552-3.919c-0.863-1.101-2.023-2-3.368-2.385c-1.428-0.409-3.022-0.202-4.298,0.559
			c-0.759,0.452-1.399,1.097-1.861,1.85c-0.359-0.717-0.872-1.358-1.503-1.854c-1.168-0.918-2.722-1.328-4.191-1.106
			c-1.383,0.209-2.65,0.951-3.646,1.932c-1.018,1.001-1.789,2.282-2.043,3.687c-0.317,1.76-0.099,3.722,0.721,5.311
			c0.867,1.678,2.352,3.083,3.903,4.16c2.608,1.81,6.05,4.088,6.05,4.088s3.166-2.064,5.986-3.524
			c1.677-0.868,3.33-2.071,4.405-3.623C305.969,248.958,306.436,247.04,306.348,245.254z M225.351,258.987
			c-0.319-1.392-1.15-2.635-2.213-3.588c-1.042-0.933-2.342-1.616-3.733-1.76c-1.478-0.153-3.011,0.329-4.134,1.301
			c-0.668,0.578-1.186,1.324-1.509,2.146c-0.479-0.644-1.096-1.185-1.804-1.563c-1.31-0.7-2.912-0.832-4.319-0.357
			c-1.325,0.447-2.443,1.4-3.253,2.54c-0.827,1.164-1.363,2.56-1.367,3.988c-0.005,1.788,0.552,3.682,1.638,5.103
			c1.147,1.5,2.854,2.625,4.569,3.414c2.885,1.327,6.671,2.968,6.671,2.968s2.757-2.585,5.278-4.515
			c1.499-1.148,2.917-2.621,3.704-4.337C225.624,262.701,225.75,260.73,225.351,258.987z M288.83,264.477
			c-0.001-0.642-0.242-1.27-0.614-1.794c-0.364-0.513-0.866-0.942-1.462-1.143c-0.633-0.214-1.353-0.155-1.943,0.159
			c-0.351,0.187-0.652,0.463-0.876,0.791c-0.146-0.33-0.363-0.629-0.636-0.865c-0.505-0.438-1.194-0.655-1.859-0.587
			c-0.626,0.064-1.211,0.371-1.68,0.79c-0.478,0.428-0.853,0.987-0.996,1.613c-0.18,0.784-0.124,1.67,0.211,2.401
			c0.354,0.772,0.991,1.435,1.665,1.952c1.133,0.869,2.631,1.966,2.631,1.966s1.467-0.86,2.765-1.456
			c0.772-0.354,1.54-0.859,2.056-1.534C288.581,266.134,288.832,265.281,288.83,264.477z M224.488,236.82
			c-0.001-0.642-0.242-1.27-0.614-1.794c-0.364-0.513-0.867-0.942-1.462-1.143c-0.633-0.214-1.353-0.155-1.943,0.159
			c-0.351,0.187-0.652,0.463-0.876,0.791c-0.146-0.33-0.363-0.629-0.636-0.865c-0.505-0.438-1.195-0.655-1.859-0.587
			c-0.626,0.064-1.211,0.371-1.68,0.79c-0.479,0.428-0.853,0.987-0.996,1.613c-0.18,0.784-0.124,1.67,0.211,2.401
			c0.354,0.772,0.991,1.435,1.665,1.952c1.133,0.869,2.631,1.966,2.631,1.966s1.467-0.86,2.765-1.456
			c0.772-0.354,1.54-0.859,2.056-1.534C224.238,238.476,224.489,237.624,224.488,236.82z M315.931,266.948
			c-0.002-0.746-0.281-1.477-0.713-2.085c-0.423-0.596-1.007-1.095-1.7-1.329c-0.736-0.249-1.573-0.18-2.259,0.185
			c-0.408,0.218-0.758,0.538-1.018,0.92c-0.17-0.384-0.422-0.731-0.739-1.006c-0.587-0.509-1.388-0.761-2.161-0.682
			c-0.728,0.075-1.407,0.431-1.952,0.919c-0.556,0.498-0.991,1.148-1.158,1.875c-0.209,0.911-0.144,1.942,0.245,2.792
			c0.411,0.898,1.152,1.669,1.935,2.269c1.317,1.01,3.058,2.285,3.058,2.285s1.705-0.999,3.214-1.692
			c0.897-0.412,1.79-0.999,2.39-1.783C315.64,268.874,315.932,267.883,315.931,266.948z M203.581,246.537
			c0.049-0.805-0.203-1.612-0.627-2.298c-0.416-0.672-1.012-1.25-1.743-1.55c-0.777-0.319-1.685-0.302-2.449,0.046
			c-0.455,0.207-0.855,0.529-1.161,0.923c-0.157-0.425-0.406-0.817-0.729-1.135c-0.599-0.589-1.446-0.916-2.285-0.883
			c-0.79,0.031-1.548,0.369-2.169,0.858c-0.634,0.499-1.147,1.171-1.377,1.944c-0.288,0.969-0.288,2.085,0.074,3.028
			c0.382,0.996,1.129,1.878,1.933,2.58c1.352,1.179,3.144,2.673,3.144,2.673s1.907-0.962,3.582-1.606c0.996-0.383,2-0.956,2.7-1.761
			C203.137,248.594,203.52,247.546,203.581,246.537z"/>
		<path style="opacity:0.1;" d="M314.341,186.594c0,2.381-27.501,4.311-61.425,4.311c-33.924,0-61.425-1.93-61.425-4.311
			c0-2.381,27.501-4.311,61.425-4.311C286.84,182.284,314.341,184.214,314.341,186.594z"/>
		<g>
			<g style="opacity:0.1;">
				<path d="M191.407,211.555c-1.552,0-2.811,1.258-2.811,2.811c0,1.552,1.258,2.811,2.811,2.811c1.552,0,2.811-1.258,2.811-2.811
					C194.218,212.813,192.96,211.555,191.407,211.555z"/>
			</g>
			<path style="fill:#F5F5F5;" d="M194.4,212.817c0,1.752-1.421,3.173-3.173,3.173s-3.173-1.421-3.173-3.173s1.42-3.173,3.173-3.173
				S194.4,211.064,194.4,212.817z"/>
			<g>
				<path style="fill:#FFFFFF;" d="M189.517,214.786c-0.164,0.124-0.554-0.025-0.886-0.551c-0.328-0.509-0.537-1.427-0.201-2.37
					c0.341-0.942,1.087-1.516,1.664-1.7c0.591-0.195,0.986-0.062,1.034,0.139c0.088,0.413-0.871,1.026-1.227,2.089
					C189.499,213.44,189.848,214.524,189.517,214.786z"/>
			</g>
		</g>
		<g>
			<g style="opacity:0.1;">
				<path d="M214.575,215.096c-1.552,0-2.811,1.258-2.811,2.811c0,1.552,1.258,2.811,2.811,2.811c1.552,0,2.811-1.258,2.811-2.811
					C217.386,216.355,216.127,215.096,214.575,215.096z"/>
			</g>
			<path style="fill:#F5F5F5;" d="M217.567,216.358c0,1.752-1.421,3.173-3.173,3.173c-1.752,0-3.173-1.421-3.173-3.173
				s1.421-3.173,3.173-3.173C216.147,213.186,217.567,214.606,217.567,216.358z"/>
			<g>
				<path style="fill:#FFFFFF;" d="M212.685,218.328c-0.164,0.124-0.554-0.025-0.886-0.551c-0.328-0.509-0.537-1.427-0.201-2.37
					c0.341-0.942,1.087-1.516,1.664-1.7c0.591-0.195,0.986-0.062,1.034,0.139c0.088,0.413-0.871,1.026-1.227,2.089
					C212.667,216.982,213.016,218.065,212.685,218.328z"/>
			</g>
		</g>
		<g>
			<g style="opacity:0.1;">
				<path d="M238.672,216.951c-1.552,0-2.811,1.258-2.811,2.811c0,1.552,1.258,2.811,2.811,2.811c1.552,0,2.811-1.258,2.811-2.811
					C241.483,218.209,240.225,216.951,238.672,216.951z"/>
			</g>
			<path style="fill:#F5F5F5;" d="M241.665,218.212c0,1.752-1.421,3.173-3.173,3.173s-3.173-1.421-3.173-3.173
				c0-1.752,1.42-3.173,3.173-3.173S241.665,216.46,241.665,218.212z"/>
			<g>
				<path style="fill:#FFFFFF;" d="M236.782,220.182c-0.164,0.124-0.554-0.025-0.886-0.551c-0.328-0.509-0.537-1.427-0.201-2.37
					c0.341-0.942,1.087-1.516,1.664-1.7c0.591-0.195,0.986-0.062,1.034,0.139c0.088,0.413-0.871,1.026-1.227,2.09
					C236.764,218.836,237.113,219.919,236.782,220.182z"/>
			</g>
		</g>
		<g>
			<g style="opacity:0.1;">
				<path d="M308.045,212.584c-1.552,0-2.811,1.258-2.811,2.811c0,1.552,1.258,2.811,2.811,2.811c1.552,0,2.811-1.258,2.811-2.811
					C310.856,213.842,309.598,212.584,308.045,212.584z"/>
			</g>
			<path style="fill:#F5F5F5;" d="M311.038,213.846c0,1.752-1.421,3.173-3.173,3.173c-1.752,0-3.173-1.421-3.173-3.173
				c0-1.752,1.421-3.173,3.173-3.173C309.617,210.673,311.038,212.093,311.038,213.846z"/>
			<g>
				<path style="fill:#FFFFFF;" d="M306.155,215.815c-0.165,0.124-0.554-0.025-0.886-0.551c-0.328-0.509-0.537-1.427-0.201-2.37
					c0.341-0.942,1.087-1.516,1.664-1.7c0.591-0.195,0.986-0.062,1.034,0.139c0.088,0.413-0.871,1.026-1.228,2.09
					C306.137,214.469,306.486,215.553,306.155,215.815z"/>
			</g>
		</g>
		<g>
			<g style="opacity:0.1;">
				<path d="M285.78,215.194c-1.552,0-2.811,1.258-2.811,2.811s1.258,2.811,2.811,2.811s2.811-1.258,2.811-2.811
					S287.332,215.194,285.78,215.194z"/>
			</g>
			<path style="fill:#F5F5F5;" d="M288.772,216.456c0,1.752-1.42,3.173-3.173,3.173c-1.752,0-3.173-1.42-3.173-3.173
				s1.421-3.173,3.173-3.173C287.352,213.283,288.772,214.704,288.772,216.456z"/>
			<g>
				<path style="fill:#FFFFFF;" d="M283.89,218.426c-0.164,0.124-0.554-0.025-0.886-0.551c-0.328-0.509-0.537-1.427-0.201-2.37
					c0.341-0.942,1.087-1.516,1.664-1.7c0.591-0.195,0.986-0.062,1.034,0.139c0.088,0.413-0.871,1.026-1.228,2.09
					C283.871,217.079,284.221,218.163,283.89,218.426z"/>
			</g>
		</g>
		<g>
			<g style="opacity:0.1;">
				<path d="M328.834,208.302c-1.552,0-2.811,1.258-2.811,2.811c0,1.552,1.259,2.811,2.811,2.811s2.811-1.258,2.811-2.811
					C331.645,209.56,330.387,208.302,328.834,208.302z"/>
			</g>
			<path style="fill:#F5F5F5;" d="M331.826,209.564c0,1.752-1.421,3.173-3.173,3.173c-1.752,0-3.173-1.421-3.173-3.173
				c0-1.752,1.421-3.173,3.173-3.173C330.406,206.391,331.826,207.811,331.826,209.564z"/>
			<g>
				<path style="fill:#FFFFFF;" d="M326.944,211.533c-0.164,0.124-0.554-0.025-0.886-0.551c-0.328-0.509-0.537-1.427-0.201-2.37
					c0.341-0.942,1.087-1.516,1.664-1.7c0.591-0.195,0.986-0.062,1.034,0.139c0.088,0.413-0.871,1.026-1.227,2.09
					C326.926,210.187,327.275,211.27,326.944,211.533z"/>
			</g>
		</g>
		<g>
			<g style="opacity:0.1;">
				<path d="M170.16,208.262c-1.552,0-2.811,1.258-2.811,2.811c0,1.552,1.258,2.811,2.811,2.811c1.552,0,2.811-1.258,2.811-2.811
					C172.971,209.52,171.713,208.262,170.16,208.262z"/>
			</g>
			<path style="fill:#F5F5F5;" d="M173.152,209.524c0,1.752-1.421,3.173-3.173,3.173c-1.752,0-3.173-1.421-3.173-3.173
				c0-1.752,1.421-3.173,3.173-3.173C171.732,206.351,173.152,207.771,173.152,209.524z"/>
			<g>
				<path style="fill:#FFFFFF;" d="M168.27,211.493c-0.164,0.124-0.554-0.025-0.886-0.551c-0.328-0.509-0.537-1.427-0.201-2.37
					c0.341-0.942,1.087-1.516,1.664-1.7c0.591-0.195,0.986-0.062,1.034,0.139c0.088,0.413-0.871,1.026-1.227,2.089
					C168.252,210.147,168.601,211.231,168.27,211.493z"/>
			</g>
		</g>
		<g>
			<g style="opacity:0.1;">
				<path d="M261.571,214.871c-2.08,0-3.766,1.686-3.766,3.766c0,2.08,1.686,3.766,3.766,3.766c2.08,0,3.766-1.686,3.766-3.766
					C265.337,216.558,263.651,214.871,261.571,214.871z"/>
			</g>
			<path style="fill:#F5F5F5;" d="M265.041,216.898c0,2.348-1.903,4.251-4.251,4.251c-2.348,0-4.251-1.903-4.251-4.251
				c0-2.348,1.903-4.251,4.251-4.251C263.138,212.646,265.041,214.55,265.041,216.898z"/>
			<g>
				<path style="fill:#FFFFFF;" d="M258.499,219.537c-0.162,0.123-0.622-0.109-1.009-0.798c-0.384-0.669-0.622-1.835-0.197-3.026
					c0.431-1.19,1.357-1.937,2.079-2.208c0.737-0.285,1.24-0.171,1.286,0.027c0.107,0.407-1.345,1.13-1.895,2.71
					C258.181,217.809,258.841,219.291,258.499,219.537z"/>
			</g>
		</g>
	</g>
	<g>
		<g>
			<g>
				<path style="fill:#FF725E;" d="M319.094,89.185c-0.24-8.884-3.785-17.492-9.106-24.61c-5.214-6.972-12.311-12.731-20.625-15.316
					c-8.832-2.745-18.778-1.681-26.827,2.872c-4.788,2.708-8.864,6.627-11.842,11.248c-2.135-4.516-5.238-8.574-9.095-11.75
					c-7.139-5.879-16.751-8.65-25.923-7.476c-8.637,1.105-16.624,5.548-22.966,11.511c-6.474,6.088-11.457,13.952-13.231,22.66
					c-2.222,10.907-1.144,23.152,3.74,33.153c5.159,10.563,14.2,19.519,23.702,26.436c15.979,11.632,37.074,26.292,37.074,26.292
					s19.995-12.399,37.748-21.087c10.557-5.167,21.014-12.42,27.923-21.929C316.21,112.185,319.392,100.311,319.094,89.185z"/>
			</g>
		</g>
		<g style="opacity:0.3;">
			<g>
				<path d="M176.339,71.371c2.699-0.708,5.683-0.253,8.048,1.228c1.278,0.8,2.364,1.894,3.179,3.162
					c0.711-1.499,1.778-2.83,3.106-3.827c2.231-1.676,5.166-2.381,7.916-1.903c2.588,0.45,4.936,1.897,6.768,3.781
					c1.869,1.923,3.265,4.361,3.682,7.01c0.522,3.318,0.032,6.995-1.576,9.944c-1.697,3.114-4.544,5.691-7.502,7.649
					c-4.974,3.291-10.475,7.779-10.475,7.779s-4.668-2.494-9.903-5.353c0,0-0.83-3.758-1.206-7.342
					C178.001,89.915,176.339,71.371,176.339,71.371z"/>
			</g>
		</g>
		<g>
			<g>
				<g>
					<path style="fill:#FF725E;" d="M209.038,75.47c-0.417-2.649-1.813-5.087-3.682-7.01c-1.831-1.883-4.18-3.331-6.768-3.781
						c-2.75-0.478-5.684,0.228-7.916,1.903c-1.327,0.997-2.394,2.328-3.106,3.827c-0.815-1.268-1.901-2.362-3.179-3.162
						c-2.365-1.481-5.349-1.937-8.048-1.228c-2.542,0.667-4.759,2.307-6.424,4.338c-1.7,2.074-2.885,4.621-3.077,7.296
						c-0.24,3.35,0.559,6.972,2.409,9.775c1.955,2.96,5.009,5.288,8.121,6.988c5.234,2.859,12.117,6.425,12.117,6.425
						s5.501-4.488,10.475-7.779c2.958-1.957,5.805-4.534,7.502-7.648C209.07,82.464,209.56,78.787,209.038,75.47z"/>
				</g>
			</g>
			<g style="opacity:0.4;">
				<g>
					<path style="fill:#FFFFFF;" d="M209.038,75.47c-0.417-2.649-1.813-5.087-3.682-7.01c-1.831-1.883-4.18-3.331-6.768-3.781
						c-2.75-0.478-5.684,0.228-7.916,1.903c-1.327,0.997-2.394,2.328-3.106,3.827c-0.815-1.268-1.901-2.362-3.179-3.162
						c-2.365-1.481-5.349-1.937-8.048-1.228c-2.542,0.667-4.759,2.307-6.424,4.338c-1.7,2.074-2.885,4.621-3.077,7.296
						c-0.24,3.35,0.559,6.972,2.409,9.775c1.955,2.96,5.009,5.288,8.121,6.988c5.234,2.859,12.117,6.425,12.117,6.425
						s5.501-4.488,10.475-7.779c2.958-1.957,5.805-4.534,7.502-7.648C209.07,82.464,209.56,78.787,209.038,75.47z"/>
				</g>
			</g>
		</g>
		<g style="opacity:0.3;">
			<g>
				<path d="M227.641,46.484c-0.237-1.503-1.029-2.887-2.09-3.978c-1.039-1.069-2.372-1.89-3.841-2.145
					c-1.561-0.271-3.226,0.129-4.492,1.08c-0.753,0.566-1.359,1.321-1.762,2.172c-0.462-0.72-1.079-1.34-1.804-1.795
					c-1.342-0.841-3.036-1.099-4.567-0.697c-1.442,0.379-2.701,1.309-3.646,2.462c-0.965,1.177-1.638,2.622-1.747,4.14
					c-0.136,1.901,0.317,3.957,1.367,5.547c1.109,1.68,2.842,3.001,4.609,3.966c2.971,1.622,6.877,3.646,6.877,3.646
					s3.122-2.547,5.945-4.415c1.679-1.111,3.294-2.573,4.258-4.341C227.659,50.453,227.937,48.367,227.641,46.484z"/>
			</g>
		</g>
		<g>
			<g>
				<g>
					<path style="fill:#FF725E;" d="M228.211,43.219c-0.248-1.575-1.078-3.025-2.19-4.168c-1.089-1.12-2.485-1.98-4.024-2.248
						c-1.635-0.284-3.38,0.136-4.707,1.132c-0.789,0.593-1.424,1.384-1.847,2.276c-0.484-0.754-1.131-1.405-1.89-1.88
						c-1.406-0.881-3.181-1.152-4.786-0.73c-1.511,0.396-2.83,1.372-3.82,2.58c-1.011,1.233-1.716,2.748-1.83,4.338
						c-0.143,1.992,0.332,4.146,1.433,5.813c1.162,1.76,2.979,3.145,4.829,4.156c3.112,1.7,7.205,3.82,7.205,3.82
						s3.271-2.669,6.229-4.626c1.759-1.164,3.452-2.696,4.461-4.548C228.23,47.378,228.522,45.192,228.211,43.219z"/>
				</g>
			</g>
			<g style="opacity:0.4;">
				<g>
					<path style="fill:#FFFFFF;" d="M228.211,43.219c-0.248-1.575-1.078-3.025-2.19-4.168c-1.089-1.12-2.485-1.98-4.024-2.248
						c-1.635-0.284-3.38,0.136-4.707,1.132c-0.789,0.593-1.424,1.384-1.847,2.276c-0.484-0.754-1.131-1.405-1.89-1.88
						c-1.406-0.881-3.181-1.152-4.786-0.73c-1.511,0.396-2.83,1.372-3.82,2.58c-1.011,1.233-1.716,2.748-1.83,4.338
						c-0.143,1.992,0.332,4.146,1.433,5.813c1.162,1.76,2.979,3.145,4.829,4.156c3.112,1.7,7.205,3.82,7.205,3.82
						s3.271-2.669,6.229-4.626c1.759-1.164,3.452-2.696,4.461-4.548C228.23,47.378,228.522,45.192,228.211,43.219z"/>
				</g>
			</g>
		</g>
		<g style="opacity:0.3;">
			<g>
				<path d="M308.08,60.512c-0.237-1.503-1.029-2.887-2.09-3.978c-1.039-1.069-2.372-1.89-3.841-2.145
					c-1.56-0.271-3.226,0.129-4.492,1.08c-0.753,0.566-1.359,1.321-1.763,2.172c-0.462-0.72-1.079-1.34-1.804-1.795
					c-1.342-0.841-3.036-1.099-4.567-0.697c-1.442,0.378-2.701,1.309-3.646,2.462c-0.965,1.177-1.638,2.622-1.746,4.14
					c-0.137,1.901,0.317,3.957,1.367,5.547c1.109,1.68,2.843,3.001,4.609,3.966c2.97,1.623,6.877,3.646,6.877,3.646
					s3.122-2.547,5.945-4.415c1.679-1.111,3.294-2.573,4.258-4.341C308.098,64.481,308.376,62.395,308.08,60.512z"/>
			</g>
		</g>
		<g>
			<g>
				<g>
					<path style="fill:#FF725E;" d="M308.65,57.247c-0.248-1.575-1.078-3.025-2.19-4.168c-1.089-1.12-2.485-1.98-4.024-2.248
						c-1.635-0.284-3.38,0.136-4.707,1.132c-0.789,0.593-1.424,1.384-1.847,2.276c-0.484-0.754-1.13-1.405-1.89-1.881
						c-1.406-0.881-3.181-1.152-4.786-0.73c-1.511,0.396-2.83,1.372-3.82,2.58c-1.011,1.233-1.716,2.748-1.83,4.338
						c-0.143,1.992,0.332,4.146,1.433,5.813c1.162,1.76,2.978,3.144,4.829,4.156c3.112,1.7,7.205,3.821,7.205,3.821
						s3.271-2.669,6.229-4.626c1.759-1.164,3.452-2.696,4.461-4.548C308.669,61.406,308.961,59.22,308.65,57.247z"/>
				</g>
			</g>
			<g style="opacity:0.4;">
				<g>
					<path style="fill:#FFFFFF;" d="M308.65,57.247c-0.248-1.575-1.078-3.025-2.19-4.168c-1.089-1.12-2.485-1.98-4.024-2.248
						c-1.635-0.284-3.38,0.136-4.707,1.132c-0.789,0.593-1.424,1.384-1.847,2.276c-0.484-0.754-1.13-1.405-1.89-1.881
						c-1.406-0.881-3.181-1.152-4.786-0.73c-1.511,0.396-2.83,1.372-3.82,2.58c-1.011,1.233-1.716,2.748-1.83,4.338
						c-0.143,1.992,0.332,4.146,1.433,5.813c1.162,1.76,2.978,3.144,4.829,4.156c3.112,1.7,7.205,3.821,7.205,3.821
						s3.271-2.669,6.229-4.626c1.759-1.164,3.452-2.696,4.461-4.548C308.669,61.406,308.961,59.22,308.65,57.247z"/>
				</g>
			</g>
		</g>
		<g style="opacity:0.3;">
			<path d="M284.046,105.458c7.021,1.366,14.669-1.111,19.556-6.334c1.903-2.034,3.418-5.174,1.88-7.496
				c-0.727-1.097-1.972-1.715-3.159-2.283c-9-4.311-18.001-8.622-27.002-12.933l-15.812-1.513c-4.085,1.171-6.736,5.34-7.401,9.537
				c-0.665,4.197,0.271,8.465,1.202,12.611c1.869,8.324,3.739,16.647,5.608,24.971c0.54,2.404,1.083,4.84,1.004,7.302
				c-0.23,7.222-5.577,13.081-8.919,19.488c-1.875,3.594-1.397,8.168-0.338,12.081c0,0,5.821-5.274,9.725-6.368
				c1.653-0.464,0.617,10.456,1.934,9.355c8.827-7.378,17.654-14.755,26.481-22.133c3.414-2.853,7.079-6.156,7.56-10.579
				c0.466-4.284-2.289-8.304-5.581-11.086c-3.291-2.782-7.209-4.768-10.395-7.67c-1.872-1.705-3.447-4.806-1.604-6.542
				C280.121,104.608,282.246,105.107,284.046,105.458z"/>
		</g>
		<g style="opacity:0.3;">
			<path d="M245.891,80.057c-1.764-3.039-4.724-5.601-8.219-5.959c-3.709-0.38-7.174,1.704-10.318,3.707
				c-1.663,1.059-3.398,2.193-4.329,3.932c-1.781,3.324,0,7.363,1.778,10.688c1.778,3.325,3.593,7.335,1.866,10.687l-19.292,34.684
				c5.276,4.843,11.182,9,17.522,12.332c7.87-12.824,13.37-26.933,18.827-40.956c1.829-4.701,3.672-9.45,4.41-14.44
				C248.874,89.743,248.423,84.42,245.891,80.057z"/>
		</g>
		<g>
			<path style="fill:#FFFFFF;" d="M277.243,76.018L273.654,79c1.218,7.205,3.316,14.262,6.232,20.962
				c0.476,1.095,1.039,2.252,2.084,2.829c1.386,0.766,3.125,0.246,4.524-0.495c1.399-0.741,2.755-1.713,4.332-1.856
				c1.303-0.118,2.588,0.353,3.896,0.399c1.914,0.067,3.837-0.843,4.998-2.366c0.629-0.825,1.051-1.818,1.819-2.516
				c1.197-1.087,2.944-1.222,4.496-1.674c0.038-0.011,0.076-0.022,0.114-0.034c5.141-1.566,4.829-8.972-0.403-10.201
				C296.134,81.79,286.62,79.11,277.243,76.018z"/>
			<path style="fill:#FF725E;" d="M240.154,104.925c-0.121-0.849-0.434-1.666-0.94-2.203c-0.214-0.227-0.505-0.406-0.754-0.254
				c-0.169,0.103-0.272,0.333-0.36,0.552c-0.281,0.701-0.519,1.432-0.711,2.184l0.215,1.275c0.119,0.669,0.248,1.366,0.584,1.885
				c0.336,0.519,0.948,0.788,1.375,0.408c0.308-0.275,0.435-0.791,0.515-1.276C240.217,106.653,240.275,105.774,240.154,104.925z"/>
			<path style="fill:#FFBF9D;" d="M195.96,120.052c-0.929,0.696-2.116,0.934-3.267,1.08c-1.151,0.145-2.331,0.222-3.406,0.658
				c-1.075,0.437-2.052,1.326-2.222,2.474c-0.212,1.432,0.92,2.788,2.263,3.329c1.343,0.541,2.844,0.459,4.289,0.369
				c-0.078,0.395-0.156,0.799-0.098,1.197c0.058,0.398,0.279,0.796,0.649,0.956c0.597,0.258,1.252-0.184,1.727-0.628
				c1.116-1.043,2.079-2.247,2.852-3.565L195.96,120.052z"/>
			<path style="fill:#FFBF9D;" d="M263.323,100.187c0.271,0.072-0.757,6.578-0.757,6.578c2.422,0.03,6.14-0.266,8.557-0.429
				c-0.176-0.148-0.095-6.514-0.095-6.514L263.323,100.187z"/>
			<path style="fill:#EBEBEB;" d="M248.444,182.24c0,0,2.118-44.636,23.472-57.088l7.765-5.555c0,0,16.942-1.724,34.237,20.115
				c17.295,21.839,16.766,35.632,16.766,35.632s-5.471,5.555-11.295,5.172l-4.059-0.958c0,0-5.824,8.238-18.883,4.215
				c0,0-12.706,12.452-23.648,2.107C272.798,185.88,256.386,191.627,248.444,182.24z"/>
			<path style="fill:#EBEBEB;" d="M262.301,104.133c-0.133,0.531-3.404,9.274-1.414,12.856c1.99,3.582,11.125,10,11.125,10
				l11.383-7.391c0,0-7.649-6.323-8.445-9.773c-0.796-3.45-2.123-6.899-2.123-6.899L262.301,104.133z"/>
			<path style="fill:#FFBF9D;" d="M272.827,102.925c0,0-4.144,0.54-2.282,5.122c1.861,4.582,29.923,17.753,29.923,17.753l3.15-5.588
				C303.618,120.212,276.255,101.097,272.827,102.925z"/>
			<path style="fill:#FFBF9D;" d="M300.36,125.92c0.772,1.317,1.736,2.522,2.852,3.565c0.475,0.444,1.13,0.886,1.727,0.628
				c0.369-0.159,0.591-0.558,0.649-0.956c0.058-0.398-0.02-0.802-0.098-1.197c1.445,0.09,2.946,0.172,4.289-0.369
				c1.343-0.541,2.475-1.897,2.263-3.329c-0.17-1.148-1.147-2.037-2.222-2.474c-1.075-0.437-2.255-0.513-3.406-0.658
				c-1.151-0.145-2.338-0.384-3.267-1.08"/>
			<g>
				<path style="fill:#FFBF9D;" d="M279.491,84.082c0.258-2.284-0.425-5.443-2.452-7.662c-1.572-1.721-4.364-2.815-6.71-3.161
					c-2.465-0.365-5.049-0.535-7.399,0.272c-2.552,0.877-4.584,2.846-5.966,5.099c-1.382,2.254-2.179,4.793-2.878,7.324
					c-0.811,2.938-1.498,6.106-0.431,8.966c0.832,2.23,2.686,4.025,4.863,5.113c2.177,1.088,4.658,1.514,7.109,1.538
					c2.394,0.024,4.859-0.346,6.909-1.544c2.212-1.293,3.765-3.456,4.743-5.771c0.978-2.315,1.433-4.799,1.883-7.262"/>
				<path style="fill:#FFBF9D;" d="M255.195,85.623c-0.445-0.546-1.002-1-1.627-1.324c-0.455-0.236-1.027-0.398-1.465-0.131
					c-0.31,0.189-0.475,0.563-0.486,0.926c-0.011,0.363,0.113,0.718,0.273,1.045c0.378,0.768,1.516,2.09,2.101,2.776"/>
				<g>
					<g>
						<path style="fill:#263238;" d="M262.292,83.905c-0.342,0.193-0.772,0.135-1.199,0.012c-0.43-0.13-0.866-0.328-1.307-0.595
							c-0.443-0.262-0.825-0.552-1.142-0.87c-0.31-0.318-0.565-0.67-0.556-1.062c0.007-0.381,0.329-0.742,0.928-0.892
							c0.59-0.152,1.443-0.052,2.215,0.41c0.771,0.461,1.264,1.165,1.409,1.757C262.79,83.264,262.625,83.718,262.292,83.905z"/>
					</g>
				</g>
				<g>
					<path style="fill:#FF725E;" d="M262.031,90.007c0,0.939-0.883,1.7-1.972,1.7c-1.089,0-1.972-0.761-1.972-1.7
						c0-0.939,0.883-1.7,1.972-1.7C261.148,88.307,262.031,89.068,262.031,90.007z"/>
				</g>
				<g>
					<path style="fill:#263238;" d="M256.141,90.626c0.056,0.037,0.004,0.252-0.236,0.503c-0.232,0.248-0.677,0.51-1.226,0.524
						c-0.549,0.013-1.007-0.226-1.251-0.462c-0.252-0.239-0.314-0.451-0.26-0.491c0.105-0.094,0.662,0.457,1.499,0.432
						C255.502,91.115,256.031,90.537,256.141,90.626z"/>
				</g>
				<path style="fill:#263238;" d="M260.741,74.304c-0.102,1.238,0.389,3.206,1.436,3.874c0.345,0.22,0.746,0.394,0.963,0.741
					c0.24,0.384,0.188,0.873,0.225,1.325c0.117,1.46,1.363,2.75,2.818,2.916c-0.771,1.718-1.554,3.652-0.922,5.425
					c0.425,1.191,1.444,2.095,2.578,2.654c1.134,0.559,2.389,0.818,3.628,1.071c1.099,0.225,2.207,0.45,3.328,0.463
					c1.122,0.013,2.272-0.199,3.225-0.792c1.303-0.812,1.467-0.831,2.002-2.27c1.437-3.867,1.321-9.073-1.154-12.374
					c-1.788-2.385-4.801-4.158-7.722-4.751C268.226,71.993,262.35,71.951,260.741,74.304"/>
				<path style="fill:#263238;" d="M272.451,91.491c-1.848,2.521-2.134,6.096-0.712,8.88c2.69-0.528,4.941-2.49,6.344-4.844
					c1.404-2.354,2.055-5.079,2.479-7.786L272.451,91.491z"/>
				<path style="fill:#FFBF9D;" d="M271.48,85.136c-1.224-0.833-2.976-0.557-4.127,0.374c-1.151,0.931-1.773,2.383-2.044,3.838
					l0.211,3.562c0.645,1.101,1.998,1.693,3.268,1.565c1.27-0.127,2.425-0.907,3.154-1.954c0.729-1.047,1.058-2.338,1.088-3.613
					C273.064,87.49,272.653,85.934,271.48,85.136z"/>
				<g>
					<path style="fill:#263238;" d="M267.738,91.489c0.023-0.084,0.561,0.234,1.322-0.072c0.365-0.149,0.719-0.49,0.79-0.991
						c0.086-0.486-0.126-1.094-0.632-1.303c-0.476-0.206-1.07-0.069-1.339,0.27l-0.646,0.812l0.217-1.007
						c0.208-0.965,0.782-1.622,1.234-1.958c0.462-0.343,0.798-0.411,0.815-0.368c0.028,0.056-0.253,0.217-0.62,0.591
						c-0.363,0.368-0.811,0.993-0.953,1.825l-0.428-0.195c0.414-0.545,1.233-0.743,1.927-0.447c0.786,0.339,1.045,1.233,0.896,1.867
						c-0.124,0.679-0.674,1.128-1.138,1.251c-0.473,0.144-0.877,0.064-1.118-0.033C267.821,91.628,267.722,91.516,267.738,91.489z"
						/>
				</g>
				<path style="fill:#263238;" d="M280.293,88.065c-0.361-2.134,0.997-4.43,3.041-5.142c2.044-0.712,4.535,0.244,5.577,2.141
					c0.69,1.256,0.761,2.77,0.544,4.186c-0.387,2.525-1.662,4.905-3.548,6.627c-0.734,0.67-1.595,1.258-2.577,1.41
					c-1.277,0.198-2.536-0.363-3.707-0.91c-0.725-0.339-1.459-0.683-2.079-1.19c-0.62-0.507-1.124-1.201-1.237-1.994"/>
				<g>
					<path style="fill:#263238;" d="M262.645,85.799c0.042,0.054-0.207,0.353-0.694,0.761c-0.481,0.389-1.282,0.942-2.348,0.942
						c-0.527,0.001-1.027-0.193-1.388-0.455c-0.367-0.261-0.617-0.572-0.796-0.842c-0.352-0.548-0.439-0.939-0.382-0.967
						c0.07-0.036,0.278,0.294,0.674,0.743c0.389,0.439,1.035,1.004,1.897,1c0.865,0.006,1.612-0.417,2.13-0.723
						C262.262,85.942,262.599,85.74,262.645,85.799z"/>
				</g>
				<g>
					<path style="fill:#263238;" d="M262.509,87.427c-0.111,0.091-0.356-0.022-0.547-0.254c-0.191-0.232-0.256-0.494-0.145-0.586
						c0.111-0.091,0.356,0.022,0.547,0.255C262.555,87.074,262.62,87.336,262.509,87.427z"/>
				</g>
			</g>
			<path style="fill:#FFBF9D;" d="M235.783,100.187c-0.271,0.072,0.757,6.578,0.757,6.578c-2.422,0.03-6.141-0.266-8.557-0.429
				c0.176-0.148,0.095-6.514,0.095-6.514L235.783,100.187z"/>
			<path style="fill:#FFFFFF;" d="M236.54,104.659c0.133,0.531,0.052,8.301-1.938,11.883c-1.99,3.582-13.678,26.636-13.678,26.636
				l-5.213-23.581c0,0,7.649-6.323,8.445-9.773c0.796-3.45,2.123-6.899,2.123-6.899l7.518-0.921L236.54,104.659z"/>
			<path style="fill:#263238;" d="M226.279,102.925c0,0,4.144,0.54,2.282,5.122c-1.861,4.582-29.517,18.941-29.517,18.941
				l-3.896-7.018C195.148,119.97,222.851,101.097,226.279,102.925z"/>
			<g>
				<path style="fill:#FFBF9D;" d="M219.615,84.082c-0.258-2.284,0.425-5.443,2.452-7.662c1.572-1.721,4.364-2.815,6.71-3.161
					c2.465-0.365,5.049-0.535,7.399,0.272c2.552,0.877,4.584,2.846,5.966,5.099c1.382,2.254,2.179,4.793,2.878,7.324
					c0.811,2.938,1.498,6.106,0.431,8.966c-0.832,2.23-2.686,4.025-4.863,5.113c-2.177,1.088-4.584,0.838-7.034,0.863
					c-2.394,0.024-4.137,0.672-6.187-0.527c-2.212-1.293-4.562-3.798-5.54-6.113c-0.978-2.315-1.433-4.799-1.883-7.262"/>
				<path style="fill:#FFBF9D;" d="M243.911,85.623c0.445-0.546,1.002-1,1.627-1.324c0.455-0.236,1.027-0.398,1.465-0.131
					c0.31,0.189,0.475,0.563,0.486,0.926c0.011,0.363-0.113,0.718-0.273,1.045c-0.378,0.768-1.516,2.09-2.101,2.776"/>
				<g>
					<g>
						<path style="fill:#263238;" d="M236.814,83.905c0.342,0.193,0.772,0.135,1.199,0.012c0.43-0.13,0.866-0.328,1.307-0.595
							c0.443-0.262,0.825-0.552,1.142-0.87c0.31-0.318,0.565-0.67,0.556-1.062c-0.007-0.381-0.329-0.742-0.928-0.892
							c-0.59-0.152-1.443-0.052-2.215,0.41c-0.771,0.461-1.264,1.165-1.408,1.757C236.316,83.264,236.482,83.718,236.814,83.905z"/>
					</g>
				</g>
				<g>
					<ellipse style="fill:#FF725E;" cx="239.047" cy="90.007" rx="1.972" ry="1.7"/>
				</g>
				<g>
					<path style="fill:#263238;" d="M242.965,90.626c0.11-0.089,0.639,0.489,1.475,0.507c0.836,0.024,1.393-0.527,1.499-0.432
						c0.054,0.04-0.009,0.252-0.261,0.491c-0.244,0.236-0.702,0.475-1.251,0.462c-0.549-0.015-0.994-0.277-1.226-0.524
						C242.961,90.878,242.91,90.662,242.965,90.626z"/>
				</g>
				<path style="fill:#263238;" d="M238.365,74.304c0.102,1.238-0.389,3.206-1.436,3.874c-0.345,0.22-0.746,0.394-0.963,0.741
					c-0.24,0.384-4.031,0.334-4.067,0.786c-0.117,1.46,0.364,1.96,1.024,3.456c0.771,1.718,1.554,3.652,0.922,5.425
					c-0.425,1.191-1.444,2.095-2.578,2.654c-1.134,0.559-2.389,0.818-3.628,1.071c-1.099,0.225-2.207,0.45-3.329,0.463
					c-1.122,0.013-2.272-0.199-3.225-0.792c-1.303-0.812-1.467-0.831-2.002-2.27c-1.437-3.867-1.321-9.073,1.154-12.374
					c1.788-2.385,4.801-4.158,7.722-4.751C230.88,71.993,236.757,71.951,238.365,74.304"/>
				<path style="fill:#263238;" d="M229.481,92.774c-0.489,2.508-0.691,4.812-2.113,7.596c-2.69-0.528-5.918-5.887-7.321-8.241
					c-1.404-2.354-1.096-3.822-1.503-4.39L229.481,92.774z"/>
				<path style="fill:#FFBF9D;" d="M227.626,85.136c1.224-0.833,2.976-0.557,4.127,0.374c1.151,0.931,1.773,2.383,2.044,3.838
					l-0.212,3.562c-0.645,1.101-1.998,1.693-3.268,1.565c-1.27-0.127-2.425-0.907-3.154-1.954c-0.729-1.047-1.058-2.338-1.088-3.613
					C226.042,87.49,226.453,85.934,227.626,85.136z"/>
				<g>
					<path style="fill:#263238;" d="M231.368,91.489c0.016,0.027-0.083,0.139-0.328,0.242c-0.241,0.098-0.645,0.178-1.118,0.033
						c-0.464-0.122-1.014-0.571-1.138-1.251c-0.148-0.634,0.111-1.528,0.896-1.867c0.694-0.295,1.514-0.098,1.927,0.447
						l-0.428,0.195c-0.142-0.832-0.59-1.457-0.953-1.825c-0.368-0.374-0.648-0.535-0.62-0.591c0.017-0.043,0.353,0.026,0.815,0.368
						c0.453,0.336,1.026,0.993,1.234,1.958l0.217,1.007l-0.645-0.812c-0.27-0.339-0.863-0.477-1.339-0.27
						c-0.506,0.209-0.719,0.817-0.632,1.303c0.071,0.501,0.425,0.842,0.79,0.991C230.807,91.724,231.345,91.405,231.368,91.489z"/>
				</g>
				<g>
					<path style="fill:#263238;" d="M236.461,85.799c0.046-0.06,0.383,0.142,0.906,0.459c0.518,0.305,1.265,0.728,2.13,0.723
						c0.862,0.004,1.508-0.56,1.897-1c0.396-0.448,0.604-0.779,0.674-0.743c0.057,0.028-0.03,0.419-0.382,0.967
						c-0.178,0.27-0.429,0.581-0.796,0.842c-0.36,0.262-0.861,0.456-1.388,0.455c-1.066,0-1.867-0.553-2.348-0.942
						C236.668,86.152,236.42,85.854,236.461,85.799z"/>
				</g>
			</g>
			<path style="fill:#263238;" d="M240.794,70.711c-0.462-1.336-1.674-2.424-3.077-2.593c-1.404-0.169-2.907,0.682-3.355,2.023
				c-0.651-0.949-2.047-1.233-3.083-0.733c-1.036,0.5-1.671,1.662-1.68,2.812c-0.01,1.15,0.548,2.263,1.371,3.066l5.093,3.634
				c3.637-1.587,3.999-2.761,4.719-3.978C241.5,73.726,241.256,72.047,240.794,70.711z"/>
			<path style="fill:#263238;" d="M202.658,127.107c0,0-3.842,5.378-8.004,12.229c-5.045,8.305-15.787,20.233-15.787,20.233
				l4.002,4.892c0,0,6.252-6.156,9.881-10.257l4.733-5.364l-9.466,16.828l5.73,3.19l14.079-25.68l12.686,1.981l11.448-23.592
				l1.837-19.563l-6.43-1.634l-1.974,2.555L202.658,127.107z"/>
			<path style="fill:#263238;" d="M201.546,142.005c-0.222,1.556,1.556,42.468,1.556,42.468h11.34l4.447-42.468H201.546z"/>
			<path style="fill:#FF725E;" d="M233.012,110.363c-0.013,0.142,1.987,5.351,1.987,5.351l-3.038,5.853L233.012,110.363z"/>
			<path style="fill:#FF725E;" d="M236.546,103.076c-0.203-0.276-0.48-0.551-0.866-0.612c-0.402-0.064-0.814,0.135-1.049,0.41
				c-0.235,0.275-0.325,0.615-0.392,0.946c-0.317,1.581-0.195,3.22,0.353,4.758c0.052,0.146,0.117,0.302,0.269,0.39
				c0.195,0.113,0.476,0.072,0.667-0.045s0.312-0.295,0.422-0.468c0.53-0.833,0.957-1.71,1.273-2.613l0.041-0.253
				C237.353,104.718,237.098,103.825,236.546,103.076z"/>
			<path style="fill:#FF725E;" d="M238.011,104.914c-0.052-0.147-0.119-0.292-0.225-0.406c-0.106-0.114-0.258-0.194-0.413-0.184
				c-0.175,0.011-0.328,0.133-0.422,0.282c-0.093,0.149-0.137,0.322-0.18,0.493l-0.163,1.192c-0.005,0.292,0.181,0.578,0.45,0.693
				c0.269,0.115,0.604,0.05,0.811-0.156c0.193-0.192,0.266-0.474,0.29-0.745C238.195,105.689,238.144,105.287,238.011,104.914z"/>
			<path style="fill:#455A64;" d="M225.042,102.452l5.549,2.313c0,0-2.678,5.875-2.608,7.039c0.079,1.32,1.807,3.532,1.917,3.463
				c0,0-1.596,0.698-1.634,1.016c-0.122,1.036,3.624,5.428,3.624,5.428l1.907-19.707l-6.43-1.634L225.042,102.452z"/>
			<polygon style="opacity:0.3;" points="206.587,122.928 221.148,114.301 202.77,126.988 			"/>
			<polygon style="opacity:0.3;" points="197.483,148.84 201.527,142.778 201.864,154.054 193.747,168.859 188.017,165.668 			"/>
			<path style="opacity:0.3;" d="M218.863,144.826c-0.514-0.08-16.093-3.257-16.093-3.257l-1.634,1.796l1.634-1.045l15.483,5.764
				L218.863,144.826z"/>
			<polygon style="fill:#455A64;" points="210.658,132.655 213.258,130.381 220.24,133.38 218.343,136.173 			"/>
			<path style="fill:#455A64;" d="M199.57,120.645c0,0.537-0.435,0.973-0.972,0.973c-0.537,0-0.973-0.436-0.973-0.973
				s0.436-0.973,0.973-0.973C199.135,119.672,199.57,120.107,199.57,120.645z"/>
			<path style="fill:#455A64;" d="M202.034,119.242c0,0.537-0.435,0.973-0.973,0.973c-0.537,0-0.973-0.435-0.973-0.973
				c0-0.537,0.435-0.973,0.973-0.973C201.599,118.269,202.034,118.704,202.034,119.242z"/>
			<g>
				<path style="fill:#263238;" d="M273.018,147.76c0.036,0.004,0.02,0.555-0.039,1.548c-0.065,1.087-0.15,2.502-0.251,4.205
					c-0.205,3.55-0.417,8.458-0.45,13.882c-0.029,5.426,0.127,10.336,0.291,13.889c0.082,1.705,0.151,3.12,0.203,4.208
					c0.048,0.994,0.057,1.545,0.021,1.548c-0.036,0.003-0.113-0.543-0.223-1.533c-0.113-0.99-0.241-2.425-0.369-4.202
					c-0.259-3.553-0.474-8.474-0.445-13.913c0.033-5.437,0.304-10.355,0.603-13.905c0.149-1.775,0.293-3.209,0.417-4.198
					C272.898,148.301,272.982,147.757,273.018,147.76z"/>
			</g>
			<g>
				<path style="fill:#263238;" d="M302.69,146.034c0.134-0.051,3.069,7.343,6.553,16.514c3.485,9.174,6.201,16.649,6.066,16.7
					c-0.134,0.051-3.068-7.342-6.553-16.515C305.272,153.562,302.556,146.085,302.69,146.034z"/>
			</g>
			<g>
				<path style="fill:#263238;" d="M288.56,150.208c0.141-0.031,1.9,7.464,3.929,16.737c2.03,9.276,3.561,16.819,3.421,16.85
					c-0.14,0.031-1.899-7.462-3.929-16.738C289.951,157.782,288.42,150.238,288.56,150.208z"/>
			</g>
		</g>
	</g>
</g>
</svg>
