<?xml version="1.0" encoding="utf-8"?>
<!-- Generator: Adobe Illustrator 27.5.0, SVG Export Plug-In . SVG Version: 6.00 Build 0)  -->
<svg version="1.1" xmlns="http://www.w3.org/2000/svg" xmlns:xlink="http://www.w3.org/1999/xlink" x="0px" y="0px"
	 viewBox="0 0 500 500" style="enable-background:new 0 0 500 500;" xml:space="preserve">
<g id="Background_complete">
	<g>
		<g>
			<g>
				<g>
					<g>
						<path style="fill:#E0E0E0;" d="M443.92,310.196H263.174c-3.232,0-5.862-2.63-5.862-5.862V41.061
							c0-3.232,2.63-5.862,5.862-5.862H443.92c3.232,0,5.862,2.629,5.862,5.862v263.273
							C449.783,307.566,447.153,310.196,443.92,310.196z M263.174,35.449c-3.095,0-5.612,2.518-5.612,5.612v263.273
							c0,3.095,2.518,5.612,5.612,5.612H443.92c3.095,0,5.612-2.517,5.612-5.612V41.061c0-3.094-2.518-5.612-5.612-5.612H263.174z"
							/>
					</g>
				</g>
				<g>
					<g>
						<path style="fill:#E0E0E0;" d="M235.493,310.196H54.746c-3.232,0-5.862-2.63-5.862-5.862V41.061
							c0-3.232,2.629-5.862,5.862-5.862h180.747c3.232,0,5.862,2.629,5.862,5.862v263.273
							C241.355,307.566,238.725,310.196,235.493,310.196z M54.746,35.449c-3.094,0-5.612,2.518-5.612,5.612v263.273
							c0,3.095,2.518,5.612,5.612,5.612h180.747c3.095,0,5.612-2.517,5.612-5.612V41.061c0-3.094-2.518-5.612-5.612-5.612H54.746z"
							/>
					</g>
				</g>
			</g>
			<g>
				<g>
					<rect x="0" y="371.266" style="fill:#E0E0E0;" width="500" height="0.25"/>
				</g>
			</g>
		</g>
		<rect x="51.672" y="385.53" style="fill:#E0E0E0;" width="16.06" height="0.25"/>
		<rect x="170.352" y="382.82" style="fill:#E0E0E0;" width="53.53" height="0.25"/>
		<rect x="68.732" y="394.82" style="fill:#E0E0E0;" width="36.25" height="0.25"/>
		<rect x="378.352" y="382.69" style="fill:#E0E0E0;" width="43.19" height="0.25"/>
		<rect x="430.452" y="382.69" style="fill:#E0E0E0;" width="6.33" height="0.25"/>
		<rect x="316.212" y="388.92" style="fill:#E0E0E0;" width="53.89" height="0.25"/>
	</g>
	<g>
		<g>
			<g>
				<path style="fill:#E0E0E0;" d="M110.393,229.894c-1.922,1.809-3.507,3.94-5.081,6.059c1.086-3.986,1.201-8.233,0.331-12.272
					c-3.457,3.604-5.341,8.669-5.078,13.657c-2.047-4.477-5.02-8.527-8.677-11.823c-0.885,5.173,0.851,10.727,4.523,14.477
					c-4.327-1.644-8.654-3.288-12.98-4.932c-0.499-0.19-1.086-0.373-1.54-0.091c-0.593,0.369-0.535,1.245-0.334,1.914
					c1.14,3.795,4.465,6.62,8.125,8.139c3.66,1.519,7.67,1.924,11.614,2.312l4.459-2.212c6.454-4.18,10.802-11.454,11.428-19.117
					C114.611,226.596,112.314,228.084,110.393,229.894z"/>
			</g>
		</g>
		<g>
			<path style="fill:#EBEBEB;" d="M130.19,246.174c-2.76-3.601-7.207-5.691-11.72-6.154c-4.514-0.463-10.501,0.573-15.128,4.778
				c0.415-0.014-13.146-0.382-18.4,6.008c-4.469,5.435-5.381,15.693-2.622,22.166c2.132,5.005,6.267,8.891,10.696,12.05
				c4.429,3.159,9.254,5.746,13.567,9.062c3.239,2.49,6.753,5.567,10.799,5.004c2.116-0.294,3.99-1.602,5.358-3.243
				c1.367-1.641,2.286-3.604,3.116-5.572c3.092-7.336,5.146-15.075,6.664-22.89c0.7-3.602,1.29-7.26,1.104-10.925
				C133.436,252.794,132.422,249.087,130.19,246.174z"/>
		</g>
		<g>
			<path style="fill:#F0F0F0;" d="M124.602,290.561c-0.637,1.495-1.499,3.16-3.08,3.535c-1.084,0.257-5.166-1.243-6.17-1.728
				c-10.885-5.25-17.956-15.978-23.793-26.56c-1.575-2.855-3.114-5.772-3.916-8.932c-0.709-2.797-0.795-5.833,0.178-8.53
				c-1.098,0.682-2.085,1.492-2.88,2.459c-4.469,5.435-5.381,15.693-2.622,22.166c2.132,5.005,6.267,8.891,10.696,12.05
				c4.429,3.159,9.254,5.746,13.567,9.062c3.239,2.49,6.753,5.567,10.799,5.004c2.116-0.294,3.99-1.602,5.358-3.243
				c1.367-1.641,2.286-3.604,3.116-5.572c3.092-7.336,5.146-15.075,6.664-22.89c0.7-3.602,1.29-7.26,1.104-10.925
				c-0.025-0.503-0.068-1.006-0.126-1.508C133.195,263.5,129.377,279.353,124.602,290.561z"/>
		</g>
		<g>
			<path style="fill:#FFFFFF;" d="M115.567,276.945l-0.526-0.046c-0.157,0.664-0.076,1.382,0.226,1.995
				c0.127,0.259,0.299,0.505,0.543,0.658c0.245,0.153,0.572,0.195,0.821,0.049c0.239-0.14,0.364-0.427,0.365-0.704
				c0.001-0.277-0.107-0.543-0.244-0.783C116.472,277.628,116.058,277.219,115.567,276.945z"/>
		</g>
		<g>
			<path style="fill:#FFFFFF;" d="M118.447,289.181l-0.526-0.046c-0.157,0.664-0.076,1.382,0.225,1.995
				c0.127,0.259,0.299,0.505,0.544,0.658c0.245,0.153,0.572,0.195,0.821,0.049c0.239-0.14,0.364-0.427,0.365-0.704
				c0.001-0.277-0.107-0.543-0.244-0.783C119.352,289.863,118.938,289.454,118.447,289.181z"/>
		</g>
		<g>
			<path style="fill:#FFFFFF;" d="M107.538,286.654l-0.526-0.046c-0.157,0.664-0.076,1.382,0.226,1.995
				c0.127,0.259,0.299,0.505,0.543,0.658c0.245,0.153,0.572,0.195,0.821,0.049c0.239-0.139,0.364-0.427,0.365-0.704
				c0.001-0.277-0.106-0.543-0.244-0.783C108.443,287.336,108.029,286.927,107.538,286.654z"/>
		</g>
		<g>
			<path style="fill:#FFFFFF;" d="M105.083,275.712l-0.526-0.046c-0.157,0.664-0.076,1.382,0.226,1.995
				c0.127,0.259,0.299,0.505,0.543,0.658c0.245,0.153,0.572,0.195,0.821,0.049c0.239-0.139,0.364-0.427,0.365-0.704
				c0.001-0.277-0.107-0.543-0.244-0.783C105.988,276.395,105.573,275.986,105.083,275.712z"/>
		</g>
		<g>
			<path style="fill:#FFFFFF;" d="M94.337,278.397l-0.526-0.046c-0.157,0.664-0.076,1.382,0.225,1.995
				c0.127,0.259,0.299,0.505,0.543,0.658c0.244,0.153,0.572,0.195,0.821,0.049c0.239-0.139,0.364-0.427,0.365-0.704
				c0.001-0.277-0.106-0.543-0.244-0.783C95.243,279.079,94.828,278.67,94.337,278.397z"/>
		</g>
		<g>
			<path style="fill:#FFFFFF;" d="M120.902,265.183l-0.526-0.046c-0.157,0.664-0.076,1.382,0.225,1.995
				c0.127,0.259,0.299,0.505,0.543,0.658c0.245,0.153,0.572,0.195,0.821,0.049c0.239-0.139,0.364-0.427,0.365-0.704
				c0.001-0.277-0.106-0.543-0.244-0.783C121.807,265.865,121.393,265.456,120.902,265.183z"/>
		</g>
		<g>
			<path style="fill:#FFFFFF;" d="M129.284,263.994l-0.526-0.046c-0.157,0.664-0.076,1.382,0.225,1.995
				c0.127,0.259,0.299,0.505,0.544,0.658c0.245,0.153,0.572,0.194,0.821,0.049c0.239-0.139,0.364-0.427,0.365-0.704
				c0.001-0.277-0.107-0.543-0.244-0.783C130.189,264.677,129.775,264.268,129.284,263.994z"/>
		</g>
		<g>
			<path style="fill:#FFFFFF;" d="M125.997,276.106l-0.442-0.288c-0.451,0.512-0.718,1.184-0.741,1.866
				c-0.01,0.288,0.026,0.587,0.169,0.836c0.144,0.25,0.413,0.441,0.701,0.43c0.276-0.01,0.523-0.205,0.654-0.449
				c0.131-0.244,0.162-0.529,0.153-0.806C126.474,277.134,126.302,276.578,125.997,276.106z"/>
		</g>
		<g>
			<path style="fill:#FFFFFF;" d="M97.386,267.969l-0.526-0.046c-0.157,0.664-0.076,1.382,0.225,1.995
				c0.127,0.259,0.299,0.506,0.543,0.658c0.245,0.153,0.572,0.194,0.821,0.049c0.239-0.139,0.364-0.427,0.365-0.704
				c0.001-0.277-0.106-0.543-0.244-0.783C98.291,268.651,97.877,268.242,97.386,267.969z"/>
		</g>
		<g>
			<path style="fill:#FFFFFF;" d="M86.76,265.859l-0.526-0.046c-0.157,0.664-0.076,1.382,0.226,1.995
				c0.127,0.259,0.299,0.505,0.543,0.658c0.245,0.153,0.572,0.195,0.821,0.049c0.239-0.139,0.364-0.427,0.365-0.704
				c0.001-0.276-0.106-0.543-0.244-0.783C87.665,266.541,87.251,266.132,86.76,265.859z"/>
		</g>
		<g>
			<path style="fill:#FFFFFF;" d="M110.112,265.962l-0.526-0.046c-0.157,0.664-0.076,1.382,0.226,1.995
				c0.127,0.259,0.299,0.505,0.543,0.658c0.245,0.153,0.572,0.195,0.821,0.049c0.239-0.139,0.364-0.427,0.365-0.704
				c0.001-0.277-0.106-0.543-0.244-0.783C111.017,266.644,110.603,266.235,110.112,265.962z"/>
		</g>
		<g>
			<path style="fill:#FFFFFF;" d="M114.703,256.122l-0.526-0.046c-0.157,0.664-0.076,1.382,0.225,1.995
				c0.127,0.259,0.299,0.505,0.544,0.658c0.245,0.153,0.572,0.195,0.821,0.049c0.239-0.139,0.364-0.427,0.365-0.704
				c0.001-0.277-0.107-0.543-0.244-0.783C115.608,256.804,115.194,256.395,114.703,256.122z"/>
		</g>
		<g>
			<path style="fill:#FFFFFF;" d="M128.116,253.645l-0.526-0.046c-0.157,0.664-0.076,1.382,0.226,1.995
				c0.127,0.259,0.299,0.505,0.543,0.658c0.245,0.153,0.572,0.195,0.821,0.049c0.239-0.14,0.364-0.427,0.365-0.704
				c0.001-0.277-0.106-0.543-0.244-0.783C129.021,254.327,128.607,253.918,128.116,253.645z"/>
		</g>
		<g>
			<path style="fill:#FFFFFF;" d="M98.36,257.22l-0.508-0.144c-0.278,0.623-0.333,1.344-0.152,2.002
				c0.076,0.278,0.199,0.552,0.411,0.748c0.212,0.196,0.526,0.298,0.798,0.202c0.261-0.092,0.438-0.351,0.49-0.623
				c0.052-0.272-0.003-0.553-0.093-0.815C99.121,258.06,98.791,257.58,98.36,257.22z"/>
		</g>
		<g>
			<path style="fill:#FFFFFF;" d="M106.102,249.518l-0.508-0.144c-0.278,0.623-0.333,1.344-0.152,2.002
				c0.076,0.278,0.199,0.552,0.411,0.748c0.212,0.196,0.526,0.298,0.798,0.202c0.261-0.092,0.438-0.351,0.49-0.623
				c0.052-0.271-0.003-0.553-0.093-0.815C106.864,250.358,106.533,249.879,106.102,249.518z"/>
		</g>
		<g>
			<path style="fill:#FFFFFF;" d="M118.415,245.349l-0.508-0.144c-0.278,0.623-0.333,1.344-0.152,2.002
				c0.076,0.278,0.199,0.553,0.411,0.748c0.212,0.196,0.526,0.298,0.798,0.202c0.261-0.092,0.438-0.351,0.49-0.623
				c0.053-0.271-0.003-0.553-0.093-0.815C119.177,246.189,118.846,245.71,118.415,245.349z"/>
		</g>
		<g>
			<path style="fill:#FFFFFF;" d="M87.12,253.985l-0.508-0.144c-0.278,0.623-0.333,1.344-0.152,2.002
				c0.076,0.278,0.199,0.552,0.411,0.748c0.212,0.196,0.526,0.298,0.798,0.202c0.261-0.092,0.438-0.351,0.491-0.623
				c0.052-0.272-0.003-0.553-0.093-0.815C87.881,254.825,87.551,254.346,87.12,253.985z"/>
		</g>
	</g>
	<g>
		<g>
			<g>
				<path style="fill:#E0E0E0;" d="M155.696,86.451c-2.437,1.014-4.672,2.448-6.893,3.874c2.424-3.346,4.031-7.279,4.643-11.364
					c-4.508,2.151-8.058,6.224-9.574,10.983c-0.334-4.911-1.685-9.751-3.943-14.125c-2.655,4.528-2.992,10.336-0.881,15.141
					c-3.467-3.066-6.935-6.132-10.402-9.198c-0.4-0.354-0.885-0.732-1.408-0.629c-0.685,0.135-0.94,0.976-0.988,1.673
					c-0.273,3.953,1.839,7.771,4.727,10.484c2.888,2.714,6.497,4.508,10.049,6.264l4.953-0.495
					c7.514-1.631,14.151-6.901,17.443-13.85C160.807,84.854,158.133,85.437,155.696,86.451z"/>
			</g>
		</g>
		<g>
			<path style="fill:#EBEBEB;" d="M168.468,108.674c-1.311-4.344-4.733-7.869-8.792-9.896s-10.027-3.172-15.841-0.872
				c0.393,0.133-12.165-5-19.336-0.877c-6.1,3.507-10.576,12.782-10.281,19.812c0.228,5.435,2.724,10.532,5.751,15.051
				c3.028,4.52,6.629,8.644,9.493,13.269c2.151,3.474,4.352,7.593,8.337,8.495c2.083,0.472,4.299-0.09,6.158-1.142
				c1.859-1.052,3.412-2.564,4.883-4.113c5.483-5.772,10.138-12.286,14.318-19.062c1.927-3.123,3.77-6.337,4.891-9.832
				S169.528,112.187,168.468,108.674z"/>
		</g>
		<g>
			<path style="fill:#F0F0F0;" d="M147.566,148.227c-1.124,1.174-2.518,2.427-4.13,2.22c-1.105-0.142-4.394-2.988-5.162-3.795
				c-8.33-8.756-11.157-21.289-12.881-33.251c-0.465-3.227-0.875-6.5-0.509-9.739c0.324-2.867,1.316-5.738,3.179-7.917
				c-1.268,0.25-2.478,0.66-3.563,1.283c-6.1,3.507-10.576,12.782-10.281,19.812c0.228,5.435,2.724,10.532,5.751,15.051
				c3.028,4.52,6.629,8.644,9.493,13.269c2.151,3.474,4.352,7.593,8.337,8.495c2.083,0.472,4.299-0.09,6.158-1.142
				c1.859-1.052,3.412-2.564,4.883-4.113c5.483-5.772,10.138-12.286,14.318-19.062c1.927-3.123,3.77-6.337,4.891-9.832
				c0.154-0.479,0.291-0.965,0.415-1.455C165.162,125.944,155.992,139.427,147.566,148.227z"/>
		</g>
		<g>
			<path style="fill:#FFFFFF;" d="M143.921,132.298l-0.476-0.229c-0.381,0.566-0.559,1.266-0.493,1.946
				c0.028,0.287,0.101,0.579,0.276,0.808c0.175,0.229,0.467,0.384,0.751,0.336c0.273-0.046,0.492-0.271,0.59-0.529
				c0.098-0.258,0.092-0.546,0.048-0.819C144.527,133.257,144.284,132.727,143.921,132.298z"/>
		</g>
		<g>
			<path style="fill:#FFFFFF;" d="M142.295,144.762l-0.476-0.229c-0.381,0.566-0.559,1.266-0.493,1.946
				c0.027,0.287,0.101,0.579,0.276,0.808c0.175,0.229,0.467,0.384,0.751,0.336c0.273-0.046,0.492-0.271,0.59-0.529
				s0.092-0.546,0.048-0.819C142.901,145.721,142.658,145.191,142.295,144.762z"/>
		</g>
		<g>
			<path style="fill:#FFFFFF;" d="M132.981,138.546l-0.476-0.229c-0.381,0.566-0.559,1.267-0.493,1.946
				c0.028,0.287,0.101,0.578,0.276,0.808c0.175,0.229,0.467,0.384,0.751,0.336c0.273-0.046,0.492-0.271,0.59-0.529
				c0.098-0.258,0.092-0.546,0.048-0.819C133.587,139.504,133.344,138.975,132.981,138.546z"/>
		</g>
		<g>
			<path style="fill:#FFFFFF;" d="M134.548,127.442l-0.476-0.229c-0.381,0.566-0.559,1.266-0.494,1.946
				c0.028,0.287,0.101,0.578,0.276,0.808c0.175,0.229,0.467,0.384,0.751,0.336c0.273-0.046,0.492-0.271,0.59-0.529
				c0.098-0.258,0.092-0.546,0.048-0.819C135.154,128.4,134.91,127.871,134.548,127.442z"/>
		</g>
		<g>
			<path style="fill:#FFFFFF;" d="M123.547,126.159l-0.476-0.229c-0.381,0.566-0.559,1.266-0.493,1.946
				c0.028,0.287,0.101,0.578,0.276,0.808c0.175,0.229,0.467,0.384,0.751,0.336c0.273-0.046,0.492-0.271,0.59-0.529
				c0.098-0.258,0.092-0.546,0.048-0.819C124.153,127.117,123.91,126.588,123.547,126.159z"/>
		</g>
		<g>
			<path style="fill:#FFFFFF;" d="M153.066,123.177l-0.476-0.229c-0.381,0.566-0.559,1.267-0.493,1.946
				c0.028,0.287,0.101,0.578,0.276,0.808c0.175,0.229,0.467,0.384,0.751,0.336c0.273-0.046,0.492-0.271,0.59-0.529
				c0.098-0.259,0.092-0.546,0.048-0.819C153.672,124.135,153.429,123.606,153.066,123.177z"/>
		</g>
		<g>
			<path style="fill:#FFFFFF;" d="M161.328,125.025l-0.476-0.229c-0.381,0.566-0.559,1.266-0.494,1.946
				c0.028,0.287,0.101,0.578,0.276,0.808c0.175,0.229,0.467,0.384,0.751,0.336c0.273-0.046,0.492-0.271,0.59-0.529
				c0.098-0.258,0.092-0.546,0.048-0.819C161.934,125.984,161.691,125.455,161.328,125.025z"/>
		</g>
		<g>
			<path style="fill:#FFFFFF;" d="M153.976,135.196l-0.312-0.426c-0.603,0.32-1.089,0.854-1.352,1.484
				c-0.111,0.266-0.183,0.558-0.137,0.842c0.046,0.285,0.231,0.559,0.504,0.65c0.262,0.088,0.561-0.007,0.77-0.189
				c0.209-0.182,0.338-0.438,0.428-0.7C154.059,136.327,154.094,135.745,153.976,135.196z"/>
		</g>
		<g>
			<path style="fill:#FFFFFF;" d="M130.082,117.479l-0.476-0.229c-0.381,0.566-0.559,1.266-0.494,1.946
				c0.028,0.287,0.101,0.578,0.276,0.808c0.175,0.229,0.467,0.384,0.751,0.336c0.273-0.046,0.492-0.271,0.59-0.529
				c0.098-0.258,0.092-0.546,0.048-0.819C130.688,118.438,130.445,117.909,130.082,117.479z"/>
		</g>
		<g>
			<path style="fill:#FFFFFF;" d="M120.885,111.753l-0.476-0.229c-0.381,0.566-0.559,1.266-0.493,1.946
				c0.028,0.287,0.101,0.579,0.276,0.808c0.175,0.229,0.467,0.384,0.751,0.336c0.273-0.046,0.492-0.271,0.59-0.529
				c0.098-0.258,0.092-0.546,0.048-0.819C121.491,112.712,121.248,112.183,120.885,111.753z"/>
		</g>
		<g>
			<path style="fill:#FFFFFF;" d="M142.697,120.096l-0.476-0.229c-0.381,0.566-0.559,1.266-0.493,1.946
				c0.028,0.287,0.101,0.578,0.276,0.808c0.175,0.229,0.467,0.384,0.751,0.336c0.273-0.046,0.492-0.271,0.59-0.529
				c0.098-0.258,0.092-0.546,0.048-0.819C143.302,121.054,143.059,120.525,142.697,120.096z"/>
		</g>
		<g>
			<path style="fill:#FFFFFF;" d="M150.466,112.511l-0.476-0.229c-0.381,0.566-0.559,1.266-0.493,1.946
				c0.028,0.287,0.101,0.578,0.276,0.808c0.175,0.229,0.467,0.384,0.751,0.336c0.273-0.046,0.492-0.271,0.59-0.529
				c0.098-0.258,0.092-0.546,0.048-0.819C151.072,113.469,150.829,112.94,150.466,112.511z"/>
		</g>
		<g>
			<path style="fill:#FFFFFF;" d="M163.89,114.93l-0.476-0.229c-0.381,0.566-0.559,1.266-0.494,1.946
				c0.028,0.287,0.101,0.578,0.276,0.808c0.175,0.229,0.467,0.384,0.751,0.336c0.273-0.046,0.492-0.271,0.59-0.529
				c0.098-0.258,0.092-0.546,0.048-0.819C164.496,115.888,164.253,115.359,163.89,114.93z"/>
		</g>
		<g>
			<path style="fill:#FFFFFF;" d="M134.788,107.767l-0.424-0.314c-0.48,0.485-0.786,1.139-0.849,1.819
				c-0.027,0.287-0.009,0.587,0.12,0.845s0.387,0.465,0.675,0.471c0.277,0.006,0.534-0.174,0.679-0.41
				c0.145-0.235,0.193-0.519,0.2-0.795C135.204,108.822,135.064,108.257,134.788,107.767z"/>
		</g>
		<g>
			<path style="fill:#FFFFFF;" d="M144.752,103.296l-0.425-0.314c-0.48,0.485-0.786,1.139-0.849,1.819
				c-0.027,0.287-0.009,0.587,0.12,0.845c0.129,0.258,0.387,0.465,0.675,0.471c0.277,0.006,0.534-0.174,0.679-0.41
				c0.145-0.235,0.193-0.519,0.2-0.795C145.168,104.35,145.028,103.785,144.752,103.296z"/>
		</g>
		<g>
			<path style="fill:#FFFFFF;" d="M157.744,103.744l-0.425-0.314c-0.48,0.485-0.786,1.139-0.849,1.819
				c-0.027,0.287-0.009,0.587,0.12,0.845c0.129,0.258,0.387,0.465,0.675,0.471c0.276,0.006,0.534-0.174,0.679-0.41
				c0.145-0.236,0.193-0.519,0.2-0.795C158.16,104.798,158.02,104.233,157.744,103.744z"/>
		</g>
		<g>
			<path style="fill:#FFFFFF;" d="M125.415,100.772l-0.425-0.314c-0.48,0.485-0.786,1.139-0.849,1.819
				c-0.027,0.287-0.009,0.587,0.12,0.845c0.129,0.258,0.387,0.465,0.675,0.471c0.276,0.006,0.534-0.174,0.679-0.41
				c0.145-0.235,0.193-0.519,0.2-0.795C125.831,101.826,125.691,101.261,125.415,100.772z"/>
		</g>
	</g>
	<g>
		<g>
			<g>
				<path style="fill:#E0E0E0;" d="M83.905,304.591c0.126,1.52,0.519,3.004,0.911,4.478c-1.411-1.926-3.29-3.507-5.43-4.567
					c0.385,2.861,1.997,5.535,4.347,7.212c-2.761-0.686-5.663-0.8-8.469-0.333c2.021,2.262,5.157,3.477,8.174,3.166
					c-2.301,1.365-4.602,2.729-6.903,4.094c-0.265,0.157-0.56,0.357-0.595,0.663c-0.047,0.401,0.37,0.69,0.745,0.84
					c2.126,0.85,4.601,0.364,6.605-0.744c2.004-1.108,3.631-2.776,5.226-4.419l0.605-2.812c0.433-4.423-1.29-9.007-4.53-12.049
					C83.932,301.496,83.779,303.07,83.905,304.591z"/>
			</g>
		</g>
		<g>
			<path style="fill:#EBEBEB;" d="M98.393,301.5c-2.622-0.048-5.167,1.21-7.001,3.084c-1.834,1.874-3.521,4.954-3.285,8.56
				c0.143-0.193-4.905,5.807-3.907,10.482c0.849,3.977,5.159,8.082,9.079,9.165c3.03,0.837,6.276,0.367,9.299-0.498
				c3.023-0.865,5.929-2.116,8.981-2.872c2.292-0.568,4.948-1.049,6.15-3.082c0.629-1.063,0.712-2.381,0.462-3.59
				c-0.25-1.209-0.806-2.331-1.398-3.415c-2.204-4.039-4.964-7.753-7.951-11.253c-1.377-1.613-2.819-3.197-4.543-4.432
				C102.554,302.415,100.513,301.539,98.393,301.5z"/>
		</g>
		<g>
			<path style="fill:#F0F0F0;" d="M116.451,320.004c0.447,0.826,0.889,1.815,0.49,2.665c-0.274,0.583-2.422,1.888-3.002,2.168
				c-6.292,3.032-13.688,2.367-20.574,1.197c-1.857-0.316-3.731-0.669-5.448-1.445c-1.52-0.686-2.924-1.74-3.793-3.151
				c-0.087,0.742-0.076,1.48,0.075,2.187c0.849,3.977,5.159,8.082,9.079,9.165c3.03,0.837,6.276,0.367,9.299-0.498
				c3.023-0.865,5.929-2.116,8.981-2.872c2.292-0.568,4.948-1.049,6.15-3.082c0.629-1.063,0.712-2.381,0.462-3.59
				c-0.25-1.209-0.806-2.331-1.398-3.415c-2.204-4.039-4.964-7.753-7.951-11.253c-1.377-1.613-2.819-3.197-4.543-4.432
				c-0.236-0.169-0.479-0.331-0.727-0.486C107.308,306.378,113.102,313.81,116.451,320.004z"/>
		</g>
		<g>
			<path style="fill:#FFFFFF;" d="M107.042,319.188l-0.21,0.221c0.244,0.31,0.598,0.532,0.983,0.616
				c0.163,0.036,0.336,0.047,0.493-0.009c0.157-0.056,0.294-0.189,0.318-0.354c0.023-0.158-0.062-0.319-0.187-0.418
				c-0.125-0.1-0.284-0.147-0.442-0.171C107.677,319.024,107.343,319.065,107.042,319.188z"/>
		</g>
		<g>
			<path style="fill:#FFFFFF;" d="M113.611,322.29l-0.21,0.221c0.244,0.31,0.598,0.532,0.983,0.616
				c0.163,0.036,0.336,0.047,0.493-0.009c0.157-0.056,0.294-0.189,0.318-0.354c0.023-0.158-0.062-0.319-0.187-0.418
				c-0.125-0.1-0.284-0.147-0.442-0.171C114.246,322.126,113.911,322.167,113.611,322.29z"/>
		</g>
		<g>
			<path style="fill:#FFFFFF;" d="M108.542,326.313l-0.21,0.221c0.244,0.31,0.598,0.532,0.983,0.616
				c0.163,0.036,0.336,0.047,0.493-0.009c0.157-0.056,0.294-0.189,0.318-0.354c0.023-0.158-0.062-0.319-0.187-0.418
				c-0.125-0.1-0.284-0.147-0.442-0.171C109.176,326.149,108.842,326.189,108.542,326.313z"/>
		</g>
		<g>
			<path style="fill:#FFFFFF;" d="M102.711,323.485l-0.21,0.221c0.244,0.31,0.598,0.532,0.983,0.616
				c0.163,0.036,0.336,0.047,0.493-0.009c0.157-0.056,0.294-0.189,0.318-0.354c0.023-0.158-0.062-0.318-0.187-0.418
				c-0.125-0.1-0.284-0.147-0.442-0.171C103.345,323.321,103.011,323.361,102.711,323.485z"/>
		</g>
		<g>
			<path style="fill:#FFFFFF;" d="M100.056,329.31l-0.21,0.221c0.244,0.31,0.598,0.532,0.983,0.616
				c0.163,0.036,0.336,0.047,0.493-0.009c0.157-0.056,0.294-0.189,0.318-0.354c0.023-0.158-0.062-0.318-0.187-0.418
				c-0.125-0.1-0.284-0.147-0.442-0.171C100.691,329.146,100.357,329.186,100.056,329.31z"/>
		</g>
		<g>
			<path style="fill:#FFFFFF;" d="M103.644,312.542l-0.21,0.221c0.244,0.31,0.598,0.532,0.983,0.616
				c0.163,0.036,0.336,0.047,0.493-0.009c0.157-0.056,0.294-0.189,0.318-0.354c0.023-0.158-0.062-0.318-0.187-0.418
				c-0.125-0.1-0.284-0.147-0.442-0.171C104.279,312.378,103.944,312.418,103.644,312.542z"/>
		</g>
		<g>
			<path style="fill:#FFFFFF;" d="M106.124,308.324l-0.21,0.221c0.244,0.31,0.598,0.532,0.983,0.616
				c0.163,0.036,0.336,0.047,0.493-0.009c0.157-0.056,0.294-0.189,0.318-0.354c0.023-0.158-0.062-0.319-0.187-0.418
				c-0.125-0.1-0.284-0.147-0.442-0.171C106.758,308.16,106.424,308.2,106.124,308.324z"/>
		</g>
		<g>
			<path style="fill:#FFFFFF;" d="M110.417,314.17l-0.289,0.096c0.069,0.388,0.277,0.751,0.577,1.007
				c0.127,0.108,0.275,0.2,0.439,0.224c0.165,0.025,0.348-0.028,0.447-0.162c0.095-0.129,0.095-0.31,0.032-0.457
				c-0.063-0.147-0.181-0.264-0.309-0.359C111.054,314.324,110.74,314.202,110.417,314.17z"/>
		</g>
		<g>
			<path style="fill:#FFFFFF;" d="M96.439,324.177l-0.21,0.221c0.244,0.31,0.598,0.532,0.983,0.616
				c0.163,0.036,0.336,0.047,0.493-0.009c0.157-0.056,0.294-0.189,0.318-0.354c0.023-0.158-0.062-0.319-0.187-0.418
				c-0.125-0.1-0.284-0.147-0.442-0.171C97.073,324.013,96.739,324.054,96.439,324.177z"/>
		</g>
		<g>
			<path style="fill:#FFFFFF;" d="M91.66,328.222l-0.21,0.221c0.244,0.31,0.598,0.532,0.983,0.616
				c0.163,0.036,0.336,0.047,0.493-0.009c0.157-0.056,0.294-0.189,0.318-0.354c0.023-0.158-0.062-0.319-0.187-0.418
				c-0.125-0.1-0.284-0.147-0.442-0.171C92.294,328.059,91.96,328.099,91.66,328.222z"/>
		</g>
		<g>
			<path style="fill:#FFFFFF;" d="M100.112,317.701l-0.21,0.221c0.244,0.31,0.598,0.532,0.983,0.616
				c0.163,0.036,0.336,0.047,0.493-0.009c0.157-0.056,0.294-0.189,0.318-0.354c0.023-0.158-0.062-0.319-0.187-0.418
				c-0.125-0.1-0.284-0.147-0.442-0.171C100.747,317.537,100.413,317.577,100.112,317.701z"/>
		</g>
		<g>
			<path style="fill:#FFFFFF;" d="M97.316,312.083l-0.21,0.221c0.244,0.31,0.598,0.532,0.983,0.616
				c0.163,0.036,0.336,0.047,0.493-0.009c0.157-0.056,0.294-0.189,0.318-0.354c0.023-0.158-0.062-0.319-0.187-0.418
				c-0.125-0.1-0.284-0.147-0.442-0.171C97.95,311.919,97.616,311.959,97.316,312.083z"/>
		</g>
		<g>
			<path style="fill:#FFFFFF;" d="M101.024,305.126l-0.21,0.221c0.244,0.31,0.598,0.532,0.983,0.616
				c0.163,0.036,0.336,0.047,0.493-0.009c0.157-0.056,0.294-0.189,0.318-0.354c0.023-0.158-0.062-0.319-0.187-0.418
				c-0.125-0.1-0.284-0.147-0.442-0.171C101.658,304.963,101.324,305.003,101.024,305.126z"/>
		</g>
		<g>
			<path style="fill:#FFFFFF;" d="M91.929,319.868l-0.248,0.178c0.182,0.35,0.488,0.634,0.85,0.789
				c0.153,0.066,0.322,0.109,0.486,0.084c0.165-0.025,0.324-0.13,0.378-0.288c0.052-0.151-0.001-0.324-0.105-0.446
				c-0.104-0.122-0.251-0.198-0.402-0.251C92.583,319.826,92.247,319.803,91.929,319.868z"/>
		</g>
		<g>
			<path style="fill:#FFFFFF;" d="M91.234,313.595l-0.248,0.178c0.182,0.35,0.488,0.634,0.85,0.789
				c0.153,0.065,0.322,0.109,0.486,0.084c0.165-0.025,0.324-0.13,0.378-0.288c0.052-0.151-0.001-0.324-0.105-0.446
				c-0.104-0.122-0.251-0.198-0.402-0.251C91.888,313.553,91.552,313.53,91.234,313.595z"/>
		</g>
		<g>
			<path style="fill:#FFFFFF;" d="M93.781,306.526l-0.248,0.178c0.182,0.35,0.488,0.634,0.85,0.789
				c0.153,0.065,0.321,0.109,0.486,0.084c0.165-0.025,0.324-0.13,0.378-0.288c0.052-0.151-0.001-0.325-0.105-0.446
				c-0.104-0.121-0.251-0.198-0.402-0.251C94.435,306.484,94.1,306.461,93.781,306.526z"/>
		</g>
		<g>
			<path style="fill:#FFFFFF;" d="M86.421,323.786l-0.248,0.178c0.182,0.35,0.488,0.634,0.85,0.789
				c0.153,0.065,0.322,0.109,0.486,0.084c0.165-0.025,0.324-0.13,0.378-0.288c0.052-0.151-0.001-0.324-0.105-0.446
				c-0.104-0.121-0.251-0.198-0.402-0.251C87.075,323.744,86.739,323.72,86.421,323.786z"/>
		</g>
	</g>
	<g>
		<g>
			<g>
				<path style="fill:#E0E0E0;" d="M395.337,308.964c-2.897-0.28-5.816-0.047-8.716,0.186c4.095-1.995,7.702-4.985,10.42-8.64
					c-5.501-0.25-11.07,1.867-15.017,5.708c2.226-4.95,3.427-10.358,3.504-15.785c-4.934,3.024-8.28,8.498-8.723,14.268
					c-1.779-4.783-3.558-9.567-5.337-14.35c-0.205-0.552-0.48-1.172-1.043-1.343c-0.737-0.224-1.422,0.461-1.83,1.113
					c-2.32,3.703-2.249,8.513-0.85,12.652c1.399,4.139,3.976,7.76,6.519,11.313l5.074,2.092c8.155,2.317,17.347,0.64,24.159-4.408
					C401.137,310.067,398.234,309.243,395.337,308.964z"/>
			</g>
		</g>
		<g>
			<path style="fill:#EBEBEB;" d="M396.213,337.212c0.982-4.906-0.514-10.112-3.409-14.192c-2.895-4.08-8.104-8.294-14.952-9.078
				c0.313,0.334-9.233-11.182-18.35-10.899c-7.755,0.241-16.926,6.936-20.292,13.926c-2.602,5.404-2.823,11.657-2.227,17.626
				c0.596,5.969,1.956,11.851,2.338,17.837c0.287,4.495,0.288,9.645,3.694,12.593c1.781,1.541,4.228,2.146,6.582,2.089
				c2.354-0.058,4.65-0.721,6.885-1.463c8.331-2.764,16.243-6.682,23.828-11.1c3.496-2.036,6.959-4.204,9.864-7.021
				C393.08,344.712,395.418,341.179,396.213,337.212z"/>
		</g>
		<g>
			<path style="fill:#F0F0F0;" d="M355.335,364.819c-1.703,0.558-3.71,1.052-5.17,0.013c-1.001-0.712-2.721-5.189-3.049-6.373
				c-3.552-12.843,0.21-26.501,4.748-39.03c1.224-3.38,2.526-6.776,4.565-9.736c1.805-2.62,4.262-4.896,7.205-6.048
				c-1.364-0.415-2.753-0.646-4.132-0.603c-7.755,0.241-16.926,6.936-20.292,13.926c-2.602,5.404-2.823,11.657-2.227,17.626
				c0.596,5.969,1.956,11.851,2.338,17.837c0.287,4.495,0.288,9.645,3.694,12.593c1.781,1.541,4.228,2.146,6.582,2.089
				c2.354-0.058,4.65-0.721,6.885-1.463c8.331-2.764,16.243-6.682,23.828-11.1c3.496-2.036,6.959-4.204,9.864-7.021
				c0.398-0.386,0.785-0.787,1.159-1.199C384.024,352.29,368.101,360.638,355.335,364.819z"/>
		</g>
		<g>
			<path style="fill:#FFFFFF;" d="M360.066,347.434l-0.344-0.47c-0.665,0.352-1.201,0.941-1.491,1.636
				c-0.122,0.293-0.202,0.615-0.151,0.929c0.051,0.314,0.254,0.616,0.556,0.717c0.289,0.097,0.619-0.008,0.849-0.208
				c0.23-0.2,0.373-0.483,0.472-0.771C360.158,348.681,360.196,348.04,360.066,347.434z"/>
		</g>
		<g>
			<path style="fill:#FFFFFF;" d="M352.009,358.711l-0.344-0.47c-0.665,0.353-1.201,0.941-1.491,1.636
				c-0.122,0.293-0.202,0.615-0.151,0.929c0.051,0.314,0.254,0.616,0.556,0.717c0.289,0.097,0.619-0.008,0.849-0.208
				c0.23-0.2,0.373-0.483,0.472-0.771C352.1,359.958,352.139,359.317,352.009,358.711z"/>
		</g>
		<g>
			<path style="fill:#FFFFFF;" d="M346.181,347.826l-0.344-0.47c-0.665,0.353-1.201,0.941-1.491,1.636
				c-0.122,0.293-0.202,0.615-0.151,0.929c0.051,0.314,0.254,0.616,0.556,0.717c0.289,0.097,0.619-0.008,0.849-0.208
				c0.23-0.2,0.373-0.483,0.472-0.771C346.272,349.073,346.311,348.432,346.181,347.826z"/>
		</g>
		<g>
			<path style="fill:#FFFFFF;" d="M353.473,337.841l-0.344-0.47c-0.665,0.353-1.202,0.941-1.491,1.636
				c-0.122,0.293-0.202,0.615-0.151,0.929c0.051,0.314,0.254,0.616,0.556,0.717c0.289,0.097,0.619-0.008,0.849-0.208
				c0.23-0.2,0.373-0.483,0.472-0.771C353.565,339.088,353.603,338.447,353.473,337.841z"/>
		</g>
		<g>
			<path style="fill:#FFFFFF;" d="M343.441,330.878l-0.344-0.47c-0.665,0.353-1.201,0.941-1.491,1.636
				c-0.122,0.293-0.202,0.615-0.151,0.929c0.051,0.314,0.254,0.616,0.556,0.717c0.289,0.097,0.619-0.008,0.849-0.208
				c0.23-0.2,0.373-0.483,0.472-0.771C343.532,332.125,343.571,331.484,343.441,330.878z"/>
		</g>
		<g>
			<path style="fill:#FFFFFF;" d="M373.698,343.315l-0.344-0.47c-0.665,0.353-1.202,0.941-1.491,1.636
				c-0.122,0.293-0.202,0.615-0.151,0.929s0.254,0.616,0.556,0.717c0.289,0.097,0.619-0.008,0.849-0.208
				c0.23-0.2,0.373-0.483,0.472-0.771C373.79,344.562,373.828,343.921,373.698,343.315z"/>
		</g>
		<g>
			<path style="fill:#FFFFFF;" d="M380.773,349.405l-0.344-0.47c-0.665,0.353-1.202,0.941-1.491,1.636
				c-0.122,0.293-0.202,0.615-0.151,0.929c0.051,0.314,0.254,0.616,0.556,0.717c0.289,0.097,0.619-0.008,0.849-0.208
				c0.23-0.2,0.373-0.483,0.472-0.771C380.865,350.651,380.903,350.011,380.773,349.405z"/>
		</g>
		<g>
			<path style="fill:#FFFFFF;" d="M368.339,355.476l-0.082-0.576c-0.753-0.002-1.503,0.265-2.086,0.741
				c-0.246,0.201-0.468,0.447-0.571,0.748c-0.103,0.301-0.066,0.663,0.152,0.894c0.21,0.222,0.55,0.284,0.847,0.216
				c0.297-0.068,0.557-0.25,0.78-0.458C367.833,356.619,368.168,356.072,368.339,355.476z"/>
		</g>
		<g>
			<path style="fill:#FFFFFF;" d="M354.306,325.832l-0.344-0.47c-0.665,0.353-1.201,0.941-1.491,1.636
				c-0.122,0.293-0.202,0.615-0.151,0.929c0.051,0.314,0.254,0.616,0.556,0.717c0.289,0.097,0.619-0.008,0.849-0.208
				c0.23-0.2,0.373-0.483,0.472-0.771C354.397,327.079,354.436,326.438,354.306,325.832z"/>
		</g>
		<g>
			<path style="fill:#FFFFFF;" d="M348.337,315.485l-0.344-0.47c-0.665,0.353-1.201,0.941-1.491,1.636
				c-0.122,0.293-0.202,0.615-0.151,0.929c0.051,0.314,0.254,0.616,0.556,0.717c0.289,0.097,0.619-0.008,0.849-0.208
				c0.23-0.2,0.373-0.483,0.472-0.771C348.428,316.732,348.467,316.091,348.337,315.485z"/>
		</g>
		<g>
			<path style="fill:#FFFFFF;" d="M365.215,334.931l-0.344-0.47c-0.665,0.352-1.201,0.941-1.491,1.636
				c-0.122,0.293-0.202,0.615-0.151,0.929c0.051,0.314,0.254,0.616,0.556,0.717c0.289,0.097,0.619-0.008,0.849-0.208
				c0.23-0.2,0.373-0.483,0.472-0.771C365.306,336.177,365.344,335.536,365.215,334.931z"/>
		</g>
		<g>
			<path style="fill:#FFFFFF;" d="M376.712,331.591l-0.344-0.47c-0.665,0.353-1.202,0.941-1.491,1.636
				c-0.122,0.293-0.202,0.615-0.151,0.929s0.254,0.616,0.556,0.717c0.289,0.097,0.619-0.008,0.849-0.208
				c0.23-0.2,0.373-0.483,0.472-0.771C376.803,332.837,376.841,332.197,376.712,331.591z"/>
		</g>
		<g>
			<path style="fill:#FFFFFF;" d="M388.51,340.918l-0.344-0.47c-0.665,0.353-1.201,0.941-1.491,1.636
				c-0.122,0.293-0.202,0.615-0.151,0.929c0.051,0.314,0.254,0.616,0.556,0.717c0.289,0.097,0.619-0.008,0.849-0.208
				c0.23-0.2,0.373-0.483,0.472-0.771C388.601,342.164,388.64,341.524,388.51,340.918z"/>
		</g>
		<g>
			<path style="fill:#FFFFFF;" d="M363.929,318.832l-0.25-0.526c-0.719,0.222-1.356,0.7-1.771,1.328
				c-0.175,0.265-0.314,0.566-0.322,0.884c-0.009,0.318,0.135,0.653,0.412,0.808c0.266,0.149,0.61,0.108,0.873-0.046
				c0.263-0.154,0.457-0.405,0.608-0.669C363.786,320.074,363.943,319.451,363.929,318.832z"/>
		</g>
		<g>
			<path style="fill:#FFFFFF;" d="M375.942,319.66l-0.25-0.526c-0.719,0.222-1.356,0.7-1.771,1.328
				c-0.175,0.265-0.314,0.566-0.322,0.884c-0.009,0.318,0.135,0.653,0.412,0.808c0.266,0.149,0.609,0.108,0.873-0.046
				s0.457-0.405,0.608-0.669C375.798,320.902,375.956,320.279,375.942,319.66z"/>
		</g>
		<g>
			<path style="fill:#FFFFFF;" d="M388.344,326.845l-0.25-0.526c-0.719,0.222-1.357,0.7-1.771,1.328
				c-0.175,0.265-0.314,0.566-0.322,0.884c-0.009,0.318,0.134,0.653,0.412,0.808c0.266,0.149,0.609,0.108,0.873-0.046
				c0.263-0.154,0.457-0.404,0.608-0.669C388.201,328.087,388.358,327.465,388.344,326.845z"/>
		</g>
		<g>
			<path style="fill:#FFFFFF;" d="M358.447,307.159l-0.25-0.526c-0.719,0.222-1.356,0.7-1.771,1.328
				c-0.175,0.265-0.314,0.566-0.322,0.884c-0.009,0.318,0.134,0.653,0.412,0.808c0.266,0.149,0.609,0.108,0.873-0.046
				c0.263-0.154,0.457-0.404,0.608-0.669C358.304,308.4,358.461,307.778,358.447,307.159z"/>
		</g>
	</g>
</g>
<g id="Background_simple" style="display:none;">
	<g style="display:inline;">
		<path style="fill:#407BFF;" d="M418.029,169.132c-4.346-14.819-13.597-29.108-28.109-41.781
			c-17.104-14.937-43.75-30.199-78.603-25.691c-64.343,8.322-65.515,48.245-108.779,40.274
			c-49.005-9.029-106.488-2.974-122.473,37.541c-30.361,76.952,147.289,169.976,244.907,143.849
			C385.745,307.057,441.102,247.815,418.029,169.132z"/>
		<path style="opacity:0.9;fill:#FFFFFF;" d="M418.029,169.132c-4.346-14.819-13.597-29.108-28.109-41.781
			c-17.104-14.937-43.75-30.199-78.603-25.691c-64.343,8.322-65.515,48.245-108.779,40.274
			c-49.005-9.029-106.488-2.974-122.473,37.541c-30.361,76.952,147.289,169.976,244.907,143.849
			C385.745,307.057,441.102,247.815,418.029,169.132z"/>
	</g>
</g>
<g id="Shadow">
	<g>
		<g>
			<path style="fill:#F5F5F5;" d="M458.875,442.005c0,3.387-93.517,6.132-208.875,6.132s-208.875-2.745-208.875-6.132
				c0-3.387,93.516-6.132,208.875-6.132S458.875,438.618,458.875,442.005z"/>
		</g>
	</g>
</g>
<g id="Slush">
	<g>
		<path style="fill:#407BFF;" d="M266.532,130.057l-33.143-0.284c-40.927,6.858-71.962,39.931-71.962,79.696h175.46
			C336.888,170.225,306.662,137.5,266.532,130.057z"/>
		<g>
			<rect x="242.84" y="68.849" style="fill:#407BFF;" width="14.32" height="164.367"/>
			<polyline style="opacity:0.8;fill:#FFFFFF;" points="242.84,143.896 257.16,130.713 257.16,109.351 242.84,121.812 
				242.84,142.462 			"/>
			<polyline style="opacity:0.8;fill:#FFFFFF;" points="242.84,185.13 257.16,171.947 257.16,150.585 242.84,163.046 
				242.84,183.697 			"/>
			<polyline style="opacity:0.8;fill:#FFFFFF;" points="242.84,226.365 257.16,213.182 257.16,191.82 242.84,204.281 
				242.84,218.942 242.84,224.931 			"/>
			<polyline style="opacity:0.8;fill:#FFFFFF;" points="242.84,104.849 257.16,91.666 257.16,70.304 242.84,82.765 242.84,103.415 
							"/>
		</g>
		<g>
			<path style="opacity:0.8;fill:#FFFFFF;" d="M266.352,130.057l-33.143-0.284c-40.927,6.858-71.962,39.931-71.962,79.696h175.46
				C336.707,170.225,306.482,137.5,266.352,130.057z"/>
		</g>
		<polygon style="fill:#407BFF;" points="252.528,214.336 245.426,214.336 161.115,214.336 170.256,295.302 176.786,306.402 
			189.192,429.157 195.721,435.687 195.721,442.869 245.426,442.869 252.528,442.869 302.233,442.869 302.233,435.687 
			308.762,429.157 321.168,306.402 327.698,295.302 336.839,214.336 		"/>
		<polygon style="opacity:0.8;fill:#FFFFFF;" points="252.528,214.336 245.426,214.336 161.115,214.336 170.256,295.302 
			176.786,306.402 189.192,429.157 195.721,435.687 195.721,442.869 245.426,442.869 252.528,442.869 302.233,442.869 
			302.233,435.687 308.762,429.157 321.168,306.402 327.698,295.302 336.839,214.336 		"/>
		<polygon style="fill:#407BFF;" points="201.536,437.055 201.536,433.278 194.768,426.512 182.443,304.551 175.895,293.421 
			167.623,220.15 330.332,220.15 322.06,293.421 315.512,304.551 303.186,426.512 296.419,433.278 296.419,437.055 		"/>
		<polygon style="opacity:0.3;fill:#FFFFFF;" points="201.536,437.055 201.536,433.278 194.768,426.512 182.443,304.551 
			175.895,293.421 167.623,220.15 330.332,220.15 322.06,293.421 315.512,304.551 303.186,426.512 296.419,433.278 296.419,437.055 
					"/>
		<path style="opacity:0.1;" d="M189.192,373.153l5.082,7.698l2.099,1.166v5.132v2.566v3.033c0,0,2.333,3.032,3.965,3.266
			c1.633,0.233,4.665,2.521,5.365,1.027c0.7-1.494,0.939-1.494,1.636-1.96c0.697-0.466,2.796,1.96,2.796,1.96
			s1.633,4.531,1.633,5.251c0,0.72-1.166,1.653,0,2.586c1.166,0.933-0.233,1.866,2.566,2.099c2.799,0.233,2.799,0.467,4.199,0
			c1.4-0.466,3.499-1.4,3.499-1.4s-0.233-2.373,0-3.286c0.233-0.913,2.099-3.012,2.099-3.012s5.132,0.7,5.598,0
			c0.467-0.7,3.052-3.732,3.392-5.365c0.34-1.633,1.973-1.83,1.74-3.714c-0.233-1.884-1.121-3.051,0.023-3.984
			c1.144-0.933,3.01-1.166,4.409-1.4c1.4-0.233,3.266,0,3.499-1.166c0.233-1.166,0-1.866,0-3.033c0-1.166-0.726-0.233,0.104-2.333
			c0.829-2.099,1.063-0.933,1.762-3.266c0.7-2.333-2.566-1.166,0-3.499c2.566-2.333,1.871-2.099,4.318-3.266
			c2.447-1.166,7.812-1.166,7.812-1.166l3.033,1.4c0,0,0.933,0.466,1.866,0.7c0.933,0.233,1.4,12.363,1.4,12.363l3.966-0.933
			c0,0,4.432-1.166,4.432-2.799c0-1.633,1.4-3.032,1.166-4.199c-0.233-1.166-1.347-1.633,0.026-3.499
			c1.373-1.866,3.006-3.032,3.939-3.032c0.933,0,4.027,2.333,3.996,0c-0.031-2.333,0.031-5.365,0-6.998s1.135-3.499,1.135-3.499
			s4.198-0.233,4.781-1.633s0.117-4.199,1.75-5.832c1.633-1.633,2.502-3.033,4.167-3.732c1.665-0.7,5.754,0,5.754,0l1.276,3.966
			l-1.276,5.132c0,0,3.609,1.866,4.542,1.633c0.933-0.233,2.099,1.4,2.099,1.4s-2.099,4.899-1.633,5.598
			c0.467,0.7,2.799,3.032,2.799,3.032l2.754,1.166l-5.576,59.19l-6.767,6.767v3.777h-94.883v-3.777l-6.767-6.767l-5.577-55.177"/>
		<polygon style="opacity:0.3;" points="170.256,295.302 327.698,295.302 321.168,306.402 176.786,306.402 		"/>
		<polygon style="opacity:0.3;" points="189.192,429.157 308.762,429.157 302.233,435.687 195.721,435.687 		"/>
		<g>
			<path style="fill:#FFFFFF;" d="M176.442,295.476c46.012-0.664,97.162-0.648,143.206,0
				C273.594,296.125,222.465,296.141,176.442,295.476L176.442,295.476z"/>
		</g>
		<g>
			<path style="fill:#FFFFFF;" d="M207.34,429.157c29.191-0.664,61.65-0.648,90.861,0
				C268.984,429.806,236.537,429.822,207.34,429.157L207.34,429.157z"/>
		</g>
		<path style="fill:#407BFF;" d="M329.09,213.764c-0.345-1.652-1.392-6.285-1.392-6.285l-4.474-3.796l-3.576-3.106l-6.087-8.117
			c0,0-5.176-1.891-7.751,0s-5.017-1.891-7.433-1.546c-2.416,0.345-2.416-2.416-3.724-2.761c-1.309-0.345,0-2.416,0-2.416
			l-1.452-1.725l-6.671-4.831l-5.062-0.69l-4.486-0.345l-4.141-2.416l-5.176-2.761v-4.002c0,0-4.141-0.829-5.866,0
			c-1.725,0.829-3.796,0-3.796,0h-4.141l-3.86-6.351l-4.422-0.69l-4.831-1.74l-6.212,2.43c0,0-2.071,3.106-3.106,5.197
			c-1.035,2.091-3.106,3.43-3.106,3.43h-4.486c0,0-3.451,0.69-6.557,2.07c-3.106,1.38,0,0-3.451,1.725c0,0,0.345,2.071,0,3.106
			c-0.345,1.035,0,2.416,0,2.416l-2.416,2.186l-6.557,0.92c0,0-7.937-2.071-10.698,0l-3.106,2.416c0,0-1.725-1.035-2.416,0
			c-0.69,1.035-0.69,1.725-1.726,3.106c-1.035,1.38,0,4.831,0,4.831s-3.796,1.38-6.557,3.106c-2.761,1.726,0,0-1.035,2.108
			c-1.035,2.108-1.38,1.343-2.878,2.378c-1.498,1.035,0,3.106,0,3.106v4.75c0,0-1.608-0.609-2.988,0
			c-1.38,0.609-1.035,2.152-2.071,4.867v3.724l-3.761,2.09h162.709C330.332,220.15,329.435,215.417,329.09,213.764z"/>
		<path style="opacity:0.3;fill:#FFFFFF;" d="M329.09,213.764c-0.345-1.652-1.392-6.285-1.392-6.285l-4.474-3.796l-3.576-3.106
			l-6.087-8.117c0,0-5.176-1.891-7.751,0s-5.017-1.891-7.433-1.546c-2.416,0.345-2.416-2.416-3.724-2.761
			c-1.309-0.345,0-2.416,0-2.416l-1.452-1.725l-6.671-4.831l-5.062-0.69l-4.486-0.345l-4.141-2.416l-5.176-2.761v-4.002
			c0,0-4.141-0.829-5.866,0c-1.725,0.829-3.796,0-3.796,0h-4.141l-3.86-6.351l-4.422-0.69l-4.831-1.74l-6.212,2.43
			c0,0-2.071,3.106-3.106,5.197c-1.035,2.091-3.106,3.43-3.106,3.43h-4.486c0,0-3.451,0.69-6.557,2.07c-3.106,1.38,0,0-3.451,1.725
			c0,0,0.345,2.071,0,3.106c-0.345,1.035,0,2.416,0,2.416l-2.416,2.186l-6.557,0.92c0,0-7.937-2.071-10.698,0l-3.106,2.416
			c0,0-1.725-1.035-2.416,0c-0.69,1.035-0.69,1.725-1.726,3.106c-1.035,1.38,0,4.831,0,4.831s-3.796,1.38-6.557,3.106
			c-2.761,1.726,0,0-1.035,2.108c-1.035,2.108-1.38,1.343-2.878,2.378c-1.498,1.035,0,3.106,0,3.106v4.75c0,0-1.608-0.609-2.988,0
			c-1.38,0.609-1.035,2.152-2.071,4.867v3.724l-3.761,2.09h162.709C330.332,220.15,329.435,215.417,329.09,213.764z"/>
		<g>
			<g>
				<polygon style="fill:#407BFF;" points="156.896,218.06 161.003,209.469 337.479,209.469 343.104,218.06 				"/>
				<polygon style="opacity:0.7;fill:#FFFFFF;" points="156.896,218.06 161.003,209.469 337.479,209.469 343.104,218.06 				"/>
			</g>
		</g>
		<path style="opacity:0.4;fill:#FFFFFF;" d="M174.044,181.962c0,0,14.082-37.476,58.188-45.881h30.972
			c0,0-12.891,29.916-29.328,37.806C217.439,181.777,174.044,181.962,174.044,181.962z"/>
		<g>
			<path style="fill:#FFFFFF;" d="M189.263,249.131c1.318-1.989,2.678-3.948,4.071-5.884c0.719,0.236,1.473,0.434,2.22,0.549
				c0.823,0.075,1.964,0.333,2.388-0.44c0.498-1.111,1.526-1.852,2.679-2.197l-0.35,0.346l1.092-4.196l0.045-0.174l0.146-0.103
				l3.104-2.187l0.224-0.158c2.206,1.012,4.394,2.062,6.576,3.127l-0.197-0.019c2.222-0.457,4.452-0.87,6.691-1.243
				c-2.172,0.657-4.355,1.273-6.55,1.847c-0.104,0.036-0.109,0.017-0.197-0.019c-2.165-0.886-4.323-1.787-6.465-2.722l0.466-0.046
				l-3.075,2.226l0.191-0.277l-1.115,4.19l-0.07,0.264c-0.665,0.17-1.364,0.489-1.863,0.989c-0.444,0.368-0.497,0.925-0.958,1.292
				c-0.845,0.638-2.027,0.401-2.896,0.237c-0.712-0.155-1.391-0.365-2.069-0.625l0.357-0.104
				C192.259,245.607,190.778,247.383,189.263,249.131L189.263,249.131z"/>
		</g>
		<g>
			<path style="fill:#FFFFFF;" d="M225.52,262.996c1.358-1.569,3.963-4.578,5.337-6.13l0.163,0.047l4.29,1.238l-0.367,0.109
				c1.153-1.439,2.28-2.898,3.454-4.32c0.003-0.008,0.019-0.02,0.024-0.027l2.235-2.319l0.175-0.182
				c0.038,0.007,7.11,1.646,7.061,1.634c0.552,1.843,1.046,3.702,1.57,5.553l-0.397-0.339l4.039,0.527l0.096,0.013l0.077,0.047
				l4.216,2.544l0.1,0.061l0.049,0.095l1.453,2.788l-0.304-0.181l5.77,0.118l0.148,0.003c0.954,2.083,1.934,4.152,2.862,6.247
				c-1.097-1.96-2.144-3.945-3.215-5.919l0.205,0.127l-5.77,0.118l-0.199,0.004l-0.105-0.185l-1.557-2.731l0.149,0.155l-4.258-2.473
				l0.173,0.059l-4.045-0.476l-0.309-0.036c-0.533-1.857-1.1-3.704-1.611-5.566l0.359,0.344l-6.513-1.593l0.427-0.123
				c-2.034,1.948-3.986,4.321-5.827,6.474l-0.153,0.18l-0.214-0.07l-4.24-1.399l0.267-0.071
				C229.751,258.756,226.922,261.595,225.52,262.996L225.52,262.996z"/>
		</g>
		<g>
			<path style="fill:#FFFFFF;" d="M261.032,236.11c0.677-1.486,1.379-2.957,2.12-4.408c1.694,0.654,3.403,1.275,5.082,1.966
				l-0.61,0.283c0.404-1.426,0.85-2.84,1.275-4.259c0.987-0.519,2.023-0.427,2.917-0.323c2.515,0.39,4.866,1.355,7.147,2.425
				l0.089,0.042l0.041,0.071c0.788,1.381,1.536,2.785,2.261,4.202c-0.947-1.279-1.871-2.575-2.757-3.895l0.13,0.113
				c-2.283-0.853-4.635-1.631-7.037-1.995c-0.769-0.092-1.599-0.1-2.142,0.154l0.239-0.29c-0.43,1.342-0.844,2.689-1.297,4.023
				l-0.162,0.479l-0.448-0.196c-1.581-0.692-3.136-1.448-4.701-2.178l0.361-0.124C262.735,233.521,261.895,234.822,261.032,236.11
				L261.032,236.11z"/>
		</g>
		<g>
			<path style="fill:#FFFFFF;" d="M298.835,270.716c-0.161-1.625-0.292-3.25-0.379-4.876c1.794-0.285,3.584-0.605,5.382-0.85
				l-0.386,0.551c-0.367-1.436-0.691-2.883-1.035-4.324c0.593-0.944,1.535-1.385,2.361-1.743c2.371-0.925,4.889-1.271,7.398-1.489
				l0.098-0.008l0.072,0.041c1.375,0.799,2.727,1.638,4.065,2.5c-1.461-0.631-2.911-1.287-4.34-1.985l0.169,0.033
				c-2.402,0.408-4.828,0.916-7.087,1.807c-0.711,0.306-1.434,0.717-1.776,1.209l0.061-0.371c0.302,1.376,0.62,2.749,0.898,4.131
				l0.1,0.496l-0.486,0.055c-1.715,0.195-3.439,0.321-5.159,0.475l0.25-0.288C299.009,267.622,298.935,269.168,298.835,270.716
				L298.835,270.716z"/>
		</g>
		<g>
			<path style="fill:#FFFFFF;" d="M207.34,331.059c0.962-0.79,2.567-2.084,3.261-2.582l2.585-4.73l0.052-0.095
				c1.527-0.852,3.049-1.715,4.589-2.543c3.059-0.029,6.119,0.004,9.178,0.063c0.454,1.688,0.875,3.386,1.312,5.079l-0.266-0.199
				c1.691,0.061,3.381,0.156,5.07,0.277c-0.845,0.067-1.69,0.113-2.535,0.157c-0.911,0.047-1.823,0.108-2.734,0.125
				c-0.529-1.631-1.076-3.258-1.593-4.892l0.413,0.31c-2.907,0.054-5.814,0.083-8.721,0.057l0.231-0.058
				c-1.468,0.788-2.952,1.544-4.432,2.309l0.164-0.158l-2.887,4.552C209.849,329.553,208.575,330.297,207.34,331.059L207.34,331.059
				z"/>
		</g>
		<g>
			<path style="fill:#FFFFFF;" d="M260.315,348.972c2.888,2.124,5.73,4.306,8.555,6.512l-0.379-0.034
				c1.581-0.904,3.145-1.839,4.745-2.708l5.662-2.386l-0.295,0.441c-0.013-1.769-0.031-3.537-0.007-5.306
				c0.396-1.001,0.801-2.007,1.455-2.895c0.159-0.181,0.282-0.375,0.631-0.54c2.077-0.375,4.159-0.06,6.237-0.004
				c0,0-0.42,0.343-0.42,0.343c0.53-2.971,1.012-5.95,1.583-8.914c1.34-0.835,2.674-1.678,4.029-2.492
				c-1.242,0.937-2.503,1.844-3.759,2.76l0.079-0.125c-0.336,2.971-0.758,5.929-1.133,8.894l-0.044,0.352l-0.376-0.009
				c-1.931-0.006-3.944-0.217-5.836,0.041c-0.687,0.619-1.138,1.938-1.506,2.849c0,0,0.029-0.166,0.029-0.166
				c0.024,1.845,0.003,3.69-0.011,5.535l-0.293,0.118l-5.695,2.305c-1.418,0.786-3.361,1.774-4.958,2.614
				C265.818,353.793,263.04,351.415,260.315,348.972L260.315,348.972z"/>
		</g>
		<g>
			<path style="fill:#FFFFFF;" d="M248.977,411.546c1.128,2.024,2.217,4.066,3.261,6.129l-0.292-0.185
				c2.083-0.074,4.166-0.125,6.248-0.147l-0.446,0.32c0.887-2.746,1.806-5.481,2.748-8.208c2.625-0.318,5.253-0.623,7.885-0.883
				l-0.285,0.261c0.731-2.956,1.492-5.903,2.323-8.833c-0.509,3.079-1.097,6.142-1.707,9.202c-2.594,0.424-5.195,0.805-7.797,1.171
				l0.393-0.323c-0.899,2.755-1.825,5.502-2.781,8.238c-2.265-0.022-4.531-0.076-6.795-0.158
				C250.769,415.956,249.853,413.761,248.977,411.546L248.977,411.546z"/>
		</g>
		<g>
			<path style="fill:#FFFFFF;" d="M261.032,200.837c1.064-1.319,2.539-3.056,3.462-4.126l1.587-3.515l0.088-0.196l0.236-0.007
				c1.675-0.053,3.351-0.082,5.026-0.099l0.107,0.058l3.025,1.625l-0.65,0.174l2.248-3.703l0.208-0.343l0.378,0.135
				c1.954,0.697,3.903,1.408,5.846,2.135c1.01,0.964,2.031,1.932,3.004,2.929c0.549,0.971,1.119,2.159,1.861,2.94
				c1.562-0.236,3.124-0.689,4.684-1.016c-1.545,0.535-3.058,1.104-4.66,1.484c-0.038,0.019-0.171-0.012-0.256-0.05
				c-0.864-0.663-1.821-2.369-2.16-2.939c-1.001-0.883-2.018-1.75-3.005-2.648c-1.098-0.232-3.957-1.358-5.644-1.905
				c0,0,0.586-0.208,0.586-0.208l-2.257,3.697l-0.245,0.401l-0.406-0.227l-2.996-1.677l0.22,0.056
				c-1.638-0.017-3.276-0.047-4.913-0.098l0.323-0.203l-1.773,3.425C263.68,198.259,262.357,199.553,261.032,200.837
				L261.032,200.837z"/>
		</g>
		<g>
			<path style="fill:#FFFFFF;" d="M204.538,191.82c0.374-1.412,0.566-2.905,1.848-3.889c1.344-0.42,3.103-0.276,4.302-0.258
				c1.023-0.063,2.057-0.114,3.082-0.149l0.006,0.505c0.016,1.263,0.012,2.527-0.002,3.79l-0.377-0.473
				c2.776,0.62,5.512,1.374,8.104,2.567c0,0,0.079,0.035,0.079,0.035c0.292,0.705,0.59,1.406,0.858,2.122
				c-0.401-0.628-0.774-1.27-1.153-1.91l0.101,0.088c-1.197-0.301-2.368-0.677-3.552-1.017c-1.374-0.231-3.152-0.614-4.653-0.939
				l-0.373-0.081l-0.004-0.392c-0.014-1.264-0.018-2.527-0.002-3.79l0.504,0.486c-0.872,0.029-1.745,0.042-2.618,0.051
				c-1.149-0.049-2.927-0.324-4.046-0.115C205.558,189.18,205.078,190.655,204.538,191.82L204.538,191.82z"/>
		</g>
		<g>
			<path style="fill:#FFFFFF;" d="M234.92,183.156c0.236-1.008,0.328-1.982,0.89-2.887c0.296-0.236,0.496-0.26,0.74-0.367
				c0.428-0.163,1.65-0.543,2.105-0.685c0,0-0.272,0.297-0.272,0.297c0.091-0.647,0.112-1.394,0.258-2.049
				c0.347-0.85,1.03-1.251,1.798-1.589c0,0,2.864-0.617,2.864-0.617c1.341,0.143,2.696,0.469,4.034,0.709l-0.006,0.377
				c-0.018,1.235-0.064,2.47-0.125,3.704l-0.261-0.327c1.049,0.288,2.098,0.571,3.137,0.903c0.488,0.439,0.975,0.879,1.449,1.337
				c-0.552-0.345-1.091-0.707-1.628-1.07c-0.807-0.049-2.311-0.388-3.354-0.561c-0.068-1.328-0.12-2.658-0.139-3.986l0.383,0.455
				c-1.16-0.168-2.314-0.375-3.472-0.56l0.186-0.003l-2.872,0.578l0.084-0.026c-0.512,0.208-1.116,0.596-1.25,0.954
				c-0.045,0.148-0.127,0.704-0.173,0.905c-0.035,0.178-0.208,1.07-0.24,1.23c-0.824,0.196-2.175,0.433-2.94,0.734
				C235.634,181.19,235.246,182.453,234.92,183.156L234.92,183.156z"/>
		</g>
		<path style="opacity:0.1;fill:#FFFFFF;" d="M186.845,258.273c1.31-0.62,9.173,8.577,9.173,8.577l4.805,6.091
			c0,0,4.297,0.874,6.516,0s2.656-2.58,6.588-2.164s3.871,1.193,6.304,2.552c2.432,1.359,9.401,9.221,9.401,9.221l6.136,3.494h7.073
			l5.205-4.368l4.725,2.184v4.805h4.39c1.758-3.494,0-5.242,0-5.242s5.252-3.494,6.563-3.931s7.96,0.437,7.96,0.437l11.259,6.552
			c0,0,5.678-3.494,6.552-4.805c0.874-1.31,2.647-5.521,2.647-5.521s4.283-3.062,6.06-2.701c1.777,0.36,3.524,4.169,5.708,2.701
			c2.184-1.468,6.552-0.004,7.426-2.701c0.874-2.697,5.077-6.604,5.077-6.604l3.237-2.356l5.411,2.356l-3,26.571l-6.548,11.131
			l-1.747,17.286l-18.593,4.49l-2.688-7.085l-3.428-3.058l-6.552-0.874l-2.794,1.31l-5.068,1.747v7.958l-2.96,2.276l-7.086,0
			c0,0-4.507-0.578-3.564,2.456c0.943,3.035,0,6.966,0,6.966s-7.858,6.115-8.262,4.805c-0.404-1.31-3.793,0.184-3.793,0.184h-6.137
			l-3.578,6.368c0,0-1.747,0.847-3.058,2.171c-1.31,1.324-3.082,3.945-3.082,3.945l-9.148-2.38l1.31-6.52c0,0,1.31-4.204,0-5.515
			c-1.31-1.31-5.053-3.494-5.053-3.494l-6.304,1.31l-6.588,1.31c0,0,6.08,3.931,0,8.299c-6.08,4.368-6.08,4.368-6.08,4.368
			l-7.426-4.368l-2.184-9.61c0,0,0-6.069,0-7.839s-2.458-4.732-2.458-4.732h-4.549l-2.201-21.776l-6.548-11.131l-4.045-34.927
			l2.765-9.362h3.494l3.058,5.464L186.845,258.273z"/>
		<path style="opacity:0.1;" d="M226.85,368.965l-3.299-1.1c-1.539,1.759-1.759,3.519-1.759,3.519v1.759h2.529
			c0,0,1.869,1.759,2.529,1.1c0.66-0.66,1.979-1.1,1.979-1.759c0-0.66,0-3.299,0-3.299L226.85,368.965z"/>
		<path style="opacity:0.1;" d="M289.431,259.255l-3.299-1.1c-1.539,1.759-1.759,3.519-1.759,3.519v1.759h2.529
			c0,0,1.869,1.759,2.529,1.1c0.66-0.66,1.979-1.1,1.979-1.759c0-0.66,0-3.299,0-3.299L289.431,259.255z"/>
		<path style="opacity:0.1;fill:#FFFFFF;" d="M233.981,230.524l-3.299-1.1c-1.539,1.759-1.759,3.519-1.759,3.519v1.759h2.529
			c0,0,1.869,1.759,2.529,1.1c0.66-0.66,1.979-1.1,1.979-1.759c0-0.66,0-3.299,0-3.299L233.981,230.524z"/>
		<polygon style="opacity:0.1;" points="235.83,359.846 233.071,362.009 232.698,363.501 235.457,365.216 237.397,365.216 
			238.963,363.501 		"/>
		<polygon style="opacity:0.1;" points="279.346,271.178 276.587,273.341 276.214,274.833 278.973,276.549 280.913,276.549 
			282.479,274.833 		"/>
		<g>
			<path style="fill:none;" d="M329.09,213.764c-0.345-1.652-1.392-6.285-1.392-6.285l-4.474-3.796l-3.576-3.106l-6.087-8.117
				c0,0-5.176-1.891-7.751,0s-5.017-1.891-7.433-1.546c-0.051,0.007-0.095,0.005-0.145,0.01c-0.148,0.929-0.305,1.954-0.305,2.133
				c0,0.338-2.141,0.789-2.591,0.901c-0.451,0.113-3.83-3.79-3.83-3.79h-3.493h-4.281l-2.141-2.14l-2.141-3.984l-6.196,1.085
				l-4.844,0.492l-4.056-0.492h-8.111L250,180.766l-3.131-0.717v-3.102c0,0-0.975-0.771-1.322-0.831
				c-0.347-0.06-2.143-0.37-2.143-0.37h-1.356l-2.607,1.295l-0.697,2.529l-2.018,0.557l-1.806,1.325l-2.11,2.256l-1.352-4.258
				c0,0-2.253-0.139-2.591,0c-0.338,0.138-1.014,1.889-1.127,2.51c-0.113,0.621-0.676,3.322-0.789,3.998
				c-0.113,0.676-7.21,2.069-7.21,2.069l-0.676-4.873l-5.577-1.702l-0.457-0.17l0,0l-1.618,1.464l-6.557,0.92
				c0,0-7.937-2.071-10.698,0l-3.106,2.416c0,0-1.725-1.035-2.416,0c-0.69,1.035-0.69,1.725-1.726,3.106
				c-1.035,1.38,0,4.831,0,4.831s-3.796,1.38-6.557,3.106c-2.761,1.726,0,0-1.035,2.108c-1.035,2.108-1.38,1.343-2.878,2.378
				c-1.498,1.035,0,3.106,0,3.106v4.75c0,0-1.608-0.609-2.988,0c-1.38,0.609-1.035,2.152-2.071,4.867v3.724l-3.761,2.09h162.709
				C330.332,220.15,329.435,215.417,329.09,213.764z"/>
		</g>
		<g>
			<path style="fill:#FFFFFF;" d="M169.844,196.077c3.619-22.873,20.042-42.793,40.575-52.921
				c6.884-3.405,14.235-5.931,21.814-7.075c-3.747,0.782-7.432,1.821-11.01,3.149C196.169,148.137,175.337,169.756,169.844,196.077
				L169.844,196.077z"/>
		</g>
		<g>
			<path style="fill:#FFFFFF;" d="M164.702,209.493c51.142-0.651,108.52-0.656,159.661,0
				C273.221,210.149,215.843,210.143,164.702,209.493L164.702,209.493z"/>
		</g>
	</g>
</g>
<g id="Strawberries">
	<g>
		<g>
			<g>
				<path style="fill:#263238;" d="M174.894,418.245c-2.359-1.906-5.031-3.379-7.688-4.841c4.707,0.616,9.559,0.085,14.021-1.533
					c-4.641-3.375-10.7-4.73-16.336-3.655c4.777-3.027,8.926-7.042,12.108-11.717c-6.027-0.202-12.079,2.638-15.776,7.402
					c1.198-5.181,2.396-10.363,3.594-15.544c0.138-0.598,0.255-1.295-0.136-1.767c-0.512-0.618-1.501-0.415-2.231-0.082
					c-4.143,1.889-6.842,6.113-8.001,10.516c-1.159,4.403-0.996,9.031-0.824,13.581l3.212,4.732
					c5.763,6.696,14.719,10.514,23.541,10.033C179.306,422.533,177.253,420.15,174.894,418.245z"/>
			</g>
		</g>
		<g>
			<path style="fill:#407BFF;" d="M159.443,443.314c3.67-3.703,5.357-9.09,5.181-14.3c-0.176-5.21-2.287-11.865-7.793-16.478
				c0.081,0.47-1.612-15.025-9.703-20.011c-6.883-4.241-18.702-3.682-25.642,0.465c-5.365,3.207-9.146,8.518-12.053,14.051
				c-2.907,5.533-5.101,11.429-8.204,16.855c-2.331,4.074-5.286,8.553-4.015,13.072c0.665,2.362,2.445,4.293,4.526,5.594
				c2.081,1.301,4.458,2.042,6.828,2.68c8.833,2.378,17.962,3.512,27.094,4.023c4.21,0.236,8.466,0.338,12.609-0.444
				C152.413,448.04,156.475,446.309,159.443,443.314z"/>
		</g>
		<g style="opacity:0.3;">
			<path style="fill:#FFFFFF;" d="M108.045,443.862c-1.801-0.492-3.83-1.215-4.504-2.956c-0.462-1.194,0.611-6.074,1.006-7.292
				c4.282-13.208,15.394-22.927,26.531-31.219c3.005-2.237,6.086-4.443,9.558-5.848c3.074-1.243,6.517-1.813,9.737-1.125
				c-0.947-1.144-2.023-2.142-3.247-2.896c-6.883-4.241-18.702-3.682-25.642,0.465c-5.365,3.207-9.146,8.518-12.053,14.051
				c-2.907,5.533-5.101,11.429-8.204,16.855c-2.331,4.074-5.286,8.553-4.015,13.072c0.665,2.362,2.445,4.293,4.526,5.594
				c2.081,1.301,4.458,2.042,6.828,2.68c8.833,2.378,17.962,3.512,27.094,4.023c4.21,0.236,8.466,0.338,12.609-0.444
				c0.568-0.107,1.134-0.234,1.697-0.378C140.188,449.433,121.548,447.554,108.045,443.862z"/>
		</g>
		<g>
			<path style="fill:#FFFFFF;" d="M122.138,431.458l-0.03-0.606c-0.781-0.075-1.585,0.129-2.236,0.567
				c-0.275,0.185-0.529,0.419-0.665,0.721c-0.136,0.302-0.132,0.682,0.072,0.943c0.196,0.25,0.543,0.348,0.858,0.306
				s0.602-0.206,0.853-0.4C121.502,432.595,121.903,432.06,122.138,431.458z"/>
		</g>
		<g>
			<path style="fill:#FFFFFF;" d="M108.658,436.642l-0.03-0.606c-0.781-0.075-1.585,0.129-2.236,0.567
				c-0.275,0.185-0.529,0.419-0.664,0.721c-0.136,0.302-0.132,0.682,0.072,0.943c0.196,0.25,0.543,0.348,0.858,0.306
				c0.315-0.042,0.602-0.206,0.853-0.4C108.022,437.778,108.424,437.243,108.658,436.642z"/>
		</g>
		<g>
			<path style="fill:#FFFFFF;" d="M109.837,423.83l-0.03-0.606c-0.781-0.075-1.585,0.129-2.236,0.567
				c-0.275,0.185-0.529,0.419-0.665,0.721c-0.136,0.302-0.132,0.682,0.072,0.943c0.196,0.25,0.543,0.348,0.858,0.306
				c0.315-0.042,0.602-0.206,0.853-0.4C109.201,424.966,109.602,424.431,109.837,423.83z"/>
		</g>
		<g>
			<path style="fill:#FFFFFF;" d="M121.91,419.331l-0.03-0.606c-0.781-0.075-1.585,0.129-2.236,0.567
				c-0.275,0.185-0.529,0.419-0.664,0.721c-0.136,0.302-0.132,0.682,0.072,0.943c0.196,0.25,0.543,0.348,0.858,0.306
				c0.315-0.042,0.602-0.206,0.853-0.4C121.274,420.468,121.675,419.933,121.91,419.331z"/>
		</g>
		<g>
			<path style="fill:#FFFFFF;" d="M117.182,407.517l-0.029-0.606c-0.781-0.075-1.585,0.129-2.236,0.567
				c-0.275,0.185-0.529,0.419-0.664,0.721c-0.136,0.302-0.132,0.682,0.072,0.943c0.196,0.25,0.543,0.348,0.858,0.306
				c0.315-0.042,0.602-0.206,0.853-0.4C116.546,408.654,116.947,408.118,117.182,407.517z"/>
		</g>
		<g>
			<path style="fill:#FFFFFF;" d="M136.359,435.7l-0.029-0.606c-0.781-0.075-1.585,0.129-2.236,0.567
				c-0.275,0.185-0.529,0.419-0.664,0.721c-0.136,0.302-0.132,0.682,0.072,0.942c0.196,0.25,0.543,0.348,0.858,0.306
				c0.315-0.042,0.602-0.206,0.853-0.4C135.723,436.837,136.124,436.302,136.359,435.7z"/>
		</g>
		<g>
			<path style="fill:#FFFFFF;" d="M139.016,445.057l-0.03-0.606c-0.781-0.075-1.585,0.129-2.236,0.567
				c-0.275,0.185-0.529,0.419-0.665,0.721c-0.136,0.302-0.132,0.682,0.072,0.943c0.196,0.25,0.543,0.348,0.858,0.306
				c0.315-0.042,0.602-0.206,0.853-0.4C138.38,446.194,138.781,445.659,139.016,445.057z"/>
		</g>
		<g>
			<path style="fill:#FFFFFF;" d="M124.717,443.201l0.259-0.548c-0.653-0.434-1.459-0.633-2.239-0.553
				c-0.329,0.034-0.664,0.12-0.926,0.323c-0.262,0.203-0.438,0.539-0.381,0.865c0.055,0.313,0.315,0.563,0.613,0.674
				c0.298,0.111,0.628,0.102,0.941,0.049C123.621,443.904,124.227,443.621,124.717,443.201z"/>
		</g>
		<g>
			<path style="fill:#FFFFFF;" d="M129.527,409.365l-0.03-0.606c-0.781-0.075-1.585,0.129-2.236,0.567
				c-0.275,0.185-0.529,0.419-0.665,0.721c-0.136,0.302-0.132,0.682,0.072,0.943c0.196,0.25,0.543,0.348,0.858,0.306
				c0.315-0.042,0.602-0.206,0.853-0.4C128.891,410.501,129.292,409.966,129.527,409.365z"/>
		</g>
		<g>
			<path style="fill:#FFFFFF;" d="M130.275,396.94l-0.03-0.606c-0.781-0.075-1.585,0.129-2.236,0.567
				c-0.275,0.185-0.529,0.419-0.664,0.721c-0.136,0.302-0.132,0.682,0.072,0.943c0.196,0.25,0.543,0.348,0.858,0.306
				c0.315-0.042,0.602-0.206,0.853-0.4C129.639,398.077,130.04,397.541,130.275,396.94z"/>
		</g>
		<g>
			<path style="fill:#FFFFFF;" d="M133.793,423.539l-0.03-0.606c-0.781-0.075-1.585,0.129-2.236,0.567
				c-0.275,0.185-0.529,0.419-0.665,0.721c-0.136,0.302-0.132,0.682,0.072,0.943c0.196,0.25,0.543,0.348,0.858,0.306
				c0.315-0.042,0.602-0.206,0.853-0.4C133.157,424.676,133.558,424.14,133.793,423.539z"/>
		</g>
		<g>
			<path style="fill:#FFFFFF;" d="M145.709,427.233l-0.03-0.606c-0.781-0.075-1.585,0.129-2.236,0.567
				c-0.275,0.185-0.529,0.419-0.665,0.721c-0.136,0.302-0.132,0.682,0.072,0.943c0.196,0.25,0.543,0.348,0.858,0.306
				c0.315-0.042,0.602-0.206,0.853-0.4C145.073,428.37,145.474,427.835,145.709,427.233z"/>
		</g>
		<g>
			<path style="fill:#FFFFFF;" d="M150.616,442.117l-0.029-0.606c-0.781-0.075-1.585,0.129-2.236,0.567
				c-0.275,0.185-0.529,0.419-0.665,0.721c-0.136,0.302-0.132,0.682,0.072,0.943c0.196,0.25,0.543,0.348,0.858,0.306
				s0.602-0.206,0.853-0.4C149.98,443.253,150.381,442.718,150.616,442.117z"/>
		</g>
		<g>
			<path style="fill:#FFFFFF;" d="M141.915,408.8l0.084-0.601c-0.753-0.22-1.581-0.17-2.302,0.138
				c-0.305,0.13-0.598,0.313-0.788,0.584c-0.19,0.271-0.258,0.645-0.106,0.939c0.146,0.282,0.468,0.444,0.785,0.461
				c0.317,0.017,0.63-0.09,0.913-0.233C141.077,409.797,141.571,409.347,141.915,408.8z"/>
		</g>
		<g>
			<path style="fill:#FFFFFF;" d="M151.887,416.415l0.084-0.601c-0.753-0.22-1.581-0.17-2.302,0.139
				c-0.304,0.13-0.598,0.313-0.788,0.584c-0.19,0.271-0.258,0.645-0.106,0.939c0.146,0.282,0.468,0.444,0.785,0.461
				c0.317,0.017,0.63-0.09,0.913-0.233C151.049,417.413,151.544,416.962,151.887,416.415z"/>
		</g>
		<g>
			<path style="fill:#FFFFFF;" d="M158.549,429.783l0.084-0.601c-0.753-0.22-1.581-0.17-2.302,0.139
				c-0.304,0.13-0.598,0.313-0.788,0.584c-0.19,0.271-0.258,0.645-0.106,0.939c0.146,0.282,0.468,0.444,0.785,0.461
				c0.317,0.018,0.63-0.09,0.913-0.233C157.712,430.78,158.206,430.329,158.549,429.783z"/>
		</g>
		<g>
			<path style="fill:#FFFFFF;" d="M143.847,395.501l0.084-0.601c-0.753-0.22-1.581-0.17-2.302,0.139
				c-0.305,0.13-0.598,0.313-0.788,0.584c-0.19,0.271-0.258,0.645-0.106,0.939c0.146,0.282,0.468,0.444,0.785,0.461
				c0.317,0.017,0.63-0.09,0.913-0.233C143.01,396.499,143.504,396.048,143.847,395.501z"/>
		</g>
	</g>
	<g>
		<g>
			<g>
				<path style="fill:#263238;" d="M352.728,89.552c-1.693,2.682-2.899,5.636-4.095,8.574c0.069-4.964-1.072-9.94-3.295-14.379
					c-2.942,5.231-3.615,11.689-1.814,17.413c-3.725-4.595-8.398-8.417-13.642-11.155c0.522,6.285,4.207,12.227,9.604,15.489
					c-5.528-0.616-11.055-1.231-16.583-1.847c-0.638-0.071-1.376-0.108-1.819,0.356c-0.579,0.607-0.249,1.609,0.185,2.327
					c2.465,4.074,7.181,6.365,11.895,7.034c4.714,0.67,9.502-0.062,14.207-0.793l4.525-3.911c6.256-6.799,9.134-16.567,7.564-25.672
					C356.647,84.449,354.421,86.87,352.728,89.552z"/>
			</g>
		</g>
		<g>
			<path style="fill:#407BFF;" d="M380.645,102.559c-4.292-3.362-10.092-4.461-15.483-3.646c-5.391,0.815-12.047,3.816-16.17,10.096
				c0.478-0.141-15.412,3.498-19.608,12.509c-3.57,7.665-1.555,19.874,3.596,26.579c3.982,5.184,9.959,8.466,16.059,10.814
				c6.1,2.348,12.492,3.911,18.504,6.476c4.515,1.926,9.527,4.452,14.066,2.584c2.374-0.977,4.163-3.061,5.262-5.38
				c1.099-2.32,1.58-4.879,1.955-7.418c1.397-9.464,1.467-19.084,0.889-28.633c-0.266-4.401-0.677-8.835-1.992-13.044
				C386.408,109.288,384.117,105.279,380.645,102.559z"/>
		</g>
		<g style="opacity:0.3;">
			<path style="fill:#FFFFFF;" d="M387.455,155.883c-0.293,1.93-0.797,4.126-2.523,5.037c-1.184,0.625-6.384,0.102-7.697-0.16
				c-14.24-2.844-25.685-13.207-35.651-23.77c-2.688-2.849-5.355-5.782-7.235-9.219c-1.664-3.042-2.674-6.549-2.351-9.978
				c-1.073,1.123-1.979,2.362-2.614,3.725c-3.57,7.665-1.555,19.874,3.596,26.579c3.982,5.184,9.959,8.466,16.059,10.814
				c6.1,2.348,12.492,3.911,18.504,6.476c4.515,1.926,9.527,4.452,14.066,2.584c2.374-0.977,4.163-3.061,5.262-5.38
				c1.099-2.32,1.58-4.879,1.955-7.418c1.397-9.464,1.467-19.084,0.889-28.633c-0.266-4.401-0.677-8.835-1.992-13.044
				c-0.18-0.577-0.381-1.15-0.598-1.717C389.339,121.818,389.65,141.409,387.455,155.883z"/>
		</g>
		<g>
			<path style="fill:#FFFFFF;" d="M372.859,142.749l-0.626,0.104c0.017,0.82,0.327,1.631,0.861,2.253
				c0.225,0.263,0.5,0.499,0.83,0.603c0.33,0.104,0.724,0.055,0.97-0.189c0.236-0.234,0.296-0.606,0.214-0.928
				c-0.082-0.322-0.287-0.6-0.519-0.838C374.117,143.272,373.512,142.92,372.859,142.749z"/>
		</g>
		<g>
			<path style="fill:#FFFFFF;" d="M379.879,156.122l-0.626,0.104c0.017,0.82,0.326,1.631,0.861,2.253
				c0.225,0.263,0.499,0.499,0.83,0.603c0.33,0.104,0.724,0.055,0.97-0.189c0.236-0.234,0.296-0.606,0.214-0.928
				c-0.082-0.322-0.287-0.6-0.519-0.838C381.137,156.645,380.532,156.293,379.879,156.122z"/>
		</g>
		<g>
			<path style="fill:#FFFFFF;" d="M366.428,156.453l-0.626,0.104c0.017,0.82,0.326,1.631,0.86,2.254
				c0.226,0.263,0.5,0.498,0.83,0.603c0.33,0.104,0.724,0.055,0.97-0.189c0.236-0.234,0.296-0.606,0.214-0.928
				c-0.082-0.322-0.287-0.6-0.519-0.838C367.686,156.976,367.081,156.624,366.428,156.453z"/>
		</g>
		<g>
			<path style="fill:#FFFFFF;" d="M360.289,144.458l-0.626,0.104c0.017,0.82,0.327,1.631,0.861,2.253
				c0.225,0.263,0.5,0.499,0.83,0.603c0.33,0.104,0.724,0.055,0.97-0.189c0.236-0.234,0.296-0.606,0.214-0.928
				c-0.082-0.322-0.287-0.6-0.519-0.838C361.547,144.981,360.942,144.629,360.289,144.458z"/>
		</g>
		<g>
			<path style="fill:#FFFFFF;" d="M348.591,150.805l-0.626,0.104c0.017,0.82,0.327,1.631,0.861,2.253
				c0.225,0.263,0.5,0.499,0.83,0.603c0.33,0.104,0.724,0.055,0.97-0.189c0.236-0.234,0.296-0.606,0.214-0.928
				c-0.082-0.322-0.287-0.6-0.519-0.838C349.849,151.327,349.244,150.975,348.591,150.805z"/>
		</g>
		<g>
			<path style="fill:#FFFFFF;" d="M375.539,127.463l-0.626,0.104c0.017,0.82,0.327,1.631,0.861,2.254
				c0.225,0.263,0.5,0.498,0.83,0.603c0.33,0.104,0.724,0.055,0.97-0.189c0.236-0.234,0.296-0.606,0.214-0.928
				c-0.082-0.322-0.287-0.6-0.519-0.838C376.797,127.985,376.192,127.633,375.539,127.463z"/>
		</g>
		<g>
			<path style="fill:#FFFFFF;" d="M384.936,123.566l-0.626,0.104c0.017,0.82,0.327,1.631,0.861,2.254
				c0.225,0.263,0.499,0.498,0.83,0.603c0.33,0.104,0.724,0.055,0.97-0.189c0.236-0.234,0.296-0.606,0.214-0.928
				c-0.082-0.322-0.287-0.6-0.519-0.838C386.194,124.088,385.589,123.737,384.936,123.566z"/>
		</g>
		<g>
			<path style="fill:#FFFFFF;" d="M384.744,138.645l-0.601-0.203c-0.371,0.731-0.48,1.592-0.302,2.393
				c0.075,0.338,0.206,0.675,0.448,0.923c0.242,0.248,0.613,0.389,0.945,0.29c0.318-0.095,0.547-0.395,0.626-0.718
				c0.079-0.323,0.029-0.664-0.063-0.984C385.607,139.698,385.239,139.103,384.744,138.645z"/>
		</g>
		<g>
			<path style="fill:#FFFFFF;" d="M349.012,137.756l-0.626,0.104c0.017,0.82,0.327,1.631,0.861,2.254
				c0.225,0.263,0.499,0.499,0.83,0.603c0.33,0.104,0.724,0.055,0.97-0.189c0.236-0.234,0.296-0.606,0.214-0.928
				c-0.082-0.322-0.287-0.6-0.519-0.838C350.27,138.279,349.665,137.927,349.012,137.756z"/>
		</g>
		<g>
			<path style="fill:#FFFFFF;" d="M336.014,138.488l-0.626,0.104c0.017,0.82,0.327,1.631,0.861,2.254
				c0.225,0.263,0.499,0.498,0.83,0.603c0.33,0.104,0.724,0.055,0.97-0.189c0.236-0.234,0.296-0.606,0.214-0.928
				c-0.082-0.322-0.287-0.6-0.519-0.838C337.272,139.01,336.668,138.659,336.014,138.488z"/>
		</g>
		<g>
			<path style="fill:#FFFFFF;" d="M363.218,131.605l-0.626,0.104c0.017,0.82,0.327,1.631,0.861,2.253
				c0.225,0.263,0.5,0.499,0.83,0.603c0.33,0.104,0.724,0.055,0.97-0.189c0.236-0.234,0.296-0.606,0.214-0.928
				c-0.082-0.322-0.287-0.6-0.519-0.838C364.476,132.127,363.871,131.775,363.218,131.605z"/>
		</g>
		<g>
			<path style="fill:#FFFFFF;" d="M365.608,118.778l-0.626,0.104c0.017,0.82,0.326,1.631,0.86,2.254
				c0.225,0.263,0.5,0.498,0.83,0.603c0.33,0.104,0.724,0.055,0.97-0.189c0.236-0.234,0.296-0.606,0.214-0.928
				c-0.082-0.322-0.287-0.6-0.519-0.838C366.866,119.301,366.261,118.949,365.608,118.778z"/>
		</g>
		<g>
			<path style="fill:#FFFFFF;" d="M380.473,111.873l-0.626,0.104c0.017,0.82,0.327,1.631,0.861,2.254
				c0.225,0.263,0.499,0.498,0.83,0.603c0.33,0.104,0.724,0.055,0.97-0.189c0.236-0.234,0.296-0.606,0.214-0.928
				c-0.082-0.322-0.287-0.6-0.519-0.838C381.731,112.396,381.126,112.044,380.473,111.873z"/>
		</g>
		<g>
			<path style="fill:#FFFFFF;" d="M346.921,124.957l-0.634-0.015c-0.137,0.809,0.015,1.663,0.423,2.375
				c0.172,0.3,0.397,0.583,0.702,0.747c0.305,0.164,0.701,0.189,0.989-0.004c0.276-0.186,0.404-0.54,0.384-0.872
				c-0.02-0.332-0.17-0.643-0.353-0.92C348.059,125.706,347.531,125.247,346.921,124.957z"/>
		</g>
		<g>
			<path style="fill:#FFFFFF;" d="M353.621,113.674l-0.634-0.015c-0.137,0.809,0.015,1.663,0.423,2.375
				c0.172,0.3,0.397,0.583,0.702,0.747c0.305,0.164,0.701,0.189,0.989-0.004c0.276-0.186,0.404-0.54,0.384-0.872
				c-0.02-0.332-0.169-0.643-0.353-0.92C354.758,114.422,354.23,113.964,353.621,113.674z"/>
		</g>
		<g>
			<path style="fill:#FFFFFF;" d="M366.698,105.13l-0.634-0.015c-0.137,0.809,0.015,1.663,0.423,2.375
				c0.172,0.3,0.397,0.583,0.702,0.747c0.305,0.164,0.701,0.189,0.989-0.004c0.276-0.186,0.404-0.54,0.384-0.872
				c-0.02-0.332-0.169-0.643-0.353-0.92C367.836,105.879,367.307,105.42,366.698,105.13z"/>
		</g>
		<g>
			<path style="fill:#FFFFFF;" d="M332.872,124.564l-0.634-0.015c-0.137,0.809,0.015,1.663,0.423,2.375
				c0.172,0.3,0.397,0.583,0.702,0.747c0.305,0.164,0.701,0.189,0.989-0.004c0.276-0.186,0.404-0.54,0.384-0.872
				c-0.02-0.332-0.169-0.643-0.353-0.92C334.01,125.313,333.482,124.854,332.872,124.564z"/>
		</g>
	</g>
	<g>
		<g>
			<g>
				<path style="fill:#263238;" d="M418.103,190.445c-1.996-0.299-4.027-0.243-6.045-0.187c2.909-1.233,5.516-3.174,7.531-5.607
					c-3.802-0.372-7.736,0.892-10.609,3.41c1.721-3.348,2.749-7.051,2.999-10.807c-3.527,1.916-6.044,5.586-6.559,9.567
					c-1.059-3.378-2.118-6.756-3.177-10.133c-0.122-0.39-0.29-0.829-0.674-0.968c-0.502-0.182-1.001,0.268-1.308,0.705
					c-1.741,2.481-1.866,5.815-1.047,8.733c0.819,2.918,2.473,5.519,4.105,8.073l3.439,1.633c5.565,1.901,11.993,1.072,16.894-2.178
					C422.081,191.419,420.1,190.744,418.103,190.445z"/>
			</g>
		</g>
		<g>
			<path style="fill:#407BFF;" d="M417.686,210.044c0.858-3.362,0.01-7.023-1.847-9.954c-1.857-2.931-5.313-6.039-10.028-6.83
				c0.205,0.242-5.99-8.08-12.316-8.214c-5.38-0.114-11.976,4.191-14.561,8.911c-1.998,3.649-2.378,7.973-2.181,12.128
				c0.197,4.156,0.926,8.28,0.973,12.44c0.036,3.124-0.15,6.691,2.103,8.857c1.178,1.132,2.851,1.64,4.484,1.685
				c1.633,0.045,3.247-0.331,4.822-0.764c5.871-1.613,11.493-4.04,16.907-6.825c2.496-1.284,4.973-2.66,7.087-4.506
				C415.245,215.126,416.992,212.763,417.686,210.044z"/>
		</g>
		<g style="opacity:0.3;">
			<path style="fill:#FFFFFF;" d="M388.371,227.686c-1.2,0.325-2.608,0.594-3.581-0.178c-0.668-0.53-1.697-3.693-1.881-4.525
				c-1.995-9.025,1.106-18.349,4.703-26.863c0.97-2.297,1.995-4.602,3.515-6.579c1.345-1.75,3.129-3.237,5.21-3.929
				c-0.929-0.337-1.883-0.547-2.84-0.568c-5.38-0.114-11.976,4.191-14.561,8.911c-1.998,3.649-2.378,7.973-2.181,12.128
				c0.197,4.156,0.926,8.28,0.973,12.44c0.036,3.124-0.15,6.691,2.103,8.857c1.178,1.132,2.851,1.64,4.484,1.685
				c1.633,0.045,3.247-0.331,4.822-0.764c5.871-1.613,11.493-4.04,16.907-6.825c2.496-1.284,4.973-2.66,7.087-4.506
				c0.29-0.253,0.572-0.517,0.846-0.789C408.697,220.047,397.365,225.253,388.371,227.686z"/>
		</g>
		<g>
			<path style="fill:#FFFFFF;" d="M392.278,215.816l-0.221-0.338c-0.473,0.22-0.866,0.608-1.092,1.079
				c-0.095,0.199-0.162,0.419-0.138,0.638c0.024,0.219,0.154,0.436,0.359,0.517c0.197,0.077,0.429,0.017,0.596-0.114
				c0.167-0.13,0.276-0.321,0.355-0.517C392.296,216.682,392.346,216.24,392.278,215.816z"/>
		</g>
		<g>
			<path style="fill:#FFFFFF;" d="M386.288,223.335l-0.221-0.338c-0.473,0.22-0.866,0.608-1.092,1.079
				c-0.095,0.199-0.162,0.419-0.138,0.638c0.024,0.219,0.154,0.436,0.359,0.517c0.197,0.077,0.429,0.017,0.596-0.113
				c0.167-0.13,0.276-0.321,0.355-0.517C386.306,224.202,386.356,223.759,386.288,223.335z"/>
		</g>
		<g>
			<path style="fill:#FFFFFF;" d="M382.646,215.584l-0.221-0.338c-0.473,0.22-0.866,0.609-1.092,1.079
				c-0.095,0.199-0.162,0.419-0.138,0.638c0.024,0.219,0.154,0.436,0.359,0.517c0.197,0.077,0.429,0.017,0.596-0.114
				c0.167-0.13,0.276-0.321,0.355-0.517C382.664,216.451,382.714,216.008,382.646,215.584z"/>
		</g>
		<g>
			<path style="fill:#FFFFFF;" d="M388.059,208.932l-0.221-0.338c-0.473,0.22-0.866,0.609-1.092,1.079
				c-0.095,0.199-0.162,0.419-0.138,0.638c0.024,0.219,0.154,0.436,0.359,0.517c0.197,0.078,0.429,0.017,0.596-0.114
				c0.167-0.13,0.276-0.321,0.355-0.517C388.077,209.799,388.126,209.356,388.059,208.932z"/>
		</g>
		<g>
			<path style="fill:#FFFFFF;" d="M381.362,203.745l-0.221-0.338c-0.473,0.22-0.866,0.608-1.092,1.079
				c-0.095,0.199-0.162,0.419-0.138,0.638c0.024,0.219,0.154,0.436,0.359,0.517c0.197,0.077,0.429,0.017,0.596-0.113
				c0.167-0.13,0.276-0.321,0.355-0.517C381.38,204.612,381.43,204.169,381.362,203.745z"/>
		</g>
		<g>
			<path style="fill:#FFFFFF;" d="M401.87,213.456l-0.221-0.338c-0.473,0.22-0.866,0.609-1.092,1.079
				c-0.095,0.199-0.162,0.419-0.138,0.638c0.024,0.219,0.154,0.436,0.359,0.517c0.197,0.078,0.429,0.017,0.596-0.113
				c0.167-0.13,0.276-0.321,0.355-0.517C401.888,214.323,401.938,213.88,401.87,213.456z"/>
		</g>
		<g>
			<path style="fill:#FFFFFF;" d="M406.55,217.931l-0.221-0.338c-0.473,0.22-0.866,0.608-1.092,1.079
				c-0.095,0.199-0.162,0.419-0.138,0.638c0.024,0.219,0.154,0.436,0.359,0.517c0.197,0.077,0.429,0.017,0.596-0.113
				c0.167-0.13,0.276-0.321,0.355-0.517C406.568,218.798,406.618,218.355,406.55,217.931z"/>
		</g>
		<g>
			<path style="fill:#FFFFFF;" d="M397.717,221.686l-0.036-0.402c-0.521-0.029-1.051,0.129-1.472,0.438
				c-0.178,0.13-0.34,0.293-0.422,0.498s-0.07,0.457,0.073,0.625c0.137,0.161,0.37,0.217,0.579,0.18
				c0.208-0.037,0.395-0.153,0.557-0.289C397.325,222.459,397.577,222.092,397.717,221.686z"/>
		</g>
		<g>
			<path style="fill:#FFFFFF;" d="M389.07,200.643l-0.221-0.338c-0.473,0.22-0.866,0.609-1.092,1.079
				c-0.095,0.199-0.162,0.419-0.138,0.638c0.024,0.219,0.154,0.436,0.359,0.517c0.197,0.078,0.429,0.017,0.596-0.113
				c0.167-0.13,0.276-0.321,0.355-0.517C389.089,201.51,389.138,201.068,389.07,200.643z"/>
		</g>
		<g>
			<path style="fill:#FFFFFF;" d="M385.311,193.26l-0.221-0.338c-0.473,0.22-0.866,0.609-1.092,1.079
				c-0.095,0.199-0.162,0.419-0.138,0.638c0.024,0.219,0.154,0.436,0.359,0.517c0.197,0.077,0.429,0.017,0.596-0.113
				c0.167-0.13,0.276-0.321,0.355-0.517C385.329,194.127,385.379,193.684,385.311,193.26z"/>
		</g>
		<g>
			<path style="fill:#FFFFFF;" d="M396.297,207.341l-0.221-0.338c-0.473,0.22-0.866,0.609-1.092,1.079
				c-0.095,0.199-0.162,0.419-0.138,0.638c0.024,0.219,0.154,0.436,0.359,0.517c0.197,0.077,0.429,0.017,0.596-0.114
				c0.167-0.13,0.276-0.321,0.355-0.517C396.315,208.208,396.365,207.765,396.297,207.341z"/>
		</g>
		<g>
			<path style="fill:#FFFFFF;" d="M404.382,205.444l-0.221-0.338c-0.473,0.22-0.866,0.609-1.092,1.079
				c-0.095,0.199-0.162,0.419-0.138,0.638c0.024,0.219,0.154,0.436,0.359,0.517c0.197,0.077,0.429,0.017,0.596-0.113
				c0.166-0.13,0.276-0.321,0.355-0.517C404.4,206.311,404.45,205.868,404.382,205.444z"/>
		</g>
		<g>
			<path style="fill:#FFFFFF;" d="M412.216,212.332l-0.221-0.338c-0.473,0.22-0.866,0.608-1.092,1.079
				c-0.095,0.199-0.162,0.419-0.138,0.638c0.024,0.219,0.154,0.436,0.359,0.517c0.197,0.077,0.429,0.017,0.596-0.113
				c0.167-0.13,0.276-0.321,0.355-0.517C412.235,213.199,412.284,212.757,412.216,212.332z"/>
		</g>
		<g>
			<path style="fill:#FFFFFF;" d="M395.99,196.143l-0.154-0.373c-0.506,0.128-0.965,0.436-1.275,0.856
				c-0.131,0.177-0.238,0.381-0.255,0.601c-0.017,0.22,0.07,0.457,0.256,0.575c0.179,0.113,0.418,0.097,0.606,0
				c0.188-0.097,0.331-0.264,0.445-0.442C395.846,196.998,395.977,196.573,395.99,196.143z"/>
		</g>
		<g>
			<path style="fill:#FFFFFF;" d="M404.281,197.152l-0.154-0.373c-0.506,0.128-0.965,0.436-1.275,0.856
				c-0.131,0.177-0.238,0.381-0.255,0.601c-0.017,0.22,0.07,0.457,0.256,0.575c0.179,0.113,0.418,0.097,0.606,0
				c0.188-0.097,0.331-0.264,0.445-0.442C404.137,198.007,404.268,197.581,404.281,197.152z"/>
		</g>
		<g>
			<path style="fill:#FFFFFF;" d="M412.612,202.579l-0.154-0.373c-0.506,0.128-0.965,0.435-1.275,0.856
				c-0.131,0.177-0.238,0.381-0.255,0.601c-0.018,0.22,0.069,0.457,0.256,0.575c0.179,0.113,0.418,0.097,0.606,0
				c0.188-0.097,0.331-0.264,0.445-0.442C412.467,203.433,412.599,203.008,412.612,202.579z"/>
		</g>
		<g>
			<path style="fill:#FFFFFF;" d="M392.616,187.859l-0.154-0.373c-0.506,0.128-0.965,0.436-1.275,0.856
				c-0.131,0.177-0.238,0.381-0.255,0.601c-0.018,0.22,0.069,0.457,0.256,0.575c0.179,0.113,0.418,0.097,0.606,0
				c0.188-0.097,0.331-0.264,0.445-0.442C392.471,188.714,392.603,188.288,392.616,187.859z"/>
		</g>
	</g>
	<g>
		<g>
			<g>
				<path style="fill:#263238;" d="M229.443,413.252c-3.032,0.048-6.028,0.628-9.004,1.207c4.009-2.542,7.395-6.058,9.785-10.159
					c-5.726,0.381-11.246,3.221-14.886,7.658c1.73-5.385,2.344-11.125,1.792-16.754c-4.757,3.706-7.586,9.763-7.373,15.79
					c-2.399-4.746-4.798-9.492-7.197-14.239c-0.277-0.548-0.633-1.158-1.237-1.27c-0.789-0.146-1.418,0.642-1.766,1.366
					c-1.971,4.104-1.338,9.077,0.592,13.2c1.93,4.124,5.02,7.573,8.066,10.957l5.498,1.576c8.715,1.451,18.038-1.355,24.504-7.375
					C235.577,413.72,232.476,413.205,229.443,413.252z"/>
			</g>
		</g>
		<g>
			<path style="fill:#407BFF;" d="M233.636,442.401c0.446-5.194-1.709-10.411-5.181-14.3c-3.472-3.888-9.356-7.646-16.539-7.661
				c0.363,0.309-10.862-10.505-20.269-9.151c-8.002,1.152-16.72,9.152-19.393,16.782c-2.066,5.899-1.567,12.4-0.255,18.511
				c1.312,6.111,3.404,12.044,4.496,18.198c0.82,4.622,1.42,9.954,5.29,12.61c2.024,1.389,4.628,1.73,7.059,1.397
				c2.432-0.334,4.731-1.288,6.96-2.316c8.305-3.832,16.042-8.809,23.383-14.266c3.384-2.516,6.717-5.163,9.398-8.418
				C231.265,450.533,233.275,446.602,233.636,442.401z"/>
		</g>
		<g style="opacity:0.3;">
			<path d="M233.636,442.401c0.446-5.194-1.709-10.411-5.181-14.3c-3.472-3.888-9.356-7.646-16.539-7.661
				c0.363,0.309-10.862-10.505-20.269-9.151c-8.002,1.152-16.72,9.152-19.393,16.782c-2.066,5.899-1.567,12.4-0.255,18.511
				c1.312,6.111,3.404,12.044,4.496,18.198c0.82,4.622,1.42,9.954,5.29,12.61c2.024,1.389,4.628,1.73,7.059,1.397
				c2.432-0.334,4.731-1.288,6.96-2.316c8.305-3.832,16.042-8.809,23.383-14.266c3.384-2.516,6.717-5.163,9.398-8.418
				C231.265,450.533,233.275,446.602,233.636,442.401z"/>
		</g>
		<g style="opacity:0.1;">
			<path style="fill:#FFFFFF;" d="M194.518,475.745c-1.698,0.775-3.719,1.521-5.352,0.615c-1.12-0.621-3.421-5.056-3.898-6.244
				c-5.173-12.886-2.865-27.467,0.376-40.968c0.874-3.642,1.827-7.31,3.594-10.613c1.564-2.923,3.843-5.566,6.757-7.101
				c-1.46-0.272-2.925-0.349-4.349-0.144c-8.002,1.152-16.72,9.152-19.393,16.782c-2.066,5.899-1.567,12.4-0.255,18.511
				c1.312,6.111,3.404,12.044,4.496,18.198c0.82,4.622,1.42,9.954,5.29,12.61c2.024,1.389,4.628,1.73,7.059,1.397
				c2.432-0.334,4.731-1.288,6.96-2.316c8.305-3.832,16.042-8.809,23.383-14.266c3.384-2.516,6.717-5.163,9.398-8.418
				c0.368-0.446,0.721-0.906,1.061-1.377C222.77,459.434,207.252,469.931,194.518,475.745z"/>
		</g>
		<g>
			<path style="fill:#FFFFFF;" d="M197.395,457.193l-0.411-0.446c-0.648,0.443-1.135,1.115-1.354,1.868
				c-0.092,0.318-0.138,0.661-0.048,0.979c0.089,0.319,0.335,0.608,0.659,0.678c0.311,0.067,0.64-0.08,0.855-0.314
				c0.215-0.234,0.33-0.544,0.399-0.854C197.635,458.473,197.6,457.805,197.395,457.193z"/>
		</g>
		<g>
			<path style="fill:#FFFFFF;" d="M190.364,469.807l-0.411-0.446c-0.648,0.442-1.135,1.114-1.354,1.868
				c-0.092,0.318-0.138,0.661-0.048,0.979c0.089,0.319,0.335,0.608,0.659,0.678c0.311,0.067,0.64-0.08,0.855-0.314
				c0.215-0.234,0.33-0.543,0.399-0.854C190.604,471.088,190.569,470.42,190.364,469.807z"/>
		</g>
		<g>
			<path style="fill:#FFFFFF;" d="M183.063,459.214l-0.411-0.446c-0.648,0.442-1.135,1.114-1.354,1.867
				c-0.092,0.318-0.138,0.661-0.048,0.979c0.089,0.319,0.335,0.608,0.659,0.678c0.311,0.067,0.64-0.08,0.855-0.314
				c0.215-0.234,0.33-0.543,0.399-0.854C183.303,460.494,183.268,459.826,183.063,459.214z"/>
		</g>
		<g>
			<path style="fill:#FFFFFF;" d="M189.452,448.026l-0.411-0.446c-0.647,0.443-1.135,1.115-1.353,1.868
				c-0.093,0.318-0.138,0.661-0.048,0.979c0.089,0.319,0.335,0.608,0.659,0.678c0.311,0.067,0.64-0.08,0.855-0.314
				c0.215-0.234,0.33-0.543,0.399-0.854C189.692,449.306,189.657,448.638,189.452,448.026z"/>
		</g>
		<g>
			<path style="fill:#FFFFFF;" d="M178.254,441.983l-0.411-0.446c-0.648,0.443-1.135,1.115-1.354,1.868
				c-0.092,0.318-0.138,0.661-0.048,0.979c0.089,0.319,0.335,0.608,0.659,0.678c0.311,0.067,0.64-0.08,0.855-0.314
				c0.215-0.234,0.33-0.544,0.399-0.854C178.493,443.263,178.458,442.595,178.254,441.983z"/>
		</g>
		<g>
			<path style="fill:#FFFFFF;" d="M211.033,451.341l-0.411-0.446c-0.648,0.442-1.135,1.115-1.354,1.868
				c-0.092,0.318-0.138,0.661-0.048,0.979c0.089,0.319,0.335,0.608,0.659,0.678c0.311,0.067,0.64-0.08,0.855-0.314
				c0.215-0.234,0.33-0.543,0.399-0.854C211.272,452.621,211.238,451.953,211.033,451.341z"/>
		</g>
		<g>
			<path style="fill:#FFFFFF;" d="M219.067,456.824l-0.411-0.446c-0.647,0.442-1.135,1.114-1.354,1.868
				c-0.092,0.318-0.138,0.661-0.048,0.979c0.089,0.319,0.335,0.608,0.659,0.678c0.311,0.067,0.64-0.08,0.855-0.314
				c0.215-0.234,0.33-0.543,0.399-0.854C219.307,458.104,219.272,457.436,219.067,456.824z"/>
		</g>
		<g>
			<path style="fill:#FFFFFF;" d="M206.898,464.558l-0.152-0.587c-0.78,0.085-1.526,0.449-2.074,1.01
				c-0.231,0.237-0.433,0.518-0.504,0.841c-0.071,0.323,0.009,0.694,0.262,0.908c0.243,0.205,0.602,0.231,0.902,0.125
				c0.3-0.105,0.547-0.324,0.754-0.565C206.506,465.8,206.79,465.194,206.898,464.558z"/>
		</g>
		<g>
			<path style="fill:#FFFFFF;" d="M188.917,435.494l-0.411-0.446c-0.648,0.443-1.135,1.115-1.354,1.868
				c-0.092,0.318-0.138,0.661-0.048,0.979c0.089,0.319,0.335,0.608,0.659,0.678c0.311,0.067,0.64-0.08,0.855-0.314
				c0.215-0.234,0.33-0.543,0.399-0.854C189.157,436.774,189.122,436.106,188.917,435.494z"/>
		</g>
		<g>
			<path style="fill:#FFFFFF;" d="M181.533,425.474l-0.411-0.446c-0.647,0.442-1.135,1.115-1.354,1.868
				c-0.092,0.318-0.138,0.66-0.048,0.979c0.089,0.319,0.335,0.608,0.659,0.678c0.311,0.067,0.64-0.08,0.855-0.315
				c0.215-0.234,0.33-0.543,0.399-0.854C181.772,426.754,181.738,426.086,181.533,425.474z"/>
		</g>
		<g>
			<path style="fill:#FFFFFF;" d="M201.272,443.646l-0.411-0.446c-0.647,0.443-1.135,1.115-1.354,1.868
				c-0.092,0.318-0.138,0.661-0.048,0.979c0.089,0.319,0.335,0.608,0.659,0.678c0.311,0.067,0.64-0.08,0.855-0.314
				c0.215-0.234,0.33-0.543,0.399-0.854C201.512,444.926,201.477,444.258,201.272,443.646z"/>
		</g>
		<g>
			<path style="fill:#FFFFFF;" d="M212.789,438.85l-0.411-0.446c-0.648,0.442-1.135,1.115-1.354,1.868
				c-0.092,0.318-0.138,0.66-0.048,0.979c0.089,0.319,0.335,0.608,0.659,0.678c0.311,0.067,0.64-0.08,0.855-0.314
				c0.215-0.234,0.33-0.543,0.399-0.854C213.029,440.13,212.994,439.462,212.789,438.85z"/>
		</g>
		<g>
			<path style="fill:#FFFFFF;" d="M226.091,447.136l-0.411-0.446c-0.647,0.442-1.135,1.115-1.354,1.868
				c-0.092,0.318-0.138,0.66-0.048,0.979c0.089,0.319,0.335,0.608,0.659,0.678c0.311,0.067,0.64-0.08,0.855-0.315
				c0.215-0.234,0.33-0.543,0.399-0.854C226.331,448.416,226.296,447.748,226.091,447.136z"/>
		</g>
		<g>
			<path style="fill:#FFFFFF;" d="M198.068,427.125l-0.32-0.515c-0.719,0.313-1.323,0.882-1.679,1.581
				c-0.15,0.295-0.259,0.623-0.231,0.953c0.028,0.33,0.215,0.66,0.52,0.789c0.293,0.124,0.644,0.041,0.899-0.149
				c0.255-0.19,0.426-0.472,0.552-0.764C198.064,428.428,198.155,427.765,198.068,427.125z"/>
		</g>
		<g>
			<path style="fill:#FFFFFF;" d="M210.604,426.585l-0.32-0.515c-0.719,0.313-1.323,0.882-1.679,1.581
				c-0.15,0.295-0.259,0.623-0.231,0.953c0.028,0.33,0.215,0.66,0.52,0.789c0.293,0.124,0.644,0.041,0.899-0.149
				c0.255-0.19,0.426-0.472,0.552-0.764C210.6,427.888,210.69,427.225,210.604,426.585z"/>
		</g>
		<g>
			<path style="fill:#FFFFFF;" d="M224.283,432.583l-0.32-0.515c-0.719,0.313-1.323,0.882-1.679,1.581
				c-0.15,0.295-0.259,0.623-0.231,0.953c0.028,0.33,0.215,0.66,0.52,0.789c0.293,0.124,0.644,0.041,0.899-0.149
				c0.255-0.19,0.426-0.472,0.552-0.764C224.279,433.885,224.369,433.222,224.283,432.583z"/>
		</g>
		<g>
			<path style="fill:#FFFFFF;" d="M191.034,415.675l-0.32-0.515c-0.719,0.313-1.323,0.882-1.679,1.581
				c-0.15,0.295-0.259,0.623-0.231,0.953c0.028,0.33,0.215,0.66,0.52,0.789c0.293,0.124,0.644,0.041,0.899-0.149
				c0.255-0.19,0.426-0.472,0.552-0.764C191.029,416.978,191.12,416.315,191.034,415.675z"/>
		</g>
	</g>
</g>
</svg>
