<?xml version="1.0" encoding="utf-8"?>
<!-- Generator: Adobe Illustrator 27.5.0, SVG Export Plug-In . SVG Version: 6.00 Build 0)  -->
<svg version="1.1" xmlns="http://www.w3.org/2000/svg" xmlns:xlink="http://www.w3.org/1999/xlink" x="0px" y="0px"
	 viewBox="0 0 500 500" style="enable-background:new 0 0 500 500;" xml:space="preserve">
<g id="BACKGROUND">
	<rect style="fill:#FFFFFF;" width="500" height="500"/>
</g>
<g id="OBJECTS">
	
		<ellipse transform="matrix(0.7548 -0.656 0.656 0.7548 -102.7152 225.2465)" style="fill:#D7F9F6;" cx="249.899" cy="250" rx="161.108" ry="207.53"/>
	<g>
		<g>
			<path style="fill:#FFD285;" d="M105.481,461.849L105.481,461.849c-3.181-1.076-4.888-4.526-3.812-7.707l55.873-165.214
				c1.076-3.181,4.526-4.888,7.707-3.812l0,0c3.181,1.076,4.888,4.527,3.812,7.708l-55.873,165.214
				C112.113,461.218,108.662,462.925,105.481,461.849z"/>
			<path style="fill:#E2AB5A;" d="M165.25,285.115c3.181,1.076,4.888,4.527,3.812,7.708l-55.873,165.214
				c-1.076,3.181-4.526,4.888-7.707,3.812l0,0"/>
			
				<line style="fill:none;stroke:#492222;stroke-linecap:round;stroke-linejoin:round;stroke-miterlimit:10;" x1="142.082" y1="333.663" x2="123.587" y2="389.331"/>
		</g>
		<g>
			<g>
				<path style="fill:#FF9453;" d="M257.854,61.2c0,0,30.341,17.346,13.788,61.62s-59.594,145.776-67.516,165.374
					s-25.092,43.469-55.229,31.83c-32.216-12.443-19.13-76.058-7.243-121.603C153.542,152.876,216.353,32.65,257.854,61.2z"/>
				<path style="fill:#F27A38;" d="M257.854,61.2c0,0,30.341,17.346,13.788,61.62s-59.594,145.776-67.516,165.374
					c-6.312,15.618-18.498,33.948-38.438,34.861c0,0-5.024-32.588,3.268-49.87C197.972,212.713,272.142,94.728,257.854,61.2z"/>
				<path style="fill:#F27A38;" d="M159.672,305.283c0.075,1.795-1.319,3.312-3.115,3.387c-1.795,0.075-3.312-1.319-3.387-3.115
					c-0.075-1.795,1.319-3.312,3.115-3.387C158.081,302.094,159.597,303.488,159.672,305.283z"/>
				<path style="fill:#F27A38;" d="M160.018,272.854c0.039,0.94-0.691,1.733-1.63,1.773c-0.94,0.039-1.733-0.69-1.773-1.63
					c-0.039-0.94,0.691-1.733,1.63-1.773C159.185,271.184,159.979,271.914,160.018,272.854z"/>
				<path style="fill:#F27A38;" d="M191.295,201.411c0.039,0.94-0.691,1.733-1.63,1.773c-0.94,0.039-1.733-0.69-1.773-1.63
					c-0.039-0.94,0.69-1.733,1.63-1.773C190.462,199.741,191.256,200.471,191.295,201.411z"/>
				<path style="fill:#F27A38;" d="M220.324,161.63c0.039,0.94-0.691,1.733-1.63,1.773c-0.94,0.039-1.733-0.691-1.773-1.63
					c-0.039-0.94,0.691-1.733,1.63-1.773C219.491,159.96,220.285,160.69,220.324,161.63z"/>
				<path style="fill:#F27A38;" d="M159.818,250.689c0.039,0.94-0.691,1.733-1.63,1.773c-0.94,0.039-1.733-0.69-1.773-1.63
					c-0.039-0.94,0.691-1.733,1.63-1.773C158.985,249.019,159.779,249.749,159.818,250.689z"/>
				<path style="fill:#F27A38;" d="M205.026,170.018c0.039,0.94-0.691,1.733-1.63,1.773c-0.94,0.039-1.733-0.691-1.773-1.63
					c-0.039-0.94,0.691-1.733,1.63-1.773C204.193,168.349,204.986,169.079,205.026,170.018z"/>
				<path style="fill:#FFD285;" d="M212.744,98.478c0.039,0.94-0.69,1.733-1.63,1.773c-0.94,0.039-1.733-0.691-1.773-1.63
					c-0.039-0.94,0.691-1.733,1.63-1.773C211.911,96.808,212.705,97.538,212.744,98.478z"/>
				<path style="fill:#FFD285;" d="M150.146,221.508c0.039,0.94-0.69,1.733-1.63,1.773c-0.94,0.039-1.733-0.691-1.773-1.63
					c-0.039-0.94,0.691-1.733,1.63-1.773C149.313,219.838,150.106,220.568,150.146,221.508z"/>
				<path style="fill:#FFD285;" d="M196.178,153.593c0.039,0.94-0.69,1.733-1.63,1.773c-0.94,0.039-1.733-0.69-1.773-1.63
					c-0.039-0.94,0.69-1.733,1.63-1.773C195.345,151.923,196.139,152.653,196.178,153.593z"/>
				<path style="fill:#FFD285;" d="M156.49,188.614c0.039,0.94-0.691,1.733-1.63,1.773c-0.94,0.039-1.733-0.691-1.773-1.63
					c-0.039-0.94,0.691-1.733,1.63-1.773C155.657,186.944,156.451,187.674,156.49,188.614z"/>
				<path style="fill:#FFD285;" d="M136.529,287.27c0.039,0.94-0.69,1.733-1.63,1.773c-0.94,0.039-1.733-0.69-1.773-1.63
					c-0.039-0.94,0.691-1.733,1.63-1.773C135.696,285.6,136.49,286.33,136.529,287.27z"/>
				<path style="fill:#FFD285;" d="M222.32,79.189c0.039,0.94-0.69,1.733-1.63,1.773c-0.94,0.039-1.733-0.691-1.773-1.63
					c-0.039-0.94,0.691-1.733,1.63-1.773C221.486,77.519,222.28,78.249,222.32,79.189z"/>
				<path style="fill:#FFD285;" d="M172.586,157.254c0.039,0.94-0.691,1.733-1.63,1.773c-0.94,0.039-1.733-0.691-1.773-1.63
					c-0.039-0.94,0.691-1.733,1.63-1.773C171.753,155.585,172.547,156.314,172.586,157.254z"/>
				<path style="fill:#F27A38;" d="M216.341,143.666c0.039,0.94-0.691,1.733-1.63,1.773c-0.94,0.039-1.733-0.691-1.773-1.63
					c-0.039-0.94,0.691-1.733,1.63-1.773S216.302,142.726,216.341,143.666z"/>
				<path style="fill:#F27A38;" d="M246.85,67.023c0.039,0.94-0.691,1.733-1.63,1.773c-0.94,0.039-1.733-0.691-1.773-1.63
					c-0.039-0.94,0.691-1.733,1.63-1.773C246.017,65.353,246.81,66.083,246.85,67.023z"/>
				<path style="fill:#F27A38;" d="M237.264,93.349c0.039,0.94-0.69,1.733-1.63,1.773c-0.94,0.039-1.733-0.69-1.773-1.63
					c-0.039-0.94,0.691-1.733,1.63-1.773C236.431,91.68,237.225,92.41,237.264,93.349z"/>
				<path style="fill:#F27A38;" d="M246.659,103.173c0.039,0.94-0.691,1.733-1.63,1.773c-0.94,0.039-1.733-0.69-1.773-1.63
					c-0.039-0.94,0.691-1.733,1.63-1.773C245.826,101.503,246.62,102.233,246.659,103.173z"/>
				<path style="fill:#F27A38;" d="M154.221,289.938c0.039,0.94-0.69,1.733-1.63,1.773c-0.94,0.039-1.733-0.69-1.773-1.63
					c-0.039-0.94,0.691-1.733,1.63-1.773C153.388,288.268,154.182,288.998,154.221,289.938z"/>
				<path style="fill:#F27A38;" d="M160.114,315.827c0.039,0.94-0.691,1.733-1.63,1.773c-0.94,0.039-1.733-0.69-1.773-1.63
					c-0.039-0.94,0.691-1.733,1.63-1.773C159.281,314.158,160.074,314.888,160.114,315.827z"/>
				<path style="fill:#F27A38;" d="M193.545,216.434c0.075,1.795-1.319,3.312-3.115,3.387c-1.795,0.075-3.312-1.319-3.387-3.114
					c-0.075-1.795,1.319-3.312,3.115-3.387C191.953,213.244,193.469,214.639,193.545,216.434z"/>
				<path style="fill:#F27A38;" d="M230.369,148.9c0.075,1.795-1.319,3.312-3.115,3.387c-1.795,0.075-3.312-1.319-3.387-3.115
					c-0.075-1.795,1.319-3.312,3.114-3.387C228.778,145.71,230.294,147.105,230.369,148.9z"/>
				<path style="fill:#F27A38;" d="M253.654,81.133c0.075,1.795-1.319,3.312-3.114,3.387s-3.312-1.319-3.387-3.115
					c-0.075-1.795,1.319-3.312,3.115-3.387C252.062,77.943,253.579,79.337,253.654,81.133z"/>
				<path style="fill:#F27A38;" d="M174.905,253.313c0.075,1.795-1.319,3.312-3.115,3.387c-1.795,0.075-3.312-1.319-3.387-3.115
					c-0.075-1.795,1.319-3.312,3.115-3.387C173.313,250.124,174.83,251.518,174.905,253.313z"/>
				<path style="fill:#FFD285;" d="M141.171,256.431c0.075,1.795-1.319,3.312-3.115,3.387c-1.795,0.075-3.312-1.319-3.387-3.115
					c-0.075-1.795,1.319-3.312,3.115-3.387S141.096,254.635,141.171,256.431z"/>
				<path style="fill:#FFD285;" d="M187.995,126.251c0.075,1.795-1.319,3.312-3.115,3.387c-1.795,0.075-3.312-1.319-3.387-3.115
					s1.319-3.312,3.115-3.387C186.403,123.062,187.919,124.456,187.995,126.251z"/>
				<path style="fill:#FFD285;" d="M175.418,187.821c0.075,1.795-1.319,3.312-3.115,3.387c-1.795,0.075-3.312-1.319-3.387-3.115
					c-0.075-1.795,1.319-3.312,3.115-3.387C173.827,184.631,175.343,186.026,175.418,187.821z"/>
				<path style="fill:#F27A38;" d="M206.076,192.367c0.075,1.795-1.319,3.312-3.115,3.387c-1.795,0.075-3.312-1.319-3.387-3.115
					c-0.075-1.795,1.319-3.312,3.115-3.387C204.485,189.177,206.001,190.571,206.076,192.367z"/>
				<path style="fill:#F27A38;" d="M242.476,115.759c0.075,1.795-1.319,3.312-3.115,3.387c-1.795,0.075-3.312-1.319-3.387-3.115
					c-0.075-1.795,1.319-3.312,3.115-3.387C240.885,112.569,242.401,113.963,242.476,115.759z"/>
				<path style="fill:#F27A38;" d="M183.049,232.142c0.197,4.71-3.461,8.687-8.17,8.885c-4.71,0.197-8.687-3.461-8.885-8.17
					c-0.197-4.71,3.461-8.687,8.17-8.885C178.874,223.774,182.852,227.432,183.049,232.142z"/>
				<path style="fill:#F27A38;" d="M234.498,128.944c0.197,4.71-3.461,8.687-8.17,8.885c-4.71,0.197-8.687-3.461-8.885-8.17
					c-0.197-4.709,3.461-8.687,8.17-8.884C230.323,120.577,234.3,124.235,234.498,128.944z"/>
			</g>
			<g>
				<path style="fill:#F27A38;" d="M147.816,293.515c0,0,4.113-19.223,21.141-20.329c0,0-17.109-4.822-23.157,3.781
					C139.753,285.57,147.816,293.515,147.816,293.515z"/>
				<path style="fill:#F27A38;" d="M179.615,208.802c0,0-14.815,2.418-11.783,14.004c3.031,11.586,14.617,8.554,14.617,8.554
					s-22.586,3.832-23.81-9.188C157.415,209.153,179.615,208.802,179.615,208.802z"/>
				<path style="fill:#F27A38;" d="M200.482,147.338c0,0-14.833,1.992-11.917,10.801c2.915,8.809,14.526,6.381,14.526,6.381
					s-22.615,3.148-23.709-6.773C178.287,147.826,200.482,147.338,200.482,147.338z"/>
				<path style="fill:#F27A38;" d="M230.071,89.522c0,0-13.059,4.407-9.502,12.978c2.173,5.236,15.609,5.613,15.609,5.613
					s-21.615,5.348-24.683-4.151C208.428,94.463,230.071,89.522,230.071,89.522z"/>
				<path style="fill:#F27A38;" d="M243.487,108.83c0,0,10.418-0.098,14.708,8.106c4.291,8.204,2.076,19.39-6.797,21.758
					C255.326,123.141,243.487,108.83,243.487,108.83z"/>
				<path style="fill:#F27A38;" d="M201.347,233.517c0,0,10.002,2.914,11.741,12.007c1.739,9.094-3.611,19.163-12.79,18.869
					C208.55,250.637,201.347,233.517,201.347,233.517z"/>
			</g>
			<g>
				<path style="fill:#FFCE45;" d="M249.758,83.543c0,0-34.424-7.719-45.772,11.428c-11.348,19.147,10.511,24.911,26.725,23.46
					c14.135-1.265,20.59,18.309-5.943,18.053c-27.544-0.265-57.496-1.747-58.868,21.784c-1.372,23.531,34.224,21.709,48.076,22.028
					c13.853,0.319,3.185,12.402-16.629,13.627c-22.726,1.405-58.878,3.003-50.455,31.441c6.632,22.391,26.85,19.633,38.568,19.025
					c11.717-0.608,14.488,12.136-7.09,14.298c-21.578,2.163-50.664,8.067-34.943,36.59c0,0,1.61,2.39,3.45,1.053
					c1.84-1.336,0.584-4.635,0.463-5.38c-0.121-0.745-3.986-14.807,8.353-15.882c12.339-1.075,54.589,1.219,53.081-27.673
					c0,0-1.996-18.669-22.033-18.256c-20.037,0.413-23.414-0.619-24.52-8.585c-1.106-7.966,9.389-12.91,25.123-12.284
					c15.734,0.626,54.18-2.206,48.602-31.043c0,0-2.953-11.716-25.875-12.927c-22.922-1.211-28.825-0.381-27.802-8.657
					c1.023-8.276,25.37-7.113,34.08-6.522c8.71,0.59,40.84,1.973,38.82-26.094c-2.02-28.067-46.645-6.122-42.245-21.367
					c4.399-15.245,36.305-13.42,36.305-13.42s2.555,0.139,2.358-2.251C251.412,83.858,249.758,83.543,249.758,83.543z"/>
				<path style="fill:none;stroke:#492222;stroke-linecap:round;stroke-linejoin:round;stroke-miterlimit:10;" d="M251.587,85.989
					c-0.175-2.131-1.829-2.446-1.829-2.446s-34.424-7.719-45.772,11.428c-11.348,19.147,10.511,24.911,26.725,23.46
					c14.135-1.265,20.59,18.309-5.943,18.053"/>
				<path style="fill:none;stroke:#492222;stroke-linecap:round;stroke-linejoin:round;stroke-miterlimit:10;" d="M187.344,208.27
					c15.734,0.626,54.18-2.206,48.602-31.043c0,0-2.953-11.716-25.875-12.927c-22.922-1.211-28.825-0.381-27.802-8.657
					c1.023-8.276,25.37-7.113,34.08-6.522c8.71,0.59,40.84,1.973,38.82-26.094"/>
				<path style="fill:none;stroke:#492222;stroke-linecap:round;stroke-linejoin:round;stroke-miterlimit:10;" d="M208.775,247.396
					c0,0-1.996-18.669-22.033-18.256"/>
				<path style="fill:none;stroke:#492222;stroke-linecap:round;stroke-linejoin:round;stroke-miterlimit:10;" d="M143.427,295.278
					c0,0,1.61,2.39,3.45,1.053c1.84-1.336,0.584-4.635,0.463-5.38c-0.121-0.745-3.986-14.807,8.353-15.882"/>
				<path style="fill:none;stroke:#492222;stroke-linecap:round;stroke-linejoin:round;stroke-miterlimit:10;" d="M164.071,198.283
					c-12.832,3.811-21.845,11.328-17.179,27.081c6.632,22.391,26.85,19.633,38.568,19.025"/>
				<path style="fill:none;stroke:#492222;stroke-linecap:round;stroke-linejoin:round;stroke-miterlimit:10;" d="M165.9,158.269
					c-1.372,23.531,34.224,21.709,48.076,22.028"/>
				<path style="fill:#FFFFFF;" d="M175.516,168.865c0.293,0.314-0.043,0.797-0.477,0.681c-1.618-0.432-4.208-1.826-5.705-6.261
					c-2.122-6.287,0.939-14.262,6.814-16.896c0.433-0.194,0.867,0.24,0.598,0.607c-1.683,2.292-5.14,7.681-4.725,12.783
					C172.43,164.818,174.33,167.596,175.516,168.865z"/>
				<path style="fill:#FFFFFF;" d="M179.039,145.228c0.016,0.387-0.284,0.713-0.671,0.73c-0.387,0.016-0.714-0.284-0.73-0.671
					c-0.016-0.387,0.284-0.714,0.671-0.73C178.697,144.541,179.023,144.841,179.039,145.228z"/>
				<path style="fill:#EFAC14;" d="M222.506,199.402c0.016,0.387-0.284,0.713-0.671,0.73c-0.387,0.016-0.713-0.284-0.73-0.671
					c-0.016-0.387,0.284-0.713,0.671-0.73C222.163,198.715,222.49,199.015,222.506,199.402z"/>
				<path style="fill:#EFAC14;" d="M242.688,142.562c0.016,0.387-0.284,0.713-0.671,0.73c-0.387,0.016-0.713-0.284-0.73-0.671
					c-0.016-0.387,0.284-0.714,0.671-0.73C242.345,141.875,242.672,142.176,242.688,142.562z"/>
				<path style="fill:#EFAC14;" d="M240.376,143.361c0.016,0.387-0.284,0.714-0.671,0.73c-0.387,0.016-0.713-0.284-0.73-0.671
					c-0.016-0.387,0.284-0.713,0.671-0.73C240.033,142.674,240.36,142.974,240.376,143.361z"/>
				<path style="fill:#FFFFFF;" d="M144.663,288.742c0.315,0.773,0.081,1.6-0.524,1.846c-0.604,0.246-1.35-0.181-1.665-0.954
					c-0.315-0.773-0.081-1.6,0.524-1.846C143.602,287.542,144.348,287.969,144.663,288.742z"/>
				<path style="fill:#FFFFFF;" d="M152.696,225.173c1.369,3.729,5.116,11.376,13.172,12.796c0.475,0.084,0.477,0.759,0.004,0.854
					c-2.445,0.492-5.814,1.062-10.009-3.214c-2.796-2.85-4.092-7.715-4.011-10.293C151.868,224.835,152.53,224.721,152.696,225.173z
					"/>
				<path style="fill:#FFFFFF;" d="M204.255,101.383c0,0-0.721,7.141,4.485,9.71c0.279,0.138,0.227,0.553-0.081,0.603
					c-1.45,0.237-4.214,0.146-5.721-3.429C201.184,104.108,204.255,101.383,204.255,101.383z"/>
				<path style="fill:#EFAC14;" d="M250.052,115.506c-0.245-0.182-0.558,0.103-0.396,0.361c1.214,1.933,3.199,6.442,1.603,13.711
					c-1.456,6.63-4.983,9.872-7.208,11.308c-0.268,0.173-0.064,0.591,0.238,0.486c2.809-0.978,7.551-3.788,9.377-11.772
					C255.64,120.97,252.051,116.991,250.052,115.506z"/>
				<path style="fill:#EFAC14;" d="M229.485,172.77c-0.245-0.182-0.558,0.103-0.396,0.361c1.214,1.933,3.199,6.442,1.603,13.711
					c-1.456,6.63-4.983,9.872-7.208,11.308c-0.268,0.173-0.064,0.591,0.238,0.486c2.809-0.978,7.551-3.788,9.377-11.772
					C235.072,178.234,231.484,174.255,229.485,172.77z"/>
			</g>
			<g>
				<path style="fill:none;stroke:#492222;stroke-linecap:round;stroke-linejoin:round;stroke-miterlimit:10;" d="M273.692,116.689
					c0,0-20.399,53.081-34.258,86.496"/>
				<path style="fill:none;stroke:#492222;stroke-linecap:round;stroke-linejoin:round;stroke-miterlimit:10;" d="M155.371,161.569
					c0,0-35.318,84.323-24.525,135.169"/>
				<path style="fill:none;stroke:#492222;stroke-linecap:round;stroke-linejoin:round;stroke-miterlimit:10;" d="M206.079,79.961
					c0,0,17.948-21.762,38.879-23.078"/>
				<path style="fill:none;stroke:#492222;stroke-linecap:round;stroke-linejoin:round;stroke-miterlimit:10;" d="M150.817,320.722
					c0,0,18.146,9.435,36.945-7.365"/>
			</g>
		</g>
	</g>
	<g>
		<g>
			<path style="fill:#FFD285;" d="M171.616,463.749L171.616,463.749c-2.947-1.609-4.032-5.303-2.422-8.25l83.591-153.069
				c1.609-2.947,5.303-4.032,8.25-2.422l0,0c2.947,1.609,4.032,5.303,2.422,8.25l-83.591,153.069
				C178.257,464.274,174.564,465.359,171.616,463.749z"/>
			<path style="fill:#E2AB5A;" d="M261.036,300.008c2.947,1.609,4.032,5.303,2.422,8.25l-83.591,153.069
				c-1.609,2.947-5.303,4.032-8.25,2.422v0"/>
			
				<line style="fill:none;stroke:#492222;stroke-linecap:round;stroke-linejoin:round;stroke-miterlimit:10;" x1="176.149" y1="442.763" x2="221.406" y2="359.891"/>
		</g>
		<g>
			<g>
				<path style="fill:#FF9453;" d="M393.026,88.857c0,0,36.593,22.451,8.293,71.913c-23.702,41.425-84.157,134.921-95.38,153.076
					c-11.224,18.155-37.455,30.748-65.464,14.027c-29.942-17.874-1-70.718,18.593-114.019
					C278.661,170.552,343.614,57.938,393.026,88.857z"/>
				<path style="fill:#F27A38;" d="M322.127,229.312c-31.431,34.289-43.504,104.87-43.504,104.87
					c11.862-3.183,21.561-11.029,27.316-20.337c11.224-18.155,71.678-111.65,95.38-153.076c15.125-26.434,11.714-45.154,5.26-56.855
					C406.58,103.915,396.346,148.345,322.127,229.312z"/>
				<path style="fill:#F27A38;" d="M336.658,201.029c-0.049,0.939-0.851,1.661-1.79,1.611c-0.939-0.049-1.661-0.851-1.611-1.79
					c0.049-0.939,0.851-1.661,1.79-1.611C335.986,199.289,336.707,200.09,336.658,201.029z"/>
				<path style="fill:#F27A38;" d="M288.494,273.182c-0.049,0.939-0.851,1.661-1.79,1.611c-0.939-0.049-1.661-0.851-1.611-1.79
					c0.049-0.939,0.851-1.661,1.79-1.611C287.821,271.441,288.543,272.242,288.494,273.182z"/>
				<path style="fill:#F27A38;" d="M250.639,321.551c-0.049,0.939-0.851,1.661-1.79,1.611c-0.939-0.049-1.661-0.851-1.611-1.79
					c0.049-0.939,0.851-1.661,1.79-1.611C249.967,319.81,250.688,320.612,250.639,321.551z"/>
				<path style="fill:#F27A38;" d="M284.942,246.287c-0.049,0.939-0.851,1.661-1.79,1.611c-0.939-0.049-1.661-0.851-1.611-1.79
					c0.049-0.939,0.851-1.661,1.79-1.611C284.27,244.546,284.991,245.348,284.942,246.287z"/>
				<path style="fill:#F27A38;" d="M265.061,294.759c-0.049,0.939-0.851,1.661-1.79,1.611c-0.939-0.049-1.661-0.851-1.611-1.79
					c0.049-0.939,0.851-1.661,1.79-1.611C264.389,293.018,265.11,293.819,265.061,294.759z"/>
				<path style="fill:#F27A38;" d="M380.453,90.128c-0.049,0.939-0.851,1.661-1.79,1.611c-0.939-0.049-1.661-0.851-1.611-1.79
					c0.049-0.939,0.851-1.661,1.79-1.611C379.781,88.387,380.502,89.189,380.453,90.128z"/>
				<path style="fill:#F27A38;" d="M379.533,140.143c-0.049,0.939-0.851,1.661-1.79,1.611c-0.939-0.049-1.661-0.851-1.611-1.79
					c0.049-0.939,0.851-1.661,1.79-1.611C378.861,138.402,379.583,139.203,379.533,140.143z"/>
				<path style="fill:#F27A38;" d="M332.808,169.759c-0.049,0.939-0.851,1.661-1.79,1.611c-0.939-0.049-1.661-0.851-1.611-1.79
					c0.049-0.939,0.851-1.661,1.79-1.611C332.136,168.019,332.857,168.82,332.808,169.759z"/>
				<path style="fill:#F27A38;" d="M309.482,228.257c-0.049,0.939-0.851,1.661-1.79,1.611c-0.939-0.049-1.661-0.851-1.611-1.79
					c0.049-0.939,0.851-1.661,1.79-1.611C308.809,226.516,309.531,227.318,309.482,228.257z"/>
				<path style="fill:#FFD285;" d="M305.656,176.998c-0.049,0.939-0.851,1.661-1.79,1.611c-0.939-0.049-1.661-0.851-1.611-1.79
					c0.049-0.939,0.851-1.661,1.79-1.611C304.984,175.257,305.705,176.059,305.656,176.998z"/>
				<path style="fill:#FFD285;" d="M363.224,94.75c-0.049,0.939-0.851,1.661-1.79,1.611c-0.939-0.049-1.661-0.851-1.611-1.79
					c0.049-0.939,0.851-1.661,1.79-1.611C362.552,93.01,363.273,93.811,363.224,94.75z"/>
				<path style="fill:#FFD285;" d="M334.748,132.796c-0.049,0.939-0.851,1.661-1.79,1.611c-0.939-0.049-1.661-0.851-1.611-1.79
					c0.049-0.939,0.851-1.661,1.79-1.611C334.076,131.056,334.797,131.857,334.748,132.796z"/>
				<path style="fill:#FFD285;" d="M245.072,295.415c-0.049,0.939-0.851,1.661-1.79,1.611c-0.939-0.049-1.661-0.851-1.611-1.79
					c0.049-0.939,0.851-1.661,1.79-1.611C244.4,293.674,245.122,294.475,245.072,295.415z"/>
				<path style="fill:#FFD285;" d="M263.515,229.647c-0.049,0.939-0.851,1.661-1.79,1.611c-0.939-0.049-1.661-0.851-1.611-1.79
					c0.049-0.939,0.851-1.661,1.79-1.611C262.843,227.906,263.564,228.707,263.515,229.647z"/>
				<path style="fill:#FFD285;" d="M248.312,266.177c-0.049,0.939-0.851,1.661-1.79,1.611c-0.939-0.049-1.661-0.851-1.611-1.79
					c0.049-0.939,0.851-1.661,1.79-1.611C247.64,264.436,248.362,265.238,248.312,266.177z"/>
				<path style="fill:#FFD285;" d="M343.016,112.385c-0.049,0.939-0.851,1.661-1.79,1.611c-0.939-0.049-1.661-0.851-1.611-1.79
					c0.049-0.939,0.851-1.661,1.79-1.611C342.343,110.644,343.065,111.445,343.016,112.385z"/>
				<path style="fill:#F27A38;" d="M351.775,179.62c-0.094,1.794-1.625,3.173-3.42,3.079c-1.794-0.094-3.173-1.625-3.079-3.42
					c0.094-1.795,1.625-3.173,3.42-3.079C350.491,176.294,351.87,177.825,351.775,179.62z"/>
				<path style="fill:#F27A38;" d="M300.012,252.041c-0.094,1.794-1.625,3.173-3.42,3.078c-1.794-0.094-3.173-1.625-3.079-3.42
					c0.094-1.794,1.625-3.173,3.42-3.078C298.728,248.716,300.106,250.247,300.012,252.041z"/>
				<path style="fill:#F27A38;" d="M317.191,212.639c-0.094,1.794-1.625,3.173-3.42,3.079c-1.794-0.094-3.173-1.625-3.079-3.42
					s1.625-3.173,3.42-3.079C315.907,209.314,317.285,210.845,317.191,212.639z"/>
				<path style="fill:#F27A38;" d="M284.069,292.498c-0.094,1.794-1.625,3.173-3.42,3.078c-1.795-0.094-3.173-1.625-3.079-3.42
					c0.094-1.794,1.625-3.173,3.42-3.078C282.785,289.173,284.163,290.704,284.069,292.498z"/>
				<path style="fill:#F27A38;" d="M272.672,273.904c-0.094,1.794-1.625,3.173-3.42,3.079c-1.794-0.094-3.173-1.625-3.079-3.42
					c0.094-1.794,1.625-3.173,3.42-3.078S272.766,272.11,272.672,273.904z"/>
				<path style="fill:#F27A38;" d="M366.37,126.468c-0.094,1.794-1.625,3.173-3.42,3.079c-1.794-0.094-3.173-1.625-3.079-3.42
					c0.094-1.794,1.625-3.173,3.42-3.078C365.086,123.143,366.464,124.674,366.37,126.468z"/>
				<path style="fill:#F27A38;" d="M389.82,124.441c-0.094,1.794-1.625,3.173-3.42,3.078s-3.173-1.625-3.079-3.42
					s1.625-3.173,3.42-3.079C388.536,121.115,389.914,122.646,389.82,124.441z"/>
				<path style="fill:#FFD285;" d="M311.722,153.082c-0.094,1.794-1.625,3.173-3.42,3.079c-1.794-0.094-3.173-1.625-3.078-3.42
					c0.094-1.794,1.625-3.173,3.42-3.079C310.438,149.756,311.816,151.287,311.722,153.082z"/>
				<path style="fill:#FFD285;" d="M358.69,109.949c-0.094,1.794-1.625,3.173-3.42,3.078c-1.794-0.094-3.173-1.625-3.079-3.42
					s1.625-3.173,3.42-3.078C357.406,106.624,358.784,108.155,358.69,109.949z"/>
				<path style="fill:#FFD285;" d="M266.742,259.828c-0.094,1.794-1.625,3.173-3.42,3.078c-1.794-0.094-3.173-1.625-3.079-3.42
					c0.094-1.794,1.625-3.173,3.42-3.078C265.458,256.502,266.836,258.033,266.742,259.828z"/>
				<path style="fill:#FFD285;" d="M276.171,207.228c-0.094,1.794-1.625,3.173-3.42,3.079c-1.794-0.094-3.173-1.625-3.078-3.42
					c0.094-1.794,1.625-3.173,3.42-3.079C274.887,203.903,276.265,205.434,276.171,207.228z"/>
				<path style="fill:#F27A38;" d="M366.795,157.046c-0.247,4.707-4.263,8.323-8.97,8.076c-4.707-0.247-8.323-4.263-8.076-8.97
					s4.263-8.323,8.971-8.076C363.427,148.322,367.042,152.339,366.795,157.046z"/>
				<path style="fill:#F27A38;" d="M393.421,103.226c-0.247,4.707-4.263,8.323-8.97,8.076c-4.707-0.247-8.323-4.263-8.076-8.97
					c0.247-4.707,4.263-8.323,8.97-8.076C390.052,94.502,393.668,98.518,393.421,103.226z"/>
				<path style="fill:#F27A38;" d="M275.633,318.25c-0.247,4.707-4.263,8.323-8.97,8.076c-4.707-0.247-8.323-4.263-8.076-8.97
					c0.247-4.707,4.263-8.323,8.971-8.076C272.264,309.526,275.88,313.542,275.633,318.25z"/>
			</g>
			<g>
				<path style="fill:#F27A38;" d="M307.382,221.838c0,0-14.603-3.476-16.269,8.383c-1.666,11.859,10.193,13.526,10.193,13.526
					s-22.319-5.166-18.432-17.653C286.76,213.608,307.382,221.838,307.382,221.838z"/>
				<path style="fill:#F27A38;" d="M276.377,281.019c0,0-14.277-3.426-16.269,8.383c-1.422,8.433,7.614,16.733,7.614,16.733
					s-19.74-8.374-15.853-20.86C255.756,272.789,276.377,281.019,276.377,281.019z"/>
				<path style="fill:#F27A38;" d="M342.218,160.176c0,0-14.277-3.426-16.269,8.383c-1.422,8.433,7.614,16.733,7.614,16.733
					s-19.739-8.374-15.853-20.86C321.596,151.947,342.218,160.176,342.218,160.176z"/>
				<path style="fill:#F27A38;" d="M379.757,106.099c0,0-14.277-3.426-16.269,8.383c-1.422,8.433,7.614,16.733,7.614,16.733
					s-19.74-8.374-15.853-20.86C359.135,97.869,379.757,106.099,379.757,106.099z"/>
			</g>
			<g>
				<path style="fill:#FF2727;" d="M275.809,314.889c0,0-47.595-19.116-33.238-36.801c20.368-25.088,47.358,17.508,56.646-10.904
					c7.762-23.744-41.263-16.268-30.199-47.814c10.819-30.85,61.477,12.887,70.341-7.197c8.985-20.358-52.813-28.94-36.056-55.333
					c17.716-27.904,63.011,13.983,72.086-2.713c9.075-16.695-53.662-23.976-29.354-50.392c22.045-23.957,38.938,6.405,46.78,11.032
					c0,0-10.233,4.531-18.568-5.301c-8.335-9.832-22.641,1.705-17.499,6.612c5.282,5.039,41.212,18.076,32.782,41.672
					c-8.43,23.596-37.351,16.39-60.911,6.715c-13.085-5.373-16.054,5.029,14.372,20.511c16.677,8.486,18.166,25.227,4.224,41.892
					c-13.943,16.665-59.755-16.163-62.095-1.162c-2.646,16.96,44.865,12.662,27.1,50.758c-10.883,23.338-30.859,11.971-41.601,8.701
					c-13.216-4.023-22.705,0.8-13.821,7.496C265.681,299.356,273.48,308.059,275.809,314.889z"/>
				<path style="fill:none;stroke:#492222;stroke-linecap:round;stroke-linejoin:round;stroke-miterlimit:10;" d="M310.754,248.134
					c5.61,5.719,8.127,14.044,1.465,28.33c-10.883,23.338-30.859,11.971-41.601,8.701"/>
				<path style="fill:none;stroke:#492222;stroke-linecap:round;stroke-linejoin:round;stroke-miterlimit:10;" d="M359.867,173.317
					c-10.041-1.004-21.138-4.701-31.247-8.852c-13.085-5.373-16.054,5.029,14.372,20.511c16.677,8.486,18.166,25.227,4.224,41.892"
					/>
				<path style="fill:none;stroke:#492222;stroke-linecap:round;stroke-linejoin:round;stroke-miterlimit:10;" d="M374.246,109.466
					c-8.335-9.832-22.641,1.705-17.499,6.612"/>
				<path style="fill:none;stroke:#492222;stroke-linecap:round;stroke-linejoin:round;stroke-miterlimit:10;" d="M326.045,147.209
					c19.747,2.186,43.105,18.396,49.344,6.918c9.075-16.695-53.662-23.976-29.354-50.392c6.889-7.487,13.275-9.668,19.039-8.989"/>
				<path style="fill:none;stroke:#492222;stroke-linecap:round;stroke-linejoin:round;stroke-miterlimit:10;" d="M269.018,219.37
					c10.819-30.85,61.477,12.887,70.341-7.197c5.05-11.443-12.262-19.165-25.417-28.421"/>
				<path style="fill:none;stroke:#492222;stroke-linecap:round;stroke-linejoin:round;stroke-miterlimit:10;" d="M275.809,314.889
					c0,0-47.595-19.116-33.238-36.801c20.368-25.088,47.358,17.508,56.646-10.904"/>
				<path style="fill:#FFFFFF;" d="M309.434,174.806c0.262,0.34-0.118,0.79-0.539,0.633c-1.571-0.583-4.017-2.214-5.09-6.771
					c-1.52-6.459,2.277-14.11,8.374-16.18c0.449-0.152,0.841,0.321,0.538,0.66c-1.891,2.123-5.841,7.163-5.908,12.281
					C306.743,170.486,308.372,173.43,309.434,174.806z"/>
				<path style="fill:#FFFFFF;" d="M312.141,177.539c-0.02,0.387-0.35,0.683-0.737,0.663c-0.387-0.02-0.684-0.35-0.663-0.737
					c0.02-0.387,0.35-0.684,0.737-0.663C311.865,176.823,312.162,177.153,312.141,177.539z"/>
				<path style="fill:#FFFFFF;" d="M246.557,288.351c0.241,0.799-0.07,1.6-0.695,1.789c-0.625,0.189-1.327-0.307-1.568-1.106
					c-0.241-0.799,0.07-1.6,0.695-1.789C245.614,287.056,246.316,287.551,246.557,288.351z"/>
				<path style="fill:#FFFFFF;" d="M273.368,220.151c-0.751,3.9-1.485,12.384,4.684,17.757c0.364,0.317,0.018,0.896-0.437,0.734
					c-2.349-0.84-5.529-2.089-6.917-7.916c-0.925-3.884,0.474-8.72,1.873-10.887C272.833,219.434,273.459,219.678,273.368,220.151z"
					/>
				<path style="fill:#FFFFFF;" d="M345.145,110.791c0,0-1.39,7.041,3.551,10.089c0.265,0.163,0.174,0.572-0.137,0.593
					c-1.466,0.1-4.209-0.251-5.373-3.952C341.832,113.215,345.145,110.791,345.145,110.791z"/>
				<path style="fill:#CC1111;" d="M376.639,168.424c-0.029,0.55-0.498,0.973-1.048,0.944c-0.55-0.029-0.973-0.498-0.944-1.048
					c0.029-0.55,0.498-0.973,1.048-0.944C376.245,167.405,376.668,167.874,376.639,168.424z"/>
				<path style="fill:#CC1111;" d="M386.073,142.27c-0.227-0.204-0.565,0.05-0.428,0.323c1.027,2.038,2.578,6.715,0.305,13.801
					c-2.074,6.464-5.891,9.359-8.241,10.579c-0.283,0.147-0.119,0.582,0.191,0.506c2.889-0.709,7.874-3.06,10.444-10.837
					C391.122,148.236,387.924,143.937,386.073,142.27z"/>
				<path style="fill:#CC1111;" d="M307.916,257.889c-0.227-0.204-0.565,0.05-0.428,0.323c1.027,2.038,2.578,6.715,0.305,13.801
					c-2.074,6.464-5.891,9.359-8.241,10.579c-0.283,0.147-0.119,0.582,0.191,0.506c2.889-0.709,7.874-3.06,10.444-10.837
					C312.964,263.855,309.766,259.556,307.916,257.889z"/>
				<path style="fill:#CC1111;" d="M350.214,194.15c-0.276-0.217-0.647,0.101-0.468,0.404c1.338,2.267,3.482,7.53,1.409,15.859
					c-1.891,7.597-6.061,11.222-8.672,12.807c-0.314,0.191-0.092,0.679,0.258,0.568c3.27-1.038,8.827-4.126,11.188-13.272
					C356.482,200.628,352.471,195.926,350.214,194.15z"/>
				<path style="fill:#CC1111;" d="M331.104,163.585c3.804,0.563,14.161,2.279,20.322,5.059c0.44,0.198,0.296,0.862-0.186,0.863
					c-2.974,0.011-9.804-0.639-20.257-5.494C330.747,163.905,330.848,163.547,331.104,163.585z"/>
				<path style="fill:#CC1111;" d="M253.335,287.627c0,0-1.481-9.299,14.953-3.091C268.288,284.536,257.222,281.631,253.335,287.627
					z"/>
			</g>
			<g>
				<path style="fill:none;stroke:#492222;stroke-linecap:round;stroke-linejoin:round;stroke-miterlimit:10;" d="M400.109,94.981
					c0,0,20.708,18.36,8.122,51.008"/>
				<path style="fill:none;stroke:#492222;stroke-linecap:round;stroke-linejoin:round;stroke-miterlimit:10;" d="M243.903,247.253
					c0,0,34.027-84.305,78.406-132.131"/>
				<path style="fill:none;stroke:#492222;stroke-linecap:round;stroke-linejoin:round;stroke-miterlimit:10;" d="M327.375,280.033
					l-21.435,33.812c0,0-11.374,21.635-37.039,22.015"/>
			</g>
		</g>
	</g>
</g>
</svg>
