<?xml version="1.0" encoding="utf-8"?>
<!-- Generator: Adobe Illustrator 27.5.0, SVG Export Plug-In . SVG Version: 6.00 Build 0)  -->
<svg version="1.1" xmlns="http://www.w3.org/2000/svg" xmlns:xlink="http://www.w3.org/1999/xlink" x="0px" y="0px"
	 viewBox="0 0 500 500.001" style="enable-background:new 0 0 500 500.001;" xml:space="preserve">
<g id="BACKGROUND">
	<rect style="fill:#FFFFFF;" width="500.001" height="500.001"/>
</g>
<g id="OBJECTS">
	<g>
		<path style="fill:#304B54;stroke:#304B54;stroke-width:3;stroke-linecap:round;stroke-linejoin:round;stroke-miterlimit:10;" d="
			M264.099,342.772c0-4.102-14.332-7.426-32.01-7.426s-32.011,3.324-32.011,7.426c0,1.354,0,6.072,0,7.426
			c0,4.102,14.332,7.426,32.011,7.426s32.01-3.324,32.01-7.426C264.099,348.845,264.099,344.126,264.099,342.772z"/>
		<path style="fill:#304B54;stroke:#304B54;stroke-width:3;stroke-linecap:round;stroke-linejoin:round;stroke-miterlimit:10;" d="
			M310.462,262.081c9.986,5.856,13.119,19.133,6.982,29.598c-6.137,10.465-19.254,14.213-29.24,8.357
			c-9.986-5.857-13.119-19.135-6.983-29.6C287.358,259.972,300.476,256.224,310.462,262.081 M316.026,252.591
			c-15.242-8.937-35.074-3.439-44.293,12.281c-9.221,15.723-4.336,35.713,10.906,44.652c15.244,8.939,35.074,3.441,44.295-12.281
			C336.153,281.522,331.271,261.53,316.026,252.591L316.026,252.591z"/>
		<path style="fill:#FAC13E;stroke:#304B54;stroke-width:3;stroke-linecap:round;stroke-linejoin:round;stroke-miterlimit:10;" d="
			M295.769,235.044v61.441c0,27.615-22.387,50-50,50h-27.36c-27.614,0-50-22.385-50-50v-61.441H295.769z"/>
		
			<ellipse style="fill:#FAC13E;stroke:#304B54;stroke-width:3;stroke-linecap:round;stroke-linejoin:round;stroke-miterlimit:10;" cx="232.088" cy="235.044" rx="63.681" ry="11.201"/>
		<path style="fill:#304B54;" d="M284.429,241.421c-11.498-2.914-30.647-4.824-52.34-4.824c-21.694,0-40.843,1.91-52.341,4.824
			c11.498,2.914,30.647,4.824,52.341,4.824C253.782,246.246,272.931,244.335,284.429,241.421z"/>
		<g>
			<path style="fill:#304B54;" d="M233.241,142.375c0,0,0.98,1.119,2.315,3.374c0.663,1.13,1.387,2.552,2.107,4.256
				c0.721,1.703,1.385,3.712,1.823,6.005c0.434,2.289,0.738,4.869,0.529,7.669c-0.017,0.701-0.147,1.406-0.226,2.131l-0.069,0.547
				l-0.018,0.137l-0.009,0.068c0.008-0.018-0.086,0.285-0.049,0.17l-0.007,0.031l-0.051,0.24c-0.067,0.32-0.136,0.643-0.204,0.967
				c-0.068,0.324-0.137,0.648-0.206,0.976c-0.066,0.324-0.218,0.732-0.326,1.098c-0.243,0.734-0.482,1.568-0.762,2.254
				c-0.279,0.699-0.561,1.404-0.845,2.115c-0.328,0.674-0.658,1.35-0.991,2.033c-0.673,1.338-1.421,2.658-2.2,3.9
				c-1.546,2.518-3.257,4.861-4.831,7.113c-1.596,2.248-2.989,4.49-4.081,6.725c-0.242,0.563-0.52,1.123-0.742,1.684
				c-0.203,0.564-0.404,1.127-0.605,1.686c-0.287,1.131-0.623,2.256-0.725,3.395l-0.119,0.851l-0.031,0.213l-0.004,0.025
				c0,0.037-0.008-0.23-0.006-0.102v0.064l-0.004,0.125l-0.012,0.508c-0.021,0.672-0.041,1.34-0.061,1.998
				c0.045,1.164,0.014,2.246,0.146,3.436c0.158,2.328,0.564,4.539,1.016,6.582c0.443,2.053,1.021,3.914,1.555,5.574
				c0.586,1.637,1.113,3.086,1.617,4.254c0.51,1.164,0.907,2.1,1.221,2.713c0.309,0.623,0.474,0.955,0.474,0.955
				s-1.195-0.906-2.952-2.863c-0.877-0.977-1.908-2.209-2.961-3.727c-1.033-1.525-2.199-3.285-3.195-5.369
				c-1.012-2.072-1.994-4.414-2.688-7.027c-0.41-1.262-0.631-2.756-0.922-4.199c-0.084-0.654-0.17-1.316-0.256-1.984l-0.063-0.502
				l-0.016-0.125l-0.008-0.063c0.002,0.107-0.008-0.182-0.006-0.166l-0.002-0.037l-0.006-0.295
				c-0.008-0.393-0.014-0.789-0.021-1.188c-0.068-3.182,0.523-6.535,1.682-9.574c1.109-3.07,2.658-5.893,4.262-8.516
				c1.625-2.627,3.396-4.965,5.107-7.176c1.709-2.201,3.399-4.258,4.79-6.297c0.377-0.516,0.613-0.955,0.937-1.439
				c0.15-0.252,0.311-0.439,0.456-0.746l0.434-0.9c0.144-0.299,0.286-0.596,0.428-0.891l0.106-0.221l0.014-0.027
				c0.043-0.135-0.044,0.148-0.032,0.111l0.018-0.051l0.038-0.098l0.149-0.396c0.187-0.531,0.434-1.047,0.576-1.59
				c0.686-2.143,0.879-4.352,0.92-6.406c0.024-2.061-0.141-3.994-0.398-5.706c-0.233-1.72-0.563-3.218-0.881-4.443
				c-0.289-1.238-0.586-2.2-0.799-2.854C233.374,142.721,233.241,142.375,233.241,142.375z"/>
			<path style="fill:#304B54;" d="M249.499,150.847c0,0,0.845,1.057,1.96,3.163c0.551,1.055,1.142,2.38,1.721,3.962
				c0.578,1.58,1.086,3.439,1.373,5.551c0.285,2.105,0.436,4.475,0.109,7.027c-0.051,0.641-0.203,1.279-0.311,1.941l-0.09,0.496
				l-0.023,0.125l-0.012,0.063c0.01-0.017-0.101,0.275-0.059,0.164l-0.006,0.027l-0.059,0.215l-0.225,0.867
				c-0.215,1.063-0.85,2.627-1.391,3.902c-0.291,0.625-0.586,1.256-0.881,1.891c-0.333,0.598-0.667,1.199-1.003,1.803
				c-0.68,1.188-1.428,2.352-2.199,3.436c-1.533,2.205-3.21,4.227-4.758,6.156c-1.569,1.924-2.946,3.846-4.057,5.766
				c-0.25,0.484-0.532,0.965-0.765,1.449c-0.216,0.486-0.43,0.973-0.644,1.455c-0.325,0.982-0.695,1.959-0.858,2.959l-0.162,0.746
				l-0.041,0.188l-0.006,0.023c-0.003,0.035,0.006-0.232,0.001-0.105l-0.006,0.059l-0.011,0.113l-0.043,0.457
				c-0.061,0.607-0.123,1.209-0.184,1.805c-0.035,1.041-0.137,1.998-0.096,3.074c-0.014,2.1,0.202,4.113,0.469,5.984
				c0.25,1.879,0.661,3.59,1.021,5.127c0.4,1.523,0.774,2.871,1.145,3.965c0.378,1.088,0.667,1.967,0.905,2.545
				c0.233,0.588,0.357,0.9,0.357,0.9s-1.054-0.869-2.568-2.721c-0.756-0.928-1.638-2.092-2.541-3.514
				c-0.874-1.432-1.836-3.094-2.651-5.035c-0.822-1.934-1.604-4.115-2.108-6.531c-0.311-1.168-0.438-2.551-0.628-3.887
				c-0.044-0.598-0.09-1.199-0.135-1.809l-0.031-0.459l-0.008-0.113l-0.004-0.059c-0.004,0.107,0.004-0.178,0.004-0.162l0.001-0.033
				l0.01-0.27l0.042-1.092c0.105-2.924,0.828-5.977,2.053-8.695c1.181-2.752,2.751-5.242,4.351-7.541
				c1.621-2.301,3.358-4.314,5.037-6.199c1.675-1.879,3.338-3.607,4.712-5.342c0.372-0.438,0.604-0.805,0.932-1.209
				c0.152-0.213,0.31-0.363,0.463-0.631l0.456-0.783l0.451-0.775l0.111-0.193l0.014-0.023c0.051-0.129-0.054,0.148-0.039,0.111
				l0.02-0.043l0.04-0.086l0.161-0.342c0.204-0.461,0.462-0.904,0.627-1.377c0.762-1.867,1.083-3.834,1.259-5.678
				c0.16-1.85,0.144-3.602,0.03-5.162c-0.091-1.568-0.284-2.944-0.486-4.073c-0.173-1.141-0.373-2.032-0.519-2.639
				C249.594,151.17,249.499,150.847,249.499,150.847z"/>
			<path style="fill:#304B54;" d="M220.408,142.375c0,0,0.844,1.057,1.959,3.163c0.551,1.055,1.143,2.38,1.721,3.962
				c0.578,1.582,1.086,3.441,1.373,5.551c0.285,2.107,0.436,4.474,0.107,7.027c-0.049,0.641-0.203,1.281-0.309,1.941l-0.092,0.498
				l-0.021,0.125l-0.012,0.063c0.008-0.02-0.104,0.275-0.059,0.162l-0.008,0.027l-0.057,0.215l-0.227,0.869
				c-0.215,1.061-0.848,2.625-1.391,3.902c-0.291,0.625-0.584,1.254-0.881,1.889c-0.332,0.598-0.666,1.199-1.002,1.805
				c-0.68,1.185-1.428,2.351-2.199,3.435c-1.533,2.203-3.211,4.227-4.758,6.156c-1.57,1.924-2.947,3.846-4.057,5.764
				c-0.25,0.484-0.531,0.965-0.765,1.449c-0.216,0.488-0.43,0.973-0.644,1.455c-0.325,0.982-0.695,1.959-0.858,2.959l-0.162,0.748
				l-0.041,0.186l-0.006,0.023c-0.003,0.035,0.006-0.23,0.001-0.104l-0.006,0.057l-0.011,0.113l-0.043,0.457
				c-0.061,0.607-0.123,1.209-0.184,1.805c-0.035,1.041-0.136,1.998-0.096,3.076c-0.014,2.1,0.203,4.113,0.469,5.984
				c0.25,1.879,0.661,3.59,1.021,5.127c0.401,1.521,0.774,2.871,1.145,3.963c0.378,1.088,0.667,1.967,0.905,2.545
				c0.233,0.588,0.357,0.902,0.357,0.902s-1.054-0.869-2.568-2.723c-0.756-0.926-1.638-2.09-2.541-3.512
				c-0.874-1.434-1.835-3.096-2.65-5.037c-0.822-1.933-1.604-4.113-2.109-6.531c-0.311-1.168-0.437-2.551-0.628-3.887
				c-0.044-0.596-0.09-1.199-0.135-1.809l-0.031-0.457l-0.008-0.115l-0.004-0.057c-0.004,0.107,0.004-0.18,0.004-0.162l0.001-0.033
				l0.01-0.271l0.042-1.092c0.105-2.924,0.828-5.977,2.053-8.693c1.181-2.754,2.751-5.242,4.351-7.543
				c1.621-2.299,3.358-4.313,5.037-6.199c1.674-1.879,3.338-3.607,4.711-5.34c0.373-0.438,0.605-0.807,0.932-1.211
				c0.152-0.213,0.311-0.361,0.463-0.629l0.457-0.785l0.451-0.775l0.111-0.193l0.014-0.023c0.051-0.129-0.055,0.148-0.039,0.111
				l0.02-0.041l0.039-0.086l0.162-0.344c0.203-0.461,0.461-0.902,0.627-1.377c0.762-1.865,1.084-3.833,1.26-5.676
				c0.16-1.85,0.143-3.602,0.029-5.163c-0.09-1.567-0.283-2.943-0.486-4.072c-0.172-1.141-0.373-2.032-0.518-2.639
				C220.503,142.698,220.408,142.375,220.408,142.375z"/>
		</g>
		<g>
			<g>
				<g>
					<path style="fill:#304B54;" d="M290.025,246.996c-0.201,0-0.4-0.08-0.531-0.221c-0.139-0.141-0.219-0.33-0.219-0.529
						c0-0.201,0.08-0.391,0.219-0.531c0.281-0.279,0.771-0.279,1.051,0c0.15,0.141,0.23,0.33,0.23,0.531
						c0,0.199-0.08,0.389-0.221,0.529C290.413,246.916,290.214,246.996,290.025,246.996z"/>
				</g>
				<g>
					<path style="fill:#304B54;" d="M289.275,296.284c0-0.42,0.33-0.75,0.75-0.75l0,0c0.41,0,0.75,0.33,0.75,0.75l0,0
						c0,0.41-0.34,0.75-0.75,0.75l0,0C289.604,297.034,289.275,296.694,289.275,296.284z M289.275,290.025
						c0-0.41,0.33-0.75,0.75-0.75l0,0c0.41,0,0.75,0.34,0.75,0.75l0,0c0,0.41-0.34,0.75-0.75,0.75l0,0
						C289.604,290.775,289.275,290.435,289.275,290.025z M289.275,283.775c0-0.42,0.33-0.75,0.75-0.75l0,0
						c0.41,0,0.75,0.33,0.75,0.75l0,0c0,0.41-0.34,0.75-0.75,0.75l0,0C289.604,284.525,289.275,284.185,289.275,283.775z
						 M289.275,277.515c0-0.41,0.33-0.75,0.75-0.75l0,0c0.41,0,0.75,0.34,0.75,0.75l0,0c0,0.42-0.34,0.75-0.75,0.75l0,0
						C289.604,278.265,289.275,277.935,289.275,277.515z M289.275,271.265c0-0.42,0.33-0.75,0.75-0.75l0,0
						c0.41,0,0.75,0.33,0.75,0.75l0,0c0,0.41-0.34,0.75-0.75,0.75l0,0C289.604,272.015,289.275,271.675,289.275,271.265z
						 M289.275,265.005c0-0.41,0.33-0.75,0.75-0.75l0,0c0.41,0,0.75,0.34,0.75,0.75l0,0c0,0.42-0.34,0.75-0.75,0.75l0,0
						C289.604,265.755,289.275,265.425,289.275,265.005z M289.275,258.755c0-0.41,0.33-0.75,0.75-0.75l0,0
						c0.41,0,0.75,0.34,0.75,0.75l0,0c0,0.41-0.34,0.75-0.75,0.75l0,0C289.604,259.505,289.275,259.165,289.275,258.755z
						 M289.275,252.495c0-0.41,0.33-0.75,0.75-0.75l0,0c0.41,0,0.75,0.34,0.75,0.75l0,0c0,0.42-0.34,0.75-0.75,0.75l0,0
						C289.604,253.245,289.275,252.915,289.275,252.495z"/>
				</g>
				<g>
					<path style="fill:#304B54;" d="M290.025,303.284c-0.201,0-0.391-0.08-0.531-0.221c-0.139-0.139-0.219-0.328-0.219-0.529
						c0-0.189,0.08-0.391,0.219-0.529c0.271-0.281,0.781-0.281,1.061,0c0.141,0.139,0.221,0.34,0.221,0.529
						c0,0.201-0.08,0.391-0.221,0.529C290.413,303.204,290.214,303.284,290.025,303.284z"/>
				</g>
			</g>
			<g>
				<g>
					<path style="fill:#304B54;" d="M284.304,249.056c-0.19,0-0.391-0.08-0.529-0.221c-0.141-0.141-0.221-0.33-0.221-0.529
						c0-0.191,0.08-0.391,0.221-0.531c0.279-0.279,0.789-0.279,1.059,0c0.141,0.141,0.23,0.33,0.23,0.531
						c0,0.199-0.09,0.389-0.23,0.529C284.704,248.976,284.505,249.056,284.304,249.056z"/>
				</g>
				<g>
					<path style="fill:#304B54;" d="M283.554,289.884c0-0.41,0.34-0.75,0.76-0.75l0,0c0.41,0,0.75,0.34,0.75,0.75l0,0
						c0,0.42-0.34,0.75-0.75,0.75l0,0C283.894,290.634,283.554,290.304,283.554,289.884z M283.554,283.944
						c0-0.41,0.34-0.75,0.76-0.75l0,0c0.41,0,0.75,0.34,0.75,0.75l0,0c0,0.42-0.34,0.75-0.75,0.75l0,0
						C283.894,284.694,283.554,284.364,283.554,283.944z M283.554,278.005c0-0.41,0.34-0.75,0.76-0.75l0,0
						c0.41,0,0.75,0.34,0.75,0.75l0,0c0,0.42-0.34,0.75-0.75,0.75l0,0C283.894,278.755,283.554,278.425,283.554,278.005z
						 M283.554,272.064c0-0.408,0.34-0.75,0.76-0.75l0,0c0.41,0,0.75,0.342,0.75,0.75l0,0c0,0.422-0.34,0.75-0.75,0.75l0,0
						C283.894,272.814,283.554,272.485,283.554,272.064z M283.554,266.124c0-0.41,0.34-0.75,0.76-0.75l0,0
						c0.41,0,0.75,0.34,0.75,0.75l0,0c0,0.42-0.34,0.75-0.75,0.75l0,0C283.894,266.874,283.554,266.544,283.554,266.124z
						 M283.554,260.185c0-0.41,0.34-0.75,0.76-0.75l0,0c0.41,0,0.75,0.34,0.75,0.75l0,0c0,0.42-0.34,0.75-0.75,0.75l0,0
						C283.894,260.935,283.554,260.604,283.554,260.185z M283.554,254.245c0-0.41,0.34-0.75,0.76-0.75l0,0
						c0.41,0,0.75,0.34,0.75,0.75l0,0c0,0.42-0.34,0.75-0.75,0.75l0,0C283.894,254.995,283.554,254.665,283.554,254.245z"/>
				</g>
				<g>
					<path style="fill:#304B54;" d="M284.304,296.575c-0.19,0-0.391-0.08-0.529-0.221c-0.141-0.141-0.221-0.33-0.221-0.529
						c0-0.191,0.08-0.391,0.221-0.531c0.289-0.279,0.779-0.279,1.059,0c0.141,0.141,0.23,0.33,0.23,0.531
						c0,0.199-0.08,0.389-0.23,0.529C284.694,296.495,284.505,296.575,284.304,296.575z"/>
				</g>
			</g>
			<g>
				<g>
					<path style="fill:#304B54;" d="M278.595,249.784c-0.191,0-0.391-0.08-0.531-0.219c-0.139-0.14-0.219-0.33-0.219-0.531
						c0-0.199,0.08-0.389,0.219-0.529c0.281-0.279,0.781-0.279,1.061,0c0.141,0.141,0.221,0.33,0.221,0.529
						c0,0.201-0.08,0.391-0.221,0.531C278.983,249.704,278.794,249.784,278.595,249.784z"/>
				</g>
				<g>
					<path style="fill:#304B54;" d="M277.845,281.325c0-0.41,0.34-0.75,0.75-0.75l0,0c0.42,0,0.75,0.34,0.75,0.75l0,0
						c0,0.42-0.33,0.75-0.75,0.75l0,0C278.185,282.075,277.845,281.745,277.845,281.325z M277.845,274.874
						c0-0.42,0.34-0.76,0.75-0.76l0,0c0.42,0,0.75,0.34,0.75,0.76l0,0c0,0.41-0.33,0.74-0.75,0.74l0,0
						C278.185,275.614,277.845,275.284,277.845,274.874z M277.845,268.415c0-0.42,0.34-0.75,0.75-0.75l0,0
						c0.42,0,0.75,0.33,0.75,0.75l0,0c0,0.41-0.33,0.75-0.75,0.75l0,0C278.185,269.165,277.845,268.825,277.845,268.415z
						 M277.845,261.954c0-0.42,0.34-0.75,0.75-0.75l0,0c0.42,0,0.75,0.33,0.75,0.75l0,0c0,0.41-0.33,0.75-0.75,0.75l0,0
						C278.185,262.704,277.845,262.364,277.845,261.954z M277.845,255.495c0-0.42,0.34-0.75,0.75-0.75l0,0
						c0.42,0,0.75,0.33,0.75,0.75l0,0c0,0.41-0.33,0.75-0.75,0.75l0,0C278.185,256.245,277.845,255.905,277.845,255.495z"/>
				</g>
				<g>
					<path style="fill:#304B54;" d="M278.595,288.534c-0.191,0-0.391-0.08-0.531-0.221c-0.139-0.139-0.219-0.328-0.219-0.529
						c0-0.189,0.08-0.391,0.219-0.529c0.281-0.281,0.781-0.281,1.061,0c0.141,0.139,0.221,0.34,0.221,0.529
						c0,0.201-0.08,0.391-0.211,0.529C278.983,288.454,278.794,288.534,278.595,288.534z"/>
				</g>
			</g>
			<g>
				<g>
					<path style="fill:#304B54;" d="M272.884,264.044c-0.189,0-0.391-0.08-0.529-0.219c-0.141-0.141-0.221-0.33-0.221-0.531
						c0-0.199,0.08-0.389,0.221-0.529c0.289-0.289,0.779-0.279,1.059-0.01c0.141,0.15,0.221,0.34,0.221,0.539
						c0,0.201-0.08,0.391-0.221,0.531C273.275,263.964,273.083,264.044,272.884,264.044z"/>
				</g>
				<g>
					<path style="fill:#304B54;" d="M272.134,256.854c0-0.41,0.34-0.75,0.75-0.75l0,0c0.42,0,0.75,0.34,0.75,0.75l0,0
						c0,0.42-0.33,0.75-0.75,0.75l0,0C272.474,257.604,272.134,257.275,272.134,256.854z"/>
				</g>
				<g>
					<path style="fill:#304B54;" d="M272.884,251.175c-0.189,0-0.391-0.08-0.529-0.221c-0.141-0.139-0.221-0.33-0.221-0.529
						c0-0.199,0.08-0.391,0.221-0.529c0.289-0.281,0.779-0.281,1.059,0c0.141,0.139,0.221,0.33,0.221,0.529
						c0,0.199-0.08,0.391-0.221,0.529C273.275,251.095,273.083,251.175,272.884,251.175z"/>
				</g>
			</g>
		</g>
	</g>
</g>
</svg>
